<?xml version="1.0" encoding="UTF-8"?><svg xmlns="http://www.w3.org/2000/svg" xmlns:xlink="http://www.w3.org/1999/xlink" stroke-dasharray="none" shape-rendering="auto" font-family="'Dialog'" width="1061" text-rendering="auto" fill-opacity="1" contentScriptType="text/ecmascript" color-interpolation="auto" color-rendering="auto" preserveAspectRatio="xMidYMid meet" font-size="12px" viewBox="0 0 1061 541" fill="black" stroke="black" image-rendering="auto" stroke-miterlimit="10" zoomAndPan="magnify" version="1.0" stroke-linecap="square" stroke-linejoin="miter" contentStyleType="text/css" font-style="normal" height="541" stroke-width="1" stroke-dashoffset="0" font-weight="normal" stroke-opacity="1">
    <!--Generated by the Batik Graphics2D SVG Generator-->
    <defs id="genericDefs"/>
    <g>
        <defs id="defs1">
            <linearGradient x1="10" x2="10" y1="10" gradientUnits="userSpaceOnUse" y2="111" xlink:type="simple" xlink:actuate="onLoad" id="linearGradient1" xlink:show="other" spreadMethod="pad">
                <stop stop-opacity="1" stop-color="white" offset="0%"/>
                <stop stop-opacity="1" stop-color="white" offset="100%"/>
            </linearGradient>
            <linearGradient x1="10" x2="10" y1="230" gradientUnits="userSpaceOnUse" y2="531" xlink:type="simple" xlink:actuate="onLoad" id="linearGradient2" xlink:show="other" spreadMethod="pad">
                <stop stop-opacity="1" stop-color="white" offset="0%"/>
                <stop stop-opacity="1" stop-color="white" offset="100%"/>
            </linearGradient>
            <linearGradient x1="30" x2="30" y1="405" gradientUnits="userSpaceOnUse" y2="505" xlink:type="simple" xlink:actuate="onLoad" id="linearGradient3" xlink:show="other" spreadMethod="pad">
                <stop stop-opacity="1" stop-color="white" offset="0%"/>
                <stop stop-opacity="1" stop-color="white" offset="100%"/>
            </linearGradient>
            <linearGradient x1="30" x2="30" y1="285" gradientUnits="userSpaceOnUse" y2="385" xlink:type="simple" xlink:actuate="onLoad" id="linearGradient4" xlink:show="other" spreadMethod="pad">
                <stop stop-opacity="1" stop-color="white" offset="0%"/>
                <stop stop-opacity="1" stop-color="white" offset="100%"/>
            </linearGradient>
            <linearGradient x1="270" x2="270" y1="285" gradientUnits="userSpaceOnUse" y2="385" xlink:type="simple" xlink:actuate="onLoad" id="linearGradient5" xlink:show="other" spreadMethod="pad">
                <stop stop-opacity="1" stop-color="white" offset="0%"/>
                <stop stop-opacity="1" stop-color="white" offset="100%"/>
            </linearGradient>
            <linearGradient x1="270" x2="270" y1="405" gradientUnits="userSpaceOnUse" y2="505" xlink:type="simple" xlink:actuate="onLoad" id="linearGradient6" xlink:show="other" spreadMethod="pad">
                <stop stop-opacity="1" stop-color="white" offset="0%"/>
                <stop stop-opacity="1" stop-color="white" offset="100%"/>
            </linearGradient>
            <linearGradient x1="510" x2="510" y1="285" gradientUnits="userSpaceOnUse" y2="385" xlink:type="simple" xlink:actuate="onLoad" id="linearGradient7" xlink:show="other" spreadMethod="pad">
                <stop stop-opacity="1" stop-color="white" offset="0%"/>
                <stop stop-opacity="1" stop-color="white" offset="100%"/>
            </linearGradient>
            <clipPath clipPathUnits="userSpaceOnUse" id="clipPath1">
                <path d="M10 10 L10 110 L210 110 L210 36 L51 36 L51 10 Z"/>
            </clipPath>
            <clipPath clipPathUnits="userSpaceOnUse" id="clipPath2">
                <path d="M7 7 L214 7 L214 114 L7 114 L7 7 Z"/>
            </clipPath>
            <clipPath clipPathUnits="userSpaceOnUse" id="clipPath3">
                <path d="M15 12 L48 12 L48 34 L15 34 L15 12 Z"/>
            </clipPath>
            <clipPath clipPathUnits="userSpaceOnUse" id="clipPath4">
                <path d="M10 35 L212 35 L212 112 L10 112 L10 35 Z"/>
            </clipPath>
            <clipPath clipPathUnits="userSpaceOnUse" id="clipPath5">
                <path d="M10 230 L10 530 L1050 530 L1050 256 L80 256 L80 230 Z"/>
            </clipPath>
            <clipPath clipPathUnits="userSpaceOnUse" id="clipPath6">
                <path d="M7 227 L1054 227 L1054 534 L7 534 L7 227 Z"/>
            </clipPath>
            <clipPath clipPathUnits="userSpaceOnUse" id="clipPath7">
                <path d="M15 232 L77 232 L77 254 L15 254 L15 232 Z"/>
            </clipPath>
            <clipPath clipPathUnits="userSpaceOnUse" id="clipPath8">
                <path d="M30 405 L30 504 L229 504 L229 431 L144 431 L144 405 Z"/>
            </clipPath>
            <clipPath clipPathUnits="userSpaceOnUse" id="clipPath9">
                <path d="M27 402 L233 402 L233 508 L27 508 L27 402 Z"/>
            </clipPath>
            <clipPath clipPathUnits="userSpaceOnUse" id="clipPath10">
                <path d="M35 407 L141 407 L141 429 L35 429 L35 407 Z"/>
            </clipPath>
            <clipPath clipPathUnits="userSpaceOnUse" id="clipPath11">
                <path d="M30 430 L231 430 L231 506 L30 506 L30 430 Z"/>
            </clipPath>
            <clipPath clipPathUnits="userSpaceOnUse" id="clipPath12">
                <path d="M30 285 L30 384 L229 384 L229 311 L155 311 L155 285 Z"/>
            </clipPath>
            <clipPath clipPathUnits="userSpaceOnUse" id="clipPath13">
                <path d="M27 282 L233 282 L233 388 L27 388 L27 282 Z"/>
            </clipPath>
            <clipPath clipPathUnits="userSpaceOnUse" id="clipPath14">
                <path d="M35 287 L152 287 L152 309 L35 309 L35 287 Z"/>
            </clipPath>
            <clipPath clipPathUnits="userSpaceOnUse" id="clipPath15">
                <path d="M30 310 L231 310 L231 386 L30 386 L30 310 Z"/>
            </clipPath>
            <clipPath clipPathUnits="userSpaceOnUse" id="clipPath16">
                <path d="M270 285 L270 384 L469 384 L469 311 L327 311 L327 285 Z"/>
            </clipPath>
            <clipPath clipPathUnits="userSpaceOnUse" id="clipPath17">
                <path d="M267 282 L473 282 L473 388 L267 388 L267 282 Z"/>
            </clipPath>
            <clipPath clipPathUnits="userSpaceOnUse" id="clipPath18">
                <path d="M275 287 L324 287 L324 309 L275 309 L275 287 Z"/>
            </clipPath>
            <clipPath clipPathUnits="userSpaceOnUse" id="clipPath19">
                <path d="M270 310 L471 310 L471 386 L270 386 L270 310 Z"/>
            </clipPath>
            <clipPath clipPathUnits="userSpaceOnUse" id="clipPath20">
                <path d="M270 405 L270 504 L469 504 L469 431 L359 431 L359 405 Z"/>
            </clipPath>
            <clipPath clipPathUnits="userSpaceOnUse" id="clipPath21">
                <path d="M267 402 L473 402 L473 508 L267 508 L267 402 Z"/>
            </clipPath>
            <clipPath clipPathUnits="userSpaceOnUse" id="clipPath22">
                <path d="M275 407 L356 407 L356 429 L275 429 L275 407 Z"/>
            </clipPath>
            <clipPath clipPathUnits="userSpaceOnUse" id="clipPath23">
                <path d="M270 430 L471 430 L471 506 L270 506 L270 430 Z"/>
            </clipPath>
            <clipPath clipPathUnits="userSpaceOnUse" id="clipPath24">
                <path d="M510 285 L510 384 L709 384 L709 311 L579 311 L579 285 Z"/>
            </clipPath>
            <clipPath clipPathUnits="userSpaceOnUse" id="clipPath25">
                <path d="M507 282 L713 282 L713 388 L507 388 L507 282 Z"/>
            </clipPath>
            <clipPath clipPathUnits="userSpaceOnUse" id="clipPath26">
                <path d="M515 287 L576 287 L576 309 L515 309 L515 287 Z"/>
            </clipPath>
            <clipPath clipPathUnits="userSpaceOnUse" id="clipPath27">
                <path d="M510 310 L711 310 L711 386 L510 386 L510 310 Z"/>
            </clipPath>
            <clipPath clipPathUnits="userSpaceOnUse" id="clipPath28">
                <path d="M10 255 L1052 255 L1052 532 L10 532 L10 255 Z"/>
            </clipPath>
        </defs>
        <g font-size="15px" fill="url(#linearGradient1)" font-family="'Segoe UI'" stroke-linejoin="round" stroke="url(#linearGradient1)" stroke-width="0" stroke-miterlimit="0">
            <rect x="10" width="201" height="101" y="10" clip-path="url(#clipPath1)" stroke="none"/>
        </g>
        <g font-size="15px" stroke-width="1.1" font-family="'Segoe UI'" stroke-linecap="butt">
            <line y2="10" fill="none" x1="10" clip-path="url(#clipPath2)" x2="51" y1="10"/>
            <line y2="36" fill="none" x1="51" clip-path="url(#clipPath2)" x2="51" y1="10"/>
            <line y2="36" fill="none" x1="51" clip-path="url(#clipPath2)" x2="210" y1="36"/>
            <line y2="110" fill="none" x1="210" clip-path="url(#clipPath2)" x2="210" y1="36"/>
            <line y2="110" fill="none" x1="210" clip-path="url(#clipPath2)" x2="10" y1="110"/>
            <line y2="10" fill="none" x1="10" clip-path="url(#clipPath2)" x2="10" y1="110"/>
            <text x="16" xml:space="preserve" y="30" clip-path="url(#clipPath3)" stroke="none">UML</text>
            <line y2="36" fill="none" x1="10" clip-path="url(#clipPath4)" x2="210" y1="36"/>
            <rect x="10" y="230" clip-path="url(#clipPath5)" fill="url(#linearGradient2)" width="1041" height="301" stroke="none"/>
            <line y2="230" fill="none" x1="10" clip-path="url(#clipPath6)" x2="80" y1="230"/>
            <line y2="256" fill="none" x1="80" clip-path="url(#clipPath6)" x2="80" y1="230"/>
            <line y2="256" fill="none" x1="80" clip-path="url(#clipPath6)" x2="1050" y1="256"/>
            <line y2="530" fill="none" x1="1050" clip-path="url(#clipPath6)" x2="1050" y1="256"/>
            <line y2="530" fill="none" x1="1050" clip-path="url(#clipPath6)" x2="10" y1="530"/>
            <line y2="230" fill="none" x1="10" clip-path="url(#clipPath6)" x2="10" y1="530"/>
            <text x="16" xml:space="preserve" y="250" clip-path="url(#clipPath7)" stroke="none">Domains</text>
            <rect x="30" y="405" clip-path="url(#clipPath8)" fill="url(#linearGradient3)" width="200" height="100" stroke="none"/>
            <line y2="405" fill="none" x1="30" clip-path="url(#clipPath9)" x2="144" y1="405"/>
            <line y2="431" fill="none" x1="144" clip-path="url(#clipPath9)" x2="144" y1="405"/>
            <line y2="431" fill="none" x1="144" clip-path="url(#clipPath9)" x2="229" y1="431"/>
            <line y2="504" fill="none" x1="229" clip-path="url(#clipPath9)" x2="229" y1="431"/>
            <line y2="504" fill="none" x1="229" clip-path="url(#clipPath9)" x2="30" y1="504"/>
            <line y2="405" fill="none" x1="30" clip-path="url(#clipPath9)" x2="30" y1="504"/>
            <text x="36" xml:space="preserve" y="425" clip-path="url(#clipPath10)" stroke="none">ProductSecurity</text>
            <line y2="431" fill="none" x1="30" clip-path="url(#clipPath11)" x2="229" y1="431"/>
            <rect x="30" y="285" clip-path="url(#clipPath12)" fill="url(#linearGradient4)" width="200" height="100" stroke="none"/>
            <line y2="285" fill="none" x1="30" clip-path="url(#clipPath13)" x2="155" y1="285"/>
            <line y2="311" fill="none" x1="155" clip-path="url(#clipPath13)" x2="155" y1="285"/>
            <line y2="311" fill="none" x1="155" clip-path="url(#clipPath13)" x2="229" y1="311"/>
            <line y2="384" fill="none" x1="229" clip-path="url(#clipPath13)" x2="229" y1="311"/>
            <line y2="384" fill="none" x1="229" clip-path="url(#clipPath13)" x2="30" y1="384"/>
            <line y2="285" fill="none" x1="30" clip-path="url(#clipPath13)" x2="30" y1="384"/>
            <text x="36" xml:space="preserve" y="305" clip-path="url(#clipPath14)" stroke="none">RiskManagement</text>
            <line y2="311" fill="none" x1="30" clip-path="url(#clipPath15)" x2="229" y1="311"/>
            <rect x="270" y="285" clip-path="url(#clipPath16)" fill="url(#linearGradient5)" width="200" height="100" stroke="none"/>
            <line y2="285" fill="none" x1="270" clip-path="url(#clipPath17)" x2="327" y1="285"/>
            <line y2="311" fill="none" x1="327" clip-path="url(#clipPath17)" x2="327" y1="285"/>
            <line y2="311" fill="none" x1="327" clip-path="url(#clipPath17)" x2="469" y1="311"/>
            <line y2="384" fill="none" x1="469" clip-path="url(#clipPath17)" x2="469" y1="311"/>
            <line y2="384" fill="none" x1="469" clip-path="url(#clipPath17)" x2="270" y1="384"/>
            <line y2="285" fill="none" x1="270" clip-path="url(#clipPath17)" x2="270" y1="384"/>
            <text x="276" xml:space="preserve" y="305" clip-path="url(#clipPath18)" stroke="none">Testing</text>
            <line y2="311" fill="none" x1="270" clip-path="url(#clipPath19)" x2="469" y1="311"/>
            <rect x="270" y="405" clip-path="url(#clipPath20)" fill="url(#linearGradient6)" width="200" height="100" stroke="none"/>
            <line y2="405" fill="none" x1="270" clip-path="url(#clipPath21)" x2="359" y1="405"/>
            <line y2="431" fill="none" x1="359" clip-path="url(#clipPath21)" x2="359" y1="405"/>
            <line y2="431" fill="none" x1="359" clip-path="url(#clipPath21)" x2="469" y1="431"/>
            <line y2="504" fill="none" x1="469" clip-path="url(#clipPath21)" x2="469" y1="431"/>
            <line y2="504" fill="none" x1="469" clip-path="url(#clipPath21)" x2="270" y1="504"/>
            <line y2="405" fill="none" x1="270" clip-path="url(#clipPath21)" x2="270" y1="504"/>
            <text x="276" xml:space="preserve" y="425" clip-path="url(#clipPath22)" stroke="none">Engineering</text>
            <line y2="431" fill="none" x1="270" clip-path="url(#clipPath23)" x2="469" y1="431"/>
            <rect x="510" y="285" clip-path="url(#clipPath24)" fill="url(#linearGradient7)" width="200" height="100" stroke="none"/>
            <line y2="285" fill="none" x1="510" clip-path="url(#clipPath25)" x2="579" y1="285"/>
            <line y2="311" fill="none" x1="579" clip-path="url(#clipPath25)" x2="579" y1="285"/>
            <line y2="311" fill="none" x1="579" clip-path="url(#clipPath25)" x2="709" y1="311"/>
            <line y2="384" fill="none" x1="709" clip-path="url(#clipPath25)" x2="709" y1="311"/>
            <line y2="384" fill="none" x1="709" clip-path="url(#clipPath25)" x2="510" y1="384"/>
            <line y2="285" fill="none" x1="510" clip-path="url(#clipPath25)" x2="510" y1="384"/>
            <text x="516" xml:space="preserve" y="305" clip-path="url(#clipPath26)" stroke="none">Statistics</text>
            <line y2="311" fill="none" x1="510" clip-path="url(#clipPath27)" x2="709" y1="311"/>
            <line y2="256" fill="none" x1="10" clip-path="url(#clipPath28)" x2="1050" y1="256"/>
        </g>
    </g>
</svg>
