<?xml version="1.0" encoding="UTF-8"?><svg xmlns="http://www.w3.org/2000/svg" xmlns:xlink="http://www.w3.org/1999/xlink" stroke-dasharray="none" shape-rendering="auto" font-family="'Dialog'" width="1041" text-rendering="auto" fill-opacity="1" contentScriptType="text/ecmascript" color-interpolation="auto" color-rendering="auto" preserveAspectRatio="xMidYMid meet" font-size="12px" viewBox="0 0 1041 372" fill="black" stroke="black" image-rendering="auto" stroke-miterlimit="10" zoomAndPan="magnify" version="1.0" stroke-linecap="square" stroke-linejoin="miter" contentStyleType="text/css" font-style="normal" height="372" stroke-width="1" stroke-dashoffset="0" font-weight="normal" stroke-opacity="1">
    <!--Generated by the Batik Graphics2D SVG Generator-->
    <defs id="genericDefs"/>
    <g>
        <defs id="defs1">
            <linearGradient x1="10" x2="10" y1="30" gradientUnits="userSpaceOnUse" y2="211" xlink:type="simple" xlink:actuate="onLoad" id="linearGradient1" xlink:show="other" spreadMethod="pad">
                <stop stop-opacity="1" stop-color="white" offset="0%"/>
                <stop stop-opacity="1" stop-color="rgb(195,215,221)" offset="100%"/>
            </linearGradient>
            <linearGradient x1="630" x2="630" y1="10" gradientUnits="userSpaceOnUse" y2="122" xlink:type="simple" xlink:actuate="onLoad" id="linearGradient2" xlink:show="other" spreadMethod="pad">
                <stop stop-opacity="1" stop-color="rgb(200,255,230)" offset="0%"/>
                <stop stop-opacity="1" stop-color="white" offset="100%"/>
            </linearGradient>
            <linearGradient x1="630" x2="630" y1="250" gradientUnits="userSpaceOnUse" y2="362" xlink:type="simple" xlink:actuate="onLoad" id="linearGradient3" xlink:show="other" spreadMethod="pad">
                <stop stop-opacity="1" stop-color="rgb(200,255,230)" offset="0%"/>
                <stop stop-opacity="1" stop-color="white" offset="100%"/>
            </linearGradient>
            <clipPath clipPathUnits="userSpaceOnUse" id="clipPath1">
                <path d="M10 30 L10 210 L410 210 L410 30 Z"/>
            </clipPath>
            <clipPath clipPathUnits="userSpaceOnUse" id="clipPath2">
                <path d="M199 109 L224 109 L224 131 L199 131 L199 109 Z"/>
            </clipPath>
            <clipPath clipPathUnits="userSpaceOnUse" id="clipPath3">
                <path d="M9 29 L412 29 L412 212 L9 212 L9 29 Z"/>
            </clipPath>
            <clipPath clipPathUnits="userSpaceOnUse" id="clipPath4">
                <path d="M630 10 L630 121 L1030 121 L1030 22 L1018 10 Z"/>
            </clipPath>
            <clipPath clipPathUnits="userSpaceOnUse" id="clipPath5">
                <path d="M730 15 L921 15 L921 37 L730 37 L730 15 Z"/>
            </clipPath>
            <clipPath clipPathUnits="userSpaceOnUse" id="clipPath6">
                <path d="M635 35 L950 35 L950 117 L635 117 L635 35 Z"/>
            </clipPath>
            <clipPath clipPathUnits="userSpaceOnUse" id="clipPath7">
                <path d="M629 9 L1032 9 L1032 123 L629 123 L629 9 Z"/>
            </clipPath>
            <clipPath clipPathUnits="userSpaceOnUse" id="clipPath8">
                <path d="M630 250 L630 361 L1030 361 L1030 262 L1018 250 Z"/>
            </clipPath>
            <clipPath clipPathUnits="userSpaceOnUse" id="clipPath9">
                <path d="M740 255 L911 255 L911 277 L740 277 L740 255 Z"/>
            </clipPath>
            <clipPath clipPathUnits="userSpaceOnUse" id="clipPath10">
                <path d="M635 275 L940 275 L940 357 L635 357 L635 275 Z"/>
            </clipPath>
            <clipPath clipPathUnits="userSpaceOnUse" id="clipPath11">
                <path d="M629 249 L1032 249 L1032 363 L629 363 L629 249 Z"/>
            </clipPath>
            <clipPath clipPathUnits="userSpaceOnUse" id="clipPath12">
                <path d="M-1 -1 L1042 -1 L1042 373 L-1 373 L-1 -1 Z"/>
            </clipPath>
            <clipPath clipPathUnits="userSpaceOnUse" id="clipPath13">
                <path d="M488 39 L555 39 L555 61 L488 61 L488 39 Z"/>
            </clipPath>
            <clipPath clipPathUnits="userSpaceOnUse" id="clipPath14">
                <path d="M447 207 L514 207 L514 229 L447 229 L447 207 Z"/>
            </clipPath>
        </defs>
        <g font-size="15px" fill="url(#linearGradient1)" font-family="'Segoe UI'" stroke-linejoin="round" stroke="url(#linearGradient1)" stroke-width="0" stroke-miterlimit="0">
            <rect x="10" width="401" height="181" y="30" clip-path="url(#clipPath1)" stroke="none"/>
            <text fill="black" x="200" xml:space="preserve" y="127" clip-path="url(#clipPath2)" stroke="none">Vex</text>
        </g>
        <g font-size="15px" stroke-width="1.1" font-family="'Segoe UI'" stroke-linecap="butt">
            <rect x="10" y="30" clip-path="url(#clipPath3)" fill="none" width="400" rx="0" ry="0" height="180"/>
            <rect x="630" y="10" clip-path="url(#clipPath4)" fill="url(#linearGradient2)" width="401" height="112" stroke="none"/>
            <text x="731" xml:space="preserve" y="33" clip-path="url(#clipPath5)" stroke="none">NoJustificationIfNotAffected</text>
            <text x="636" xml:space="preserve" y="53" clip-path="url(#clipPath6)" stroke="none">{{OCL} self.vexStatus &lt;&gt; VexStatus::NotAffected</text>
            <text x="636" xml:space="preserve" y="73" clip-path="url(#clipPath6)" stroke="none">implies</text>
            <text x="636" xml:space="preserve" y="93" clip-path="url(#clipPath6)" stroke="none">self.vexStatusJustification</text>
            <text x="636" xml:space="preserve" y="113" clip-path="url(#clipPath6)" stroke="none">= VexStatusJustification::NotApplicable}</text>
            <line y2="10" fill="none" x1="630" clip-path="url(#clipPath7)" x2="1018" y1="10"/>
            <line y2="22" fill="none" x1="1018" clip-path="url(#clipPath7)" x2="1030" y1="10"/>
            <line y2="121" fill="none" x1="1030" clip-path="url(#clipPath7)" x2="1030" y1="22"/>
            <line y2="121" fill="none" x1="1030" clip-path="url(#clipPath7)" x2="630" y1="121"/>
            <line y2="10" fill="none" x1="630" clip-path="url(#clipPath7)" x2="630" y1="121"/>
            <line y2="10" fill="none" x1="630" clip-path="url(#clipPath7)" x2="630" y1="10"/>
            <line y2="22" fill="none" x1="1018" clip-path="url(#clipPath7)" x2="1018" y1="10"/>
            <line y2="22" fill="none" x1="1018" clip-path="url(#clipPath7)" x2="1031" y1="22"/>
            <rect x="630" y="250" clip-path="url(#clipPath8)" fill="url(#linearGradient3)" width="401" height="112" stroke="none"/>
            <text x="741" xml:space="preserve" y="273" clip-path="url(#clipPath9)" stroke="none">JustificationIfNotAffected</text>
            <text x="636" xml:space="preserve" y="293" clip-path="url(#clipPath10)" stroke="none">{{OCL} self.vexStatus = VexStatus::NotAffected</text>
            <text x="636" xml:space="preserve" y="313" clip-path="url(#clipPath10)" stroke="none">implies</text>
            <text x="636" xml:space="preserve" y="333" clip-path="url(#clipPath10)" stroke="none">self.vexStatusJustification</text>
            <text x="636" xml:space="preserve" y="353" clip-path="url(#clipPath10)" stroke="none">&lt;&gt; VexStatusJustification::NotApplicable}</text>
            <line y2="250" fill="none" x1="630" clip-path="url(#clipPath11)" x2="1018" y1="250"/>
            <line y2="262" fill="none" x1="1018" clip-path="url(#clipPath11)" x2="1030" y1="250"/>
            <line y2="361" fill="none" x1="1030" clip-path="url(#clipPath11)" x2="1030" y1="262"/>
            <line y2="361" fill="none" x1="1030" clip-path="url(#clipPath11)" x2="630" y1="361"/>
            <line y2="250" fill="none" x1="630" clip-path="url(#clipPath11)" x2="630" y1="361"/>
            <line y2="250" fill="none" x1="630" clip-path="url(#clipPath11)" x2="630" y1="250"/>
            <line y2="262" fill="none" x1="1018" clip-path="url(#clipPath11)" x2="1018" y1="250"/>
            <line y2="262" fill="none" x1="1018" clip-path="url(#clipPath11)" x2="1031" y1="262"/>
            <line clip-path="url(#clipPath12)" fill="none" text-rendering="optimizeLegibility" x1="630" x2="411" y1="59" y2="70" stroke-dasharray="3.3,1.1,1.1,1.1"/>
            <text x="489" y="57" clip-path="url(#clipPath13)" text-rendering="optimizeLegibility" stroke-dasharray="3.3,1.1,1.1,1.1" stroke="none" xml:space="preserve">«context»</text>
            <line clip-path="url(#clipPath12)" fill="none" text-rendering="optimizeLegibility" x1="630" x2="330" y1="250" y2="211" stroke-dasharray="3.3,1.1,1.1,1.1"/>
            <text x="448" y="225" clip-path="url(#clipPath14)" text-rendering="optimizeLegibility" stroke-dasharray="3.3,1.1,1.1,1.1" stroke="none" xml:space="preserve">«context»</text>
        </g>
    </g>
</svg>
