<?xml version="1.0" encoding="UTF-8"?><svg xmlns="http://www.w3.org/2000/svg" xmlns:xlink="http://www.w3.org/1999/xlink" stroke-dasharray="none" shape-rendering="auto" font-family="'Dialog'" width="981" text-rendering="auto" fill-opacity="1" contentScriptType="text/ecmascript" color-interpolation="auto" color-rendering="auto" preserveAspectRatio="xMidYMid meet" font-size="12px" viewBox="0 0 981 339" fill="black" stroke="black" image-rendering="auto" stroke-miterlimit="10" zoomAndPan="magnify" version="1.0" stroke-linecap="square" stroke-linejoin="miter" contentStyleType="text/css" font-style="normal" height="339" stroke-width="1" stroke-dashoffset="0" font-weight="normal" stroke-opacity="1">
    <!--Generated by the Batik Graphics2D SVG Generator-->
    <defs id="genericDefs"/>
    <g>
        <defs id="defs1">
            <linearGradient x1="10" x2="10" y1="17" gradientUnits="userSpaceOnUse" y2="117" xlink:type="simple" xlink:actuate="onLoad" id="linearGradient1" xlink:show="other" spreadMethod="pad">
                <stop stop-opacity="1" stop-color="white" offset="0%"/>
                <stop stop-opacity="1" stop-color="rgb(195,215,221)" offset="100%"/>
            </linearGradient>
            <linearGradient x1="470" x2="470" y1="17" gradientUnits="userSpaceOnUse" y2="77" xlink:type="simple" xlink:actuate="onLoad" id="linearGradient2" xlink:show="other" spreadMethod="pad">
                <stop stop-opacity="1" stop-color="rgb(200,255,230)" offset="0%"/>
                <stop stop-opacity="1" stop-color="white" offset="100%"/>
            </linearGradient>
            <linearGradient x1="470" x2="470" y1="137" gradientUnits="userSpaceOnUse" y2="209" xlink:type="simple" xlink:actuate="onLoad" id="linearGradient3" xlink:show="other" spreadMethod="pad">
                <stop stop-opacity="1" stop-color="rgb(200,255,230)" offset="0%"/>
                <stop stop-opacity="1" stop-color="white" offset="100%"/>
            </linearGradient>
            <linearGradient x1="470" x2="470" y1="257" gradientUnits="userSpaceOnUse" y2="329" xlink:type="simple" xlink:actuate="onLoad" id="linearGradient4" xlink:show="other" spreadMethod="pad">
                <stop stop-opacity="1" stop-color="rgb(200,255,230)" offset="0%"/>
                <stop stop-opacity="1" stop-color="white" offset="100%"/>
            </linearGradient>
            <clipPath clipPathUnits="userSpaceOnUse" id="clipPath1">
                <path d="M10 17 L10 116 L310 116 L310 17 Z"/>
            </clipPath>
            <clipPath clipPathUnits="userSpaceOnUse" id="clipPath2">
                <path d="M99 19 L224 19 L224 41 L99 41 L99 19 Z"/>
            </clipPath>
            <clipPath clipPathUnits="userSpaceOnUse" id="clipPath3">
                <path d="M10 40 L312 40 L312 79 L10 79 L10 40 Z"/>
            </clipPath>
            <clipPath clipPathUnits="userSpaceOnUse" id="clipPath4">
                <path d="M10 78 L312 78 L312 117 L10 117 L10 78 Z"/>
            </clipPath>
            <clipPath clipPathUnits="userSpaceOnUse" id="clipPath5">
                <path d="M9 16 L312 16 L312 118 L9 118 L9 16 Z"/>
            </clipPath>
            <clipPath clipPathUnits="userSpaceOnUse" id="clipPath6">
                <path d="M470 17 L470 76 L970 76 L970 29 L958 17 Z"/>
            </clipPath>
            <clipPath clipPathUnits="userSpaceOnUse" id="clipPath7">
                <path d="M629 22 L803 22 L803 44 L629 44 L629 22 Z"/>
            </clipPath>
            <clipPath clipPathUnits="userSpaceOnUse" id="clipPath8">
                <path d="M475 42 L559 42 L559 64 L475 64 L475 42 Z"/>
            </clipPath>
            <clipPath clipPathUnits="userSpaceOnUse" id="clipPath9">
                <path d="M469 16 L972 16 L972 78 L469 78 L469 16 Z"/>
            </clipPath>
            <clipPath clipPathUnits="userSpaceOnUse" id="clipPath10">
                <path d="M470 137 L470 208 L970 208 L970 149 L958 137 Z"/>
            </clipPath>
            <clipPath clipPathUnits="userSpaceOnUse" id="clipPath11">
                <path d="M582 142 L849 142 L849 164 L582 164 L582 142 Z"/>
            </clipPath>
            <clipPath clipPathUnits="userSpaceOnUse" id="clipPath12">
                <path d="M475 162 L776 162 L776 204 L475 204 L475 162 Z"/>
            </clipPath>
            <clipPath clipPathUnits="userSpaceOnUse" id="clipPath13">
                <path d="M469 136 L972 136 L972 210 L469 210 L469 136 Z"/>
            </clipPath>
            <clipPath clipPathUnits="userSpaceOnUse" id="clipPath14">
                <path d="M470 257 L470 328 L970 328 L970 269 L958 257 Z"/>
            </clipPath>
            <clipPath clipPathUnits="userSpaceOnUse" id="clipPath15">
                <path d="M588 262 L844 262 L844 284 L588 284 L588 262 Z"/>
            </clipPath>
            <clipPath clipPathUnits="userSpaceOnUse" id="clipPath16">
                <path d="M475 282 L765 282 L765 324 L475 324 L475 282 Z"/>
            </clipPath>
            <clipPath clipPathUnits="userSpaceOnUse" id="clipPath17">
                <path d="M469 256 L972 256 L972 330 L469 330 L469 256 Z"/>
            </clipPath>
            <clipPath clipPathUnits="userSpaceOnUse" id="clipPath18">
                <path d="M-1 -1 L982 -1 L982 340 L-1 340 L-1 -1 Z"/>
            </clipPath>
            <clipPath clipPathUnits="userSpaceOnUse" id="clipPath19">
                <path d="M358 22 L425 22 L425 44 L358 44 L358 22 Z"/>
            </clipPath>
            <clipPath clipPathUnits="userSpaceOnUse" id="clipPath20">
                <path d="M363 82 L430 82 L430 104 L363 104 L363 82 Z"/>
            </clipPath>
            <clipPath clipPathUnits="userSpaceOnUse" id="clipPath21">
                <path d="M345 164 L412 164 L412 186 L345 186 L345 164 Z"/>
            </clipPath>
        </defs>
        <g font-size="15px" fill="url(#linearGradient1)" font-family="'Segoe UI'" stroke-linejoin="round" stroke="url(#linearGradient1)" stroke-width="0" stroke-miterlimit="0">
            <rect x="10" width="301" height="100" y="17" clip-path="url(#clipPath1)" stroke="none"/>
            <text fill="black" x="100" xml:space="preserve" y="37" clip-path="url(#clipPath2)" stroke="none">SequenceOfEvents</text>
        </g>
        <g font-size="15px" stroke-width="1.1" font-family="'Segoe UI'" stroke-linecap="butt">
            <line y2="41" fill="none" x1="10" clip-path="url(#clipPath3)" x2="311" y1="41"/>
            <line y2="79" fill="none" x1="10" clip-path="url(#clipPath4)" x2="311" y1="79"/>
            <rect x="10" y="17" clip-path="url(#clipPath5)" fill="none" width="300" rx="0" ry="0" height="99"/>
            <rect x="470" y="17" clip-path="url(#clipPath6)" fill="url(#linearGradient2)" width="501" height="60" stroke="none"/>
            <text x="630" xml:space="preserve" y="40" clip-path="url(#clipPath7)" stroke="none">isRootCauseBodyOverride</text>
            <text x="476" xml:space="preserve" y="60" clip-path="url(#clipPath8)" stroke="none">{{OCL} false}</text>
            <line y2="17" fill="none" x1="470" clip-path="url(#clipPath9)" x2="958" y1="17"/>
            <line y2="29" fill="none" x1="958" clip-path="url(#clipPath9)" x2="970" y1="17"/>
            <line y2="76" fill="none" x1="970" clip-path="url(#clipPath9)" x2="970" y1="29"/>
            <line y2="76" fill="none" x1="970" clip-path="url(#clipPath9)" x2="470" y1="76"/>
            <line y2="17" fill="none" x1="470" clip-path="url(#clipPath9)" x2="470" y1="76"/>
            <line y2="17" fill="none" x1="470" clip-path="url(#clipPath9)" x2="470" y1="17"/>
            <line y2="29" fill="none" x1="958" clip-path="url(#clipPath9)" x2="958" y1="17"/>
            <line y2="29" fill="none" x1="958" clip-path="url(#clipPath9)" x2="971" y1="29"/>
            <rect x="470" y="137" clip-path="url(#clipPath10)" fill="url(#linearGradient3)" width="501" height="72" stroke="none"/>
            <text x="583" xml:space="preserve" y="160" clip-path="url(#clipPath11)" stroke="none">ProbabilityBeforeMitigationIsCalculated</text>
            <text x="476" xml:space="preserve" y="180" clip-path="url(#clipPath12)" stroke="none">{{OCL} self.probabilityBeforeMitigation</text>
            <text x="476" xml:space="preserve" y="200" clip-path="url(#clipPath12)" stroke="none">= self.calculateProbabilityBeforeMitigation()}</text>
            <line y2="137" fill="none" x1="470" clip-path="url(#clipPath13)" x2="958" y1="137"/>
            <line y2="149" fill="none" x1="958" clip-path="url(#clipPath13)" x2="970" y1="137"/>
            <line y2="208" fill="none" x1="970" clip-path="url(#clipPath13)" x2="970" y1="149"/>
            <line y2="208" fill="none" x1="970" clip-path="url(#clipPath13)" x2="470" y1="208"/>
            <line y2="137" fill="none" x1="470" clip-path="url(#clipPath13)" x2="470" y1="208"/>
            <line y2="137" fill="none" x1="470" clip-path="url(#clipPath13)" x2="470" y1="137"/>
            <line y2="149" fill="none" x1="958" clip-path="url(#clipPath13)" x2="958" y1="137"/>
            <line y2="149" fill="none" x1="958" clip-path="url(#clipPath13)" x2="971" y1="149"/>
            <rect x="470" y="257" clip-path="url(#clipPath14)" fill="url(#linearGradient4)" width="501" height="72" stroke="none"/>
            <text x="589" xml:space="preserve" y="280" clip-path="url(#clipPath15)" stroke="none">ProbabilityAfterMitigationIsCalculated</text>
            <text x="476" xml:space="preserve" y="300" clip-path="url(#clipPath16)" stroke="none">{{OCL} self.probabilityAfterMitigation</text>
            <text x="476" xml:space="preserve" y="320" clip-path="url(#clipPath16)" stroke="none">= self.calculateProbabilityAfterMitigation()}</text>
            <line y2="257" fill="none" x1="470" clip-path="url(#clipPath17)" x2="958" y1="257"/>
            <line y2="269" fill="none" x1="958" clip-path="url(#clipPath17)" x2="970" y1="257"/>
            <line y2="328" fill="none" x1="970" clip-path="url(#clipPath17)" x2="970" y1="269"/>
            <line y2="328" fill="none" x1="970" clip-path="url(#clipPath17)" x2="470" y1="328"/>
            <line y2="257" fill="none" x1="470" clip-path="url(#clipPath17)" x2="470" y1="328"/>
            <line y2="257" fill="none" x1="470" clip-path="url(#clipPath17)" x2="470" y1="257"/>
            <line y2="269" fill="none" x1="958" clip-path="url(#clipPath17)" x2="958" y1="257"/>
            <line y2="269" fill="none" x1="958" clip-path="url(#clipPath17)" x2="971" y1="269"/>
            <line clip-path="url(#clipPath18)" fill="none" text-rendering="optimizeLegibility" x1="470" x2="311" y1="36" y2="57" stroke-dasharray="3.3,1.1,1.1,1.1"/>
            <text x="359" y="40" clip-path="url(#clipPath19)" text-rendering="optimizeLegibility" stroke-dasharray="3.3,1.1,1.1,1.1" stroke="none" xml:space="preserve">«context»</text>
            <line clip-path="url(#clipPath18)" fill="none" text-rendering="optimizeLegibility" x1="470" x2="311" y1="137" y2="77" stroke-dasharray="3.3,1.1,1.1,1.1"/>
            <text x="364" y="100" clip-path="url(#clipPath20)" text-rendering="optimizeLegibility" stroke-dasharray="3.3,1.1,1.1,1.1" stroke="none" xml:space="preserve">«context»</text>
            <line clip-path="url(#clipPath18)" fill="none" text-rendering="optimizeLegibility" x1="470" x2="270" y1="257" y2="117" stroke-dasharray="3.3,1.1,1.1,1.1"/>
            <text x="346" y="182" clip-path="url(#clipPath21)" text-rendering="optimizeLegibility" stroke-dasharray="3.3,1.1,1.1,1.1" stroke="none" xml:space="preserve">«context»</text>
        </g>
    </g>
</svg>
