<?xml version="1.0" encoding="UTF-8"?><svg xmlns="http://www.w3.org/2000/svg" xmlns:xlink="http://www.w3.org/1999/xlink" stroke-dasharray="none" shape-rendering="auto" font-family="'Dialog'" width="681" text-rendering="auto" fill-opacity="1" contentScriptType="text/ecmascript" color-interpolation="auto" color-rendering="auto" preserveAspectRatio="xMidYMid meet" font-size="12px" viewBox="0 0 681 626" fill="black" stroke="black" image-rendering="auto" stroke-miterlimit="10" zoomAndPan="magnify" version="1.0" stroke-linecap="square" stroke-linejoin="miter" contentStyleType="text/css" font-style="normal" height="626" stroke-width="1" stroke-dashoffset="0" font-weight="normal" stroke-opacity="1">
    <!--Generated by the Batik Graphics2D SVG Generator-->
    <defs id="genericDefs"/>
    <g>
        <defs id="defs1">
            <linearGradient x1="10" x2="10" y1="10" gradientUnits="userSpaceOnUse" y2="216" xlink:type="simple" xlink:actuate="onLoad" id="linearGradient1" xlink:show="other" spreadMethod="pad">
                <stop stop-opacity="1" stop-color="white" offset="0%"/>
                <stop stop-opacity="1" stop-color="white" offset="100%"/>
            </linearGradient>
            <linearGradient x1="170" x2="170" y1="87" gradientUnits="userSpaceOnUse" y2="187" xlink:type="simple" xlink:actuate="onLoad" id="linearGradient2" xlink:show="other" spreadMethod="pad">
                <stop stop-opacity="1" stop-color="white" offset="0%"/>
                <stop stop-opacity="1" stop-color="rgb(195,215,221)" offset="100%"/>
            </linearGradient>
            <linearGradient x1="10" x2="10" y1="335" gradientUnits="userSpaceOnUse" y2="616" xlink:type="simple" xlink:actuate="onLoad" id="linearGradient3" xlink:show="other" spreadMethod="pad">
                <stop stop-opacity="1" stop-color="white" offset="0%"/>
                <stop stop-opacity="1" stop-color="white" offset="100%"/>
            </linearGradient>
            <linearGradient x1="170" x2="170" y1="447" gradientUnits="userSpaceOnUse" y2="551" xlink:type="simple" xlink:actuate="onLoad" id="linearGradient4" xlink:show="other" spreadMethod="pad">
                <stop stop-opacity="1" stop-color="white" offset="0%"/>
                <stop stop-opacity="1" stop-color="rgb(195,215,221)" offset="100%"/>
            </linearGradient>
            <clipPath clipPathUnits="userSpaceOnUse" id="clipPath1">
                <path d="M10 10 L10 215 L670 215 L670 57 L286 57 L286 10 Z"/>
            </clipPath>
            <clipPath clipPathUnits="userSpaceOnUse" id="clipPath2">
                <path d="M7 7 L674 7 L674 219 L7 219 L7 7 Z"/>
            </clipPath>
            <clipPath clipPathUnits="userSpaceOnUse" id="clipPath3">
                <path d="M10 12 L288 12 L288 34 L10 34 L10 12 Z"/>
            </clipPath>
            <clipPath clipPathUnits="userSpaceOnUse" id="clipPath4">
                <path d="M15 33 L64 33 L64 55 L15 55 L15 33 Z"/>
            </clipPath>
            <clipPath clipPathUnits="userSpaceOnUse" id="clipPath5">
                <path d="M170 87 L170 186 L512 186 L512 87 Z"/>
            </clipPath>
            <clipPath clipPathUnits="userSpaceOnUse" id="clipPath6">
                <path d="M220 116 L464 116 L464 138 L220 138 L220 116 Z"/>
            </clipPath>
            <clipPath clipPathUnits="userSpaceOnUse" id="clipPath7">
                <path d="M317 137 L367 137 L367 159 L317 159 L317 137 Z"/>
            </clipPath>
            <clipPath clipPathUnits="userSpaceOnUse" id="clipPath8">
                <path d="M169 86 L514 86 L514 188 L169 188 L169 86 Z"/>
            </clipPath>
            <clipPath clipPathUnits="userSpaceOnUse" id="clipPath9">
                <path d="M10 56 L672 56 L672 217 L10 217 L10 56 Z"/>
            </clipPath>
            <clipPath clipPathUnits="userSpaceOnUse" id="clipPath10">
                <path d="M10 335 L10 615 L670 615 L670 382 L395 382 L395 335 Z"/>
            </clipPath>
            <clipPath clipPathUnits="userSpaceOnUse" id="clipPath11">
                <path d="M7 332 L674 332 L674 619 L7 619 L7 332 Z"/>
            </clipPath>
            <clipPath clipPathUnits="userSpaceOnUse" id="clipPath12">
                <path d="M10 337 L397 337 L397 359 L10 359 L10 337 Z"/>
            </clipPath>
            <clipPath clipPathUnits="userSpaceOnUse" id="clipPath13">
                <path d="M15 358 L64 358 L64 380 L15 380 L15 358 Z"/>
            </clipPath>
            <clipPath clipPathUnits="userSpaceOnUse" id="clipPath14">
                <path d="M170 447 L170 550 L510 550 L510 447 Z"/>
            </clipPath>
            <clipPath clipPathUnits="userSpaceOnUse" id="clipPath15">
                <path d="M316 449 L366 449 L366 471 L316 471 L316 449 Z"/>
            </clipPath>
            <clipPath clipPathUnits="userSpaceOnUse" id="clipPath16">
                <path d="M175 472 L271 472 L271 494 L175 494 L175 472 Z"/>
            </clipPath>
            <clipPath clipPathUnits="userSpaceOnUse" id="clipPath17">
                <path d="M170 470 L512 470 L512 505 L170 505 L170 470 Z"/>
            </clipPath>
            <clipPath clipPathUnits="userSpaceOnUse" id="clipPath18">
                <path d="M170 504 L512 504 L512 528 L170 528 L170 504 Z"/>
            </clipPath>
            <clipPath clipPathUnits="userSpaceOnUse" id="clipPath19">
                <path d="M170 527 L512 527 L512 551 L170 551 L170 527 Z"/>
            </clipPath>
            <clipPath clipPathUnits="userSpaceOnUse" id="clipPath20">
                <path d="M169 446 L512 446 L512 552 L169 552 L169 446 Z"/>
            </clipPath>
            <clipPath clipPathUnits="userSpaceOnUse" id="clipPath21">
                <path d="M10 381 L672 381 L672 617 L10 617 L10 381 Z"/>
            </clipPath>
            <clipPath clipPathUnits="userSpaceOnUse" id="clipPath22">
                <path d="M-1 -1 L682 -1 L682 627 L-1 627 L-1 -1 Z"/>
            </clipPath>
            <clipPath clipPathUnits="userSpaceOnUse" id="clipPath23">
                <path d="M280 264 L341 264 L341 286 L280 286 L280 264 Z"/>
            </clipPath>
            <clipPath clipPathUnits="userSpaceOnUse" id="clipPath24">
                <path d="M344 319 L357 319 L357 337 L344 337 L344 319 Z"/>
            </clipPath>
        </defs>
        <g font-size="15px" fill="url(#linearGradient1)" font-family="'Segoe UI'" stroke-linejoin="round" stroke="url(#linearGradient1)" stroke-width="0" stroke-miterlimit="0">
            <rect x="10" width="661" height="206" y="10" clip-path="url(#clipPath1)" stroke="none"/>
        </g>
        <g font-size="15px" stroke-width="1.1" font-family="'Segoe UI'" stroke-linecap="butt">
            <line y2="10" fill="none" x1="10" clip-path="url(#clipPath2)" x2="286" y1="10"/>
            <line y2="57" fill="none" x1="286" clip-path="url(#clipPath2)" x2="286" y1="10"/>
            <line y2="57" fill="none" x1="286" clip-path="url(#clipPath2)" x2="670" y1="57"/>
            <line y2="215" fill="none" x1="670" clip-path="url(#clipPath2)" x2="670" y1="57"/>
            <line y2="215" fill="none" x1="670" clip-path="url(#clipPath2)" x2="10" y1="215"/>
            <line y2="10" fill="none" x1="10" clip-path="url(#clipPath2)" x2="10" y1="215"/>
            <text x="11" xml:space="preserve" y="24" clip-path="url(#clipPath3)" font-family="'Segoe UI Emoji'" stroke="none">(Megamodel::Domains::RiskManagement)</text>
            <text x="16" xml:space="preserve" y="45" clip-path="url(#clipPath4)" font-family="'Segoe UI Emoji'" stroke="none">System</text>
            <rect x="170" y="87" clip-path="url(#clipPath5)" fill="url(#linearGradient2)" width="343" height="100" stroke="none"/>
            <text x="221" xml:space="preserve" y="134" clip-path="url(#clipPath6)" font-family="'Segoe UI Symbol'" stroke="none">(Domains::RiskManagement::System)</text>
            <text x="318" xml:space="preserve" y="155" clip-path="url(#clipPath7)" font-family="'Segoe UI Symbol'" stroke="none">Hazard</text>
            <rect x="170" y="87" clip-path="url(#clipPath8)" fill="none" width="342" rx="0" ry="0" height="99"/>
            <line y2="57" fill="none" x1="10" clip-path="url(#clipPath9)" x2="670" y1="57"/>
            <rect x="10" y="335" clip-path="url(#clipPath10)" fill="url(#linearGradient3)" width="661" height="281" stroke="none"/>
            <line y2="335" fill="none" x1="10" clip-path="url(#clipPath11)" x2="395" y1="335"/>
            <line y2="382" fill="none" x1="395" clip-path="url(#clipPath11)" x2="395" y1="335"/>
            <line y2="382" fill="none" x1="395" clip-path="url(#clipPath11)" x2="670" y1="382"/>
            <line y2="615" fill="none" x1="670" clip-path="url(#clipPath11)" x2="670" y1="382"/>
            <line y2="615" fill="none" x1="670" clip-path="url(#clipPath11)" x2="10" y1="615"/>
            <line y2="335" fill="none" x1="10" clip-path="url(#clipPath11)" x2="10" y1="615"/>
            <text x="11" xml:space="preserve" y="349" clip-path="url(#clipPath12)" font-family="'Segoe UI Emoji'" stroke="none">(Megamodel::Domains::ProductSecurity::RiskManagement)</text>
            <text x="16" xml:space="preserve" y="370" clip-path="url(#clipPath13)" font-family="'Segoe UI Emoji'" stroke="none">System</text>
            <rect x="170" y="447" clip-path="url(#clipPath14)" fill="url(#linearGradient4)" width="341" height="104" stroke="none"/>
            <text x="317" xml:space="preserve" y="467" clip-path="url(#clipPath15)" stroke="none">Hazard</text>
            <text x="176" xml:space="preserve" y="490" clip-path="url(#clipPath16)" stroke="none"> + cpe: CPE [*]</text>
            <line y2="471" fill="none" x1="170" clip-path="url(#clipPath17)" x2="511" y1="471"/>
            <line y2="505" fill="none" x1="170" clip-path="url(#clipPath18)" x2="511" y1="505"/>
            <line y2="528" fill="none" x1="170" clip-path="url(#clipPath19)" x2="511" y1="528"/>
            <rect x="170" y="447" clip-path="url(#clipPath20)" fill="none" width="340" rx="0" ry="0" height="103"/>
            <line y2="382" fill="none" x1="10" clip-path="url(#clipPath21)" x2="670" y1="382"/>
            <line clip-path="url(#clipPath22)" fill="none" text-rendering="optimizeLegibility" x1="350" x2="350" y1="216" y2="335" stroke-dasharray="5,5,5,5,5,5,5,5,5,5"/>
            <text x="281" y="282" clip-path="url(#clipPath23)" text-rendering="optimizeLegibility" stroke-dasharray="5,5,5,5,5,5,5,5,5,5" stroke="none" xml:space="preserve">«merge»</text>
            <line clip-path="url(#clipPath24)" fill="none" text-rendering="optimizeLegibility" x1="345" x2="350" y1="320" y2="335"/>
            <line clip-path="url(#clipPath24)" fill="none" text-rendering="optimizeLegibility" x1="350" x2="355" y1="335" y2="320"/>
        </g>
    </g>
</svg>
