<?xml version="1.0" encoding="UTF-8"?><svg xmlns="http://www.w3.org/2000/svg" xmlns:xlink="http://www.w3.org/1999/xlink" stroke-dasharray="none" shape-rendering="auto" font-family="'Dialog'" width="752" text-rendering="auto" fill-opacity="1" contentScriptType="text/ecmascript" color-interpolation="auto" color-rendering="auto" preserveAspectRatio="xMidYMid meet" font-size="12px" viewBox="0 0 752 364" fill="black" stroke="black" image-rendering="auto" stroke-miterlimit="10" zoomAndPan="magnify" version="1.0" stroke-linecap="square" stroke-linejoin="miter" contentStyleType="text/css" font-style="normal" height="364" stroke-width="1" stroke-dashoffset="0" font-weight="normal" stroke-opacity="1">
    <!--Generated by the Batik Graphics2D SVG Generator-->
    <defs id="genericDefs"/>
    <g>
        <defs id="defs1">
            <linearGradient x1="10" x2="10" y1="123" gradientUnits="userSpaceOnUse" y2="223" xlink:type="simple" xlink:actuate="onLoad" id="linearGradient1" xlink:show="other" spreadMethod="pad">
                <stop stop-opacity="1" stop-color="white" offset="0%"/>
                <stop stop-opacity="1" stop-color="rgb(195,215,221)" offset="100%"/>
            </linearGradient>
            <linearGradient x1="381" x2="381" y1="10" gradientUnits="userSpaceOnUse" y2="122" xlink:type="simple" xlink:actuate="onLoad" id="linearGradient2" xlink:show="other" spreadMethod="pad">
                <stop stop-opacity="1" stop-color="rgb(200,255,230)" offset="0%"/>
                <stop stop-opacity="1" stop-color="white" offset="100%"/>
            </linearGradient>
            <linearGradient x1="382" x2="382" y1="242" gradientUnits="userSpaceOnUse" y2="354" xlink:type="simple" xlink:actuate="onLoad" id="linearGradient3" xlink:show="other" spreadMethod="pad">
                <stop stop-opacity="1" stop-color="rgb(200,255,230)" offset="0%"/>
                <stop stop-opacity="1" stop-color="white" offset="100%"/>
            </linearGradient>
            <clipPath clipPathUnits="userSpaceOnUse" id="clipPath1">
                <path d="M10 123 L10 222 L230 222 L230 123 Z"/>
            </clipPath>
            <clipPath clipPathUnits="userSpaceOnUse" id="clipPath2">
                <path d="M73 162 L169 162 L169 184 L73 184 L73 162 Z"/>
            </clipPath>
            <clipPath clipPathUnits="userSpaceOnUse" id="clipPath3">
                <path d="M9 122 L232 122 L232 224 L9 224 L9 122 Z"/>
            </clipPath>
            <clipPath clipPathUnits="userSpaceOnUse" id="clipPath4">
                <path d="M381 10 L381 121 L741 121 L741 22 L729 10 Z"/>
            </clipPath>
            <clipPath clipPathUnits="userSpaceOnUse" id="clipPath5">
                <path d="M394 15 L720 15 L720 37 L394 37 L394 15 Z"/>
            </clipPath>
            <clipPath clipPathUnits="userSpaceOnUse" id="clipPath6">
                <path d="M386 35 L728 35 L728 117 L386 117 L386 35 Z"/>
            </clipPath>
            <clipPath clipPathUnits="userSpaceOnUse" id="clipPath7">
                <path d="M380 9 L743 9 L743 123 L380 123 L380 9 Z"/>
            </clipPath>
            <clipPath clipPathUnits="userSpaceOnUse" id="clipPath8">
                <path d="M382 242 L382 353 L731 353 L731 254 L719 242 Z"/>
            </clipPath>
            <clipPath clipPathUnits="userSpaceOnUse" id="clipPath9">
                <path d="M395 247 L710 247 L710 269 L395 269 L395 247 Z"/>
            </clipPath>
            <clipPath clipPathUnits="userSpaceOnUse" id="clipPath10">
                <path d="M387 267 L718 267 L718 349 L387 349 L387 267 Z"/>
            </clipPath>
            <clipPath clipPathUnits="userSpaceOnUse" id="clipPath11">
                <path d="M381 241 L733 241 L733 355 L381 355 L381 241 Z"/>
            </clipPath>
            <clipPath clipPathUnits="userSpaceOnUse" id="clipPath12">
                <path d="M-1 -1 L753 -1 L753 365 L-1 365 L-1 -1 Z"/>
            </clipPath>
            <clipPath clipPathUnits="userSpaceOnUse" id="clipPath13">
                <path d="M270 107 L337 107 L337 129 L270 129 L270 107 Z"/>
            </clipPath>
            <clipPath clipPathUnits="userSpaceOnUse" id="clipPath14">
                <path d="M280 196 L347 196 L347 218 L280 218 L280 196 Z"/>
            </clipPath>
        </defs>
        <g font-size="15px" fill="url(#linearGradient1)" font-family="'Segoe UI'" stroke-linejoin="round" stroke="url(#linearGradient1)" stroke-width="0" stroke-miterlimit="0">
            <rect x="10" width="221" height="100" y="123" clip-path="url(#clipPath1)" stroke="none"/>
            <text fill="black" x="74" xml:space="preserve" y="180" clip-path="url(#clipPath2)" stroke="none">SystemImpact</text>
        </g>
        <g font-size="15px" stroke-width="1.1" font-family="'Segoe UI'" stroke-linecap="butt">
            <rect x="10" y="123" clip-path="url(#clipPath3)" fill="none" width="220" rx="0" ry="0" height="99"/>
            <rect x="381" y="10" clip-path="url(#clipPath4)" fill="url(#linearGradient2)" width="361" height="112" stroke="none"/>
            <text x="395" xml:space="preserve" y="33" clip-path="url(#clipPath5)" stroke="none">ProbabilityBeforeMitigationIsDerivedFromEvents</text>
            <text x="387" xml:space="preserve" y="53" clip-path="url(#clipPath6)" stroke="none">{{OCL} self.probabilityBeforeMitigation</text>
            <text x="387" xml:space="preserve" y="73" clip-path="url(#clipPath6)" stroke="none">= self.event</text>
            <text x="387" xml:space="preserve" y="93" clip-path="url(#clipPath6)" stroke="none">-&gt;collect( probabilityBeforeMitigation.toDouble() )</text>
            <text x="387" xml:space="preserve" y="113" clip-path="url(#clipPath6)" stroke="none">-&gt;max()}</text>
            <line y2="10" fill="none" x1="381" clip-path="url(#clipPath7)" x2="729" y1="10"/>
            <line y2="22" fill="none" x1="729" clip-path="url(#clipPath7)" x2="741" y1="10"/>
            <line y2="121" fill="none" x1="741" clip-path="url(#clipPath7)" x2="741" y1="22"/>
            <line y2="121" fill="none" x1="741" clip-path="url(#clipPath7)" x2="381" y1="121"/>
            <line y2="10" fill="none" x1="381" clip-path="url(#clipPath7)" x2="381" y1="121"/>
            <line y2="10" fill="none" x1="381" clip-path="url(#clipPath7)" x2="381" y1="10"/>
            <line y2="22" fill="none" x1="729" clip-path="url(#clipPath7)" x2="729" y1="10"/>
            <line y2="22" fill="none" x1="729" clip-path="url(#clipPath7)" x2="742" y1="22"/>
            <rect x="382" y="242" clip-path="url(#clipPath8)" fill="url(#linearGradient3)" width="350" height="112" stroke="none"/>
            <text x="396" xml:space="preserve" y="265" clip-path="url(#clipPath9)" stroke="none">ProbabilityAfterMitigationIsDerivedFromEvents</text>
            <text x="388" xml:space="preserve" y="285" clip-path="url(#clipPath10)" stroke="none">{{OCL} self.probabilityAfterMitigation</text>
            <text x="388" xml:space="preserve" y="305" clip-path="url(#clipPath10)" stroke="none">= self.event</text>
            <text x="388" xml:space="preserve" y="325" clip-path="url(#clipPath10)" stroke="none">-&gt;collect( probabilityAfterMitigation.toDouble() )</text>
            <text x="388" xml:space="preserve" y="345" clip-path="url(#clipPath10)" stroke="none">-&gt;max()}</text>
            <line y2="242" fill="none" x1="382" clip-path="url(#clipPath11)" x2="719" y1="242"/>
            <line y2="254" fill="none" x1="719" clip-path="url(#clipPath11)" x2="731" y1="242"/>
            <line y2="353" fill="none" x1="731" clip-path="url(#clipPath11)" x2="731" y1="254"/>
            <line y2="353" fill="none" x1="731" clip-path="url(#clipPath11)" x2="382" y1="353"/>
            <line y2="242" fill="none" x1="382" clip-path="url(#clipPath11)" x2="382" y1="353"/>
            <line y2="242" fill="none" x1="382" clip-path="url(#clipPath11)" x2="382" y1="242"/>
            <line y2="254" fill="none" x1="719" clip-path="url(#clipPath11)" x2="719" y1="242"/>
            <line y2="254" fill="none" x1="719" clip-path="url(#clipPath11)" x2="732" y1="254"/>
            <line clip-path="url(#clipPath12)" fill="none" text-rendering="optimizeLegibility" x1="381" x2="231" y1="98" y2="163" stroke-dasharray="3.3,1.1,1.1,1.1"/>
            <text x="271" y="125" clip-path="url(#clipPath13)" text-rendering="optimizeLegibility" stroke-dasharray="3.3,1.1,1.1,1.1" stroke="none" xml:space="preserve">«context»</text>
            <line clip-path="url(#clipPath12)" fill="none" text-rendering="optimizeLegibility" x1="382" x2="231" y1="252" y2="183" stroke-dasharray="3.3,1.1,1.1,1.1"/>
            <text x="281" y="214" clip-path="url(#clipPath14)" text-rendering="optimizeLegibility" stroke-dasharray="3.3,1.1,1.1,1.1" stroke="none" xml:space="preserve">«context»</text>
        </g>
    </g>
</svg>
