<?xml version="1.0" encoding="UTF-8"?><svg xmlns="http://www.w3.org/2000/svg" xmlns:xlink="http://www.w3.org/1999/xlink" stroke-dasharray="none" shape-rendering="auto" font-family="'Dialog'" width="561" text-rendering="auto" fill-opacity="1" contentScriptType="text/ecmascript" color-interpolation="auto" color-rendering="auto" preserveAspectRatio="xMidYMid meet" font-size="12px" viewBox="0 0 561 660" fill="black" stroke="black" image-rendering="auto" stroke-miterlimit="10" zoomAndPan="magnify" version="1.0" stroke-linecap="square" stroke-linejoin="miter" contentStyleType="text/css" font-style="normal" height="660" stroke-width="1" stroke-dashoffset="0" font-weight="normal" stroke-opacity="1">
    <!--Generated by the Batik Graphics2D SVG Generator-->
    <defs id="genericDefs"/>
    <g>
        <defs id="defs1">
            <linearGradient x1="10" x2="10" y1="10" gradientUnits="userSpaceOnUse" y2="110" xlink:type="simple" xlink:actuate="onLoad" id="linearGradient1" xlink:show="other" spreadMethod="pad">
                <stop stop-opacity="1" stop-color="white" offset="0%"/>
                <stop stop-opacity="1" stop-color="white" offset="100%"/>
            </linearGradient>
            <linearGradient x1="10" x2="10" y1="270" gradientUnits="userSpaceOnUse" y2="370" xlink:type="simple" xlink:actuate="onLoad" id="linearGradient2" xlink:show="other" spreadMethod="pad">
                <stop stop-opacity="1" stop-color="white" offset="0%"/>
                <stop stop-opacity="1" stop-color="white" offset="100%"/>
            </linearGradient>
            <linearGradient x1="10" x2="10" y1="550" gradientUnits="userSpaceOnUse" y2="650" xlink:type="simple" xlink:actuate="onLoad" id="linearGradient3" xlink:show="other" spreadMethod="pad">
                <stop stop-opacity="1" stop-color="white" offset="0%"/>
                <stop stop-opacity="1" stop-color="white" offset="100%"/>
            </linearGradient>
            <clipPath clipPathUnits="userSpaceOnUse" id="clipPath1">
                <path d="M10 10 L10 109 L550 109 L550 57 L286 57 L286 10 Z"/>
            </clipPath>
            <clipPath clipPathUnits="userSpaceOnUse" id="clipPath2">
                <path d="M7 7 L554 7 L554 113 L7 113 L7 7 Z"/>
            </clipPath>
            <clipPath clipPathUnits="userSpaceOnUse" id="clipPath3">
                <path d="M10 12 L288 12 L288 34 L10 34 L10 12 Z"/>
            </clipPath>
            <clipPath clipPathUnits="userSpaceOnUse" id="clipPath4">
                <path d="M15 33 L50 33 L50 55 L15 55 L15 33 Z"/>
            </clipPath>
            <clipPath clipPathUnits="userSpaceOnUse" id="clipPath5">
                <path d="M10 56 L552 56 L552 111 L10 111 L10 56 Z"/>
            </clipPath>
            <clipPath clipPathUnits="userSpaceOnUse" id="clipPath6">
                <path d="M10 270 L10 369 L550 369 L550 317 L101 317 L101 270 Z"/>
            </clipPath>
            <clipPath clipPathUnits="userSpaceOnUse" id="clipPath7">
                <path d="M7 267 L554 267 L554 373 L7 373 L7 267 Z"/>
            </clipPath>
            <clipPath clipPathUnits="userSpaceOnUse" id="clipPath8">
                <path d="M10 272 L103 272 L103 294 L10 294 L10 272 Z"/>
            </clipPath>
            <clipPath clipPathUnits="userSpaceOnUse" id="clipPath9">
                <path d="M15 293 L50 293 L50 315 L15 315 L15 293 Z"/>
            </clipPath>
            <clipPath clipPathUnits="userSpaceOnUse" id="clipPath10">
                <path d="M10 316 L552 316 L552 371 L10 371 L10 316 Z"/>
            </clipPath>
            <clipPath clipPathUnits="userSpaceOnUse" id="clipPath11">
                <path d="M10 550 L10 649 L550 649 L550 597 L101 597 L101 550 Z"/>
            </clipPath>
            <clipPath clipPathUnits="userSpaceOnUse" id="clipPath12">
                <path d="M7 547 L554 547 L554 653 L7 653 L7 547 Z"/>
            </clipPath>
            <clipPath clipPathUnits="userSpaceOnUse" id="clipPath13">
                <path d="M10 552 L103 552 L103 574 L10 574 L10 552 Z"/>
            </clipPath>
            <clipPath clipPathUnits="userSpaceOnUse" id="clipPath14">
                <path d="M15 573 L48 573 L48 595 L15 595 L15 573 Z"/>
            </clipPath>
            <clipPath clipPathUnits="userSpaceOnUse" id="clipPath15">
                <path d="M10 596 L552 596 L552 651 L10 651 L10 596 Z"/>
            </clipPath>
            <clipPath clipPathUnits="userSpaceOnUse" id="clipPath16">
                <path d="M-1 -1 L562 -1 L562 661 L-1 661 L-1 -1 Z"/>
            </clipPath>
            <clipPath clipPathUnits="userSpaceOnUse" id="clipPath17">
                <path d="M291 472 L352 472 L352 494 L291 494 L291 472 Z"/>
            </clipPath>
            <clipPath clipPathUnits="userSpaceOnUse" id="clipPath18">
                <path d="M275 368 L288 368 L288 386 L275 386 L275 368 Z"/>
            </clipPath>
            <clipPath clipPathUnits="userSpaceOnUse" id="clipPath19">
                <path d="M300 203 L361 203 L361 225 L300 225 L300 203 Z"/>
            </clipPath>
            <clipPath clipPathUnits="userSpaceOnUse" id="clipPath20">
                <path d="M284 109 L297 109 L297 127 L284 127 L284 109 Z"/>
            </clipPath>
        </defs>
        <g font-size="15px" fill="url(#linearGradient1)" font-family="'Segoe UI'" stroke-linejoin="round" stroke="url(#linearGradient1)" stroke-width="0" stroke-miterlimit="0">
            <rect x="10" width="541" height="100" y="10" clip-path="url(#clipPath1)" stroke="none"/>
        </g>
        <g font-size="15px" stroke-width="1.1" font-family="'Segoe UI'" stroke-linecap="butt">
            <line y2="10" fill="none" x1="10" clip-path="url(#clipPath2)" x2="286" y1="10"/>
            <line y2="57" fill="none" x1="286" clip-path="url(#clipPath2)" x2="286" y1="10"/>
            <line y2="57" fill="none" x1="286" clip-path="url(#clipPath2)" x2="550" y1="57"/>
            <line y2="109" fill="none" x1="550" clip-path="url(#clipPath2)" x2="550" y1="57"/>
            <line y2="109" fill="none" x1="550" clip-path="url(#clipPath2)" x2="10" y1="109"/>
            <line y2="10" fill="none" x1="10" clip-path="url(#clipPath2)" x2="10" y1="109"/>
            <text x="11" xml:space="preserve" y="30" clip-path="url(#clipPath3)" stroke="none">(Megamodel::Domains::RiskManagement)</text>
            <text x="16" xml:space="preserve" y="51" clip-path="url(#clipPath4)" stroke="none">Links</text>
            <line y2="57" fill="none" x1="10" clip-path="url(#clipPath5)" x2="550" y1="57"/>
            <rect x="10" y="270" clip-path="url(#clipPath6)" fill="url(#linearGradient2)" width="541" height="100" stroke="none"/>
            <line y2="270" fill="none" x1="10" clip-path="url(#clipPath7)" x2="101" y1="270"/>
            <line y2="317" fill="none" x1="101" clip-path="url(#clipPath7)" x2="101" y1="270"/>
            <line y2="317" fill="none" x1="101" clip-path="url(#clipPath7)" x2="550" y1="317"/>
            <line y2="369" fill="none" x1="550" clip-path="url(#clipPath7)" x2="550" y1="317"/>
            <line y2="369" fill="none" x1="550" clip-path="url(#clipPath7)" x2="10" y1="369"/>
            <line y2="270" fill="none" x1="10" clip-path="url(#clipPath7)" x2="10" y1="369"/>
            <text x="11" xml:space="preserve" y="290" clip-path="url(#clipPath8)" stroke="none">(Megamodel)</text>
            <text x="16" xml:space="preserve" y="311" clip-path="url(#clipPath9)" stroke="none">Links</text>
            <line y2="317" fill="none" x1="10" clip-path="url(#clipPath10)" x2="550" y1="317"/>
            <rect x="10" y="550" clip-path="url(#clipPath11)" fill="url(#linearGradient3)" width="541" height="100" stroke="none"/>
            <line y2="550" fill="none" x1="10" clip-path="url(#clipPath12)" x2="101" y1="550"/>
            <line y2="597" fill="none" x1="101" clip-path="url(#clipPath12)" x2="101" y1="550"/>
            <line y2="597" fill="none" x1="101" clip-path="url(#clipPath12)" x2="550" y1="597"/>
            <line y2="649" fill="none" x1="550" clip-path="url(#clipPath12)" x2="550" y1="597"/>
            <line y2="649" fill="none" x1="550" clip-path="url(#clipPath12)" x2="10" y1="649"/>
            <line y2="550" fill="none" x1="10" clip-path="url(#clipPath12)" x2="10" y1="649"/>
            <text x="11" xml:space="preserve" y="570" clip-path="url(#clipPath13)" stroke="none">(Megamodel)</text>
            <text x="16" xml:space="preserve" y="591" clip-path="url(#clipPath14)" stroke="none">UML</text>
            <line y2="597" fill="none" x1="10" clip-path="url(#clipPath15)" x2="550" y1="597"/>
            <line clip-path="url(#clipPath16)" fill="none" text-rendering="optimizeLegibility" x1="281" x2="281" y1="597" y2="369" stroke-dasharray="5,5,5,5,5,5,5,5,5,5"/>
            <text x="292" y="490" clip-path="url(#clipPath17)" text-rendering="optimizeLegibility" stroke-dasharray="5,5,5,5,5,5,5,5,5,5" stroke="none" xml:space="preserve">«merge»</text>
            <line clip-path="url(#clipPath18)" fill="none" text-rendering="optimizeLegibility" x1="286" x2="281" y1="384" y2="369"/>
            <line clip-path="url(#clipPath18)" fill="none" text-rendering="optimizeLegibility" x1="281" x2="276" y1="369" y2="384"/>
            <line clip-path="url(#clipPath16)" fill="none" text-rendering="optimizeLegibility" x1="290" x2="290" y1="317" y2="110" stroke-dasharray="5,5,5,5,5,5,5,5,5,5"/>
            <text x="301" y="221" clip-path="url(#clipPath19)" text-rendering="optimizeLegibility" stroke-dasharray="5,5,5,5,5,5,5,5,5,5" stroke="none" xml:space="preserve">«merge»</text>
            <line clip-path="url(#clipPath20)" fill="none" text-rendering="optimizeLegibility" x1="295" x2="290" y1="125" y2="110"/>
            <line clip-path="url(#clipPath20)" fill="none" text-rendering="optimizeLegibility" x1="290" x2="285" y1="110" y2="125"/>
        </g>
    </g>
</svg>
