<?xml version="1.0" encoding="UTF-8"?><svg xmlns="http://www.w3.org/2000/svg" xmlns:xlink="http://www.w3.org/1999/xlink" stroke-dasharray="none" shape-rendering="auto" font-family="'Dialog'" width="800" text-rendering="auto" fill-opacity="1" contentScriptType="text/ecmascript" color-interpolation="auto" color-rendering="auto" preserveAspectRatio="xMidYMid meet" font-size="12px" viewBox="0 0 800 120" fill="black" stroke="black" image-rendering="auto" stroke-miterlimit="10" zoomAndPan="magnify" version="1.0" stroke-linecap="square" stroke-linejoin="miter" contentStyleType="text/css" font-style="normal" height="120" stroke-width="1" stroke-dashoffset="0" font-weight="normal" stroke-opacity="1">
    <!--Generated by the Batik Graphics2D SVG Generator-->
    <defs id="genericDefs"/>
    <g>
        <defs id="defs1">
            <linearGradient x1="10" x2="10" y1="10" gradientUnits="userSpaceOnUse" y2="110" xlink:type="simple" xlink:actuate="onLoad" id="linearGradient1" xlink:show="other" spreadMethod="pad">
                <stop stop-opacity="1" stop-color="white" offset="0%"/>
                <stop stop-opacity="1" stop-color="rgb(195,215,221)" offset="100%"/>
            </linearGradient>
            <linearGradient x1="690" x2="690" y1="10" gradientUnits="userSpaceOnUse" y2="110" xlink:type="simple" xlink:actuate="onLoad" id="linearGradient2" xlink:show="other" spreadMethod="pad">
                <stop stop-opacity="1" stop-color="white" offset="0%"/>
                <stop stop-opacity="1" stop-color="rgb(195,215,221)" offset="100%"/>
            </linearGradient>
            <clipPath clipPathUnits="userSpaceOnUse" id="clipPath1">
                <path d="M10 10 L10 109 L109 109 L109 10 Z"/>
            </clipPath>
            <clipPath clipPathUnits="userSpaceOnUse" id="clipPath2">
                <path d="M32 49 L89 49 L89 71 L32 71 L32 49 Z"/>
            </clipPath>
            <clipPath clipPathUnits="userSpaceOnUse" id="clipPath3">
                <path d="M9 9 L111 9 L111 111 L9 111 L9 9 Z"/>
            </clipPath>
            <clipPath clipPathUnits="userSpaceOnUse" id="clipPath4">
                <path d="M690 10 L690 109 L789 109 L789 10 Z"/>
            </clipPath>
            <clipPath clipPathUnits="userSpaceOnUse" id="clipPath5">
                <path d="M712 49 L769 49 L769 71 L712 71 L712 49 Z"/>
            </clipPath>
            <clipPath clipPathUnits="userSpaceOnUse" id="clipPath6">
                <path d="M689 9 L791 9 L791 111 L689 111 L689 9 Z"/>
            </clipPath>
            <clipPath clipPathUnits="userSpaceOnUse" id="clipPath7">
                <path d="M-1 -1 L801 -1 L801 121 L-1 121 L-1 -1 Z"/>
            </clipPath>
            <clipPath clipPathUnits="userSpaceOnUse" id="clipPath8">
                <path d="M116 49 L556 49 L556 71 L116 71 L116 49 Z"/>
            </clipPath>
            <clipPath clipPathUnits="userSpaceOnUse" id="clipPath9">
                <path d="M265 69 L682 69 L682 91 L265 91 L265 69 Z"/>
            </clipPath>
            <clipPath clipPathUnits="userSpaceOnUse" id="clipPath10">
                <path d="M129 69 L142 69 L142 91 L129 91 L129 69 Z"/>
            </clipPath>
            <clipPath clipPathUnits="userSpaceOnUse" id="clipPath11">
                <path d="M649 49 L662 49 L662 71 L649 71 L649 49 Z"/>
            </clipPath>
            <clipPath clipPathUnits="userSpaceOnUse" id="clipPath12">
                <path d="M109 63 L130 63 L130 78 L109 78 L109 63 Z"/>
            </clipPath>
            <clipPath clipPathUnits="userSpaceOnUse" id="clipPath13">
                <path d="M671 63 L692 63 L692 78 L671 78 L671 63 Z"/>
            </clipPath>
        </defs>
        <g font-size="15px" fill="url(#linearGradient1)" font-family="'Segoe UI'" stroke-linejoin="round" stroke="url(#linearGradient1)" stroke-width="0" stroke-miterlimit="0">
            <rect x="10" width="100" height="100" y="10" clip-path="url(#clipPath1)" stroke="none"/>
            <text fill="black" x="33" xml:space="preserve" y="67" clip-path="url(#clipPath2)" stroke="none">Element</text>
        </g>
        <g font-size="15px" stroke-width="1.1" font-family="'Segoe UI'" stroke-linecap="butt">
            <rect x="10" y="10" clip-path="url(#clipPath3)" fill="none" width="99" rx="0" ry="0" height="99"/>
            <rect x="690" y="10" clip-path="url(#clipPath4)" fill="url(#linearGradient2)" width="100" height="100" stroke="none"/>
            <text x="713" xml:space="preserve" y="67" clip-path="url(#clipPath5)" stroke="none">Element</text>
            <rect x="690" y="10" clip-path="url(#clipPath6)" fill="none" width="99" rx="0" ry="0" height="99"/>
            <line clip-path="url(#clipPath7)" fill="none" text-rendering="optimizeLegibility" x1="110" x2="690" y1="70" y2="70"/>
            <text text-rendering="optimizeLegibility" x="117" xml:space="preserve" y="67" clip-path="url(#clipPath8)" stroke="none"> +/ linkCausedBy {readOnly, union, unique, subsets linkingElement}</text>
            <text text-rendering="optimizeLegibility" x="266" xml:space="preserve" y="87" clip-path="url(#clipPath9)" stroke="none"> +/ linkCauses {readOnly, union, unique, subsets linkedElement}</text>
            <text text-rendering="optimizeLegibility" x="130" xml:space="preserve" y="87" clip-path="url(#clipPath10)" stroke="none"> *</text>
            <text text-rendering="optimizeLegibility" x="650" xml:space="preserve" y="67" clip-path="url(#clipPath11)" stroke="none"> *</text>
            <polygon text-rendering="optimizeLegibility" clip-path="url(#clipPath12)" points=" 110 69 112 67 114 67 116 69 116 70 128 64 116 70 128 76 116 70 116 71 114 73 112 73 110 71" stroke="none"/>
            <polygon fill="none" text-rendering="optimizeLegibility" clip-path="url(#clipPath12)" points=" 110 69 112 67 114 67 116 69 116 70 128 64 116 70 128 76 116 70 116 71 114 73 112 73 110 71"/>
            <polygon text-rendering="optimizeLegibility" clip-path="url(#clipPath13)" points=" 690 71 688 73 686 73 684 71 684 70 672 76 684 70 672 64 684 70 684 69 686 67 688 67 690 69" stroke="none"/>
            <polygon fill="none" text-rendering="optimizeLegibility" clip-path="url(#clipPath13)" points=" 690 71 688 73 686 73 684 71 684 70 672 76 684 70 672 64 684 70 684 69 686 67 688 67 690 69"/>
        </g>
    </g>
</svg>
