<?xml version="1.0" encoding="UTF-8"?><svg xmlns="http://www.w3.org/2000/svg" xmlns:xlink="http://www.w3.org/1999/xlink" stroke-dasharray="none" shape-rendering="auto" font-family="'Dialog'" width="2461" text-rendering="auto" fill-opacity="1" contentScriptType="text/ecmascript" color-interpolation="auto" color-rendering="auto" preserveAspectRatio="xMidYMid meet" font-size="12px" viewBox="0 0 2461 480" fill="black" stroke="black" image-rendering="auto" stroke-miterlimit="10" zoomAndPan="magnify" version="1.0" stroke-linecap="square" stroke-linejoin="miter" contentStyleType="text/css" font-style="normal" height="480" stroke-width="1" stroke-dashoffset="0" font-weight="normal" stroke-opacity="1">
    <!--Generated by the Batik Graphics2D SVG Generator-->
    <defs id="genericDefs"/>
    <g>
        <defs id="defs1">
            <linearGradient x1="630" x2="630" y1="190" gradientUnits="userSpaceOnUse" y2="290" xlink:type="simple" xlink:actuate="onLoad" id="linearGradient1" xlink:show="other" spreadMethod="pad">
                <stop stop-opacity="1" stop-color="white" offset="0%"/>
                <stop stop-opacity="1" stop-color="rgb(195,215,221)" offset="100%"/>
            </linearGradient>
            <linearGradient x1="630" x2="630" y1="370" gradientUnits="userSpaceOnUse" y2="470" xlink:type="simple" xlink:actuate="onLoad" id="linearGradient2" xlink:show="other" spreadMethod="pad">
                <stop stop-opacity="1" stop-color="white" offset="0%"/>
                <stop stop-opacity="1" stop-color="rgb(195,215,221)" offset="100%"/>
            </linearGradient>
            <linearGradient x1="910" x2="910" y1="370" gradientUnits="userSpaceOnUse" y2="470" xlink:type="simple" xlink:actuate="onLoad" id="linearGradient3" xlink:show="other" spreadMethod="pad">
                <stop stop-opacity="1" stop-color="white" offset="0%"/>
                <stop stop-opacity="1" stop-color="rgb(195,215,221)" offset="100%"/>
            </linearGradient>
            <linearGradient x1="1190" x2="1190" y1="370" gradientUnits="userSpaceOnUse" y2="470" xlink:type="simple" xlink:actuate="onLoad" id="linearGradient4" xlink:show="other" spreadMethod="pad">
                <stop stop-opacity="1" stop-color="white" offset="0%"/>
                <stop stop-opacity="1" stop-color="rgb(195,215,221)" offset="100%"/>
            </linearGradient>
            <linearGradient x1="630" x2="630" y1="10" gradientUnits="userSpaceOnUse" y2="110" xlink:type="simple" xlink:actuate="onLoad" id="linearGradient5" xlink:show="other" spreadMethod="pad">
                <stop stop-opacity="1" stop-color="white" offset="0%"/>
                <stop stop-opacity="1" stop-color="rgb(195,215,221)" offset="100%"/>
            </linearGradient>
            <linearGradient x1="10" x2="10" y1="150" gradientUnits="userSpaceOnUse" y2="310" xlink:type="simple" xlink:actuate="onLoad" id="linearGradient6" xlink:show="other" spreadMethod="pad">
                <stop stop-opacity="1" stop-color="white" offset="0%"/>
                <stop stop-opacity="1" stop-color="rgb(195,209,213)" offset="100%"/>
            </linearGradient>
            <linearGradient x1="2090" x2="2090" y1="190" gradientUnits="userSpaceOnUse" y2="290" xlink:type="simple" xlink:actuate="onLoad" id="linearGradient7" xlink:show="other" spreadMethod="pad">
                <stop stop-opacity="1" stop-color="white" offset="0%"/>
                <stop stop-opacity="1" stop-color="rgb(195,215,221)" offset="100%"/>
            </linearGradient>
            <clipPath clipPathUnits="userSpaceOnUse" id="clipPath1">
                <path d="M630 190 L630 289 L1450 289 L1450 190 Z"/>
            </clipPath>
            <clipPath clipPathUnits="userSpaceOnUse" id="clipPath2">
                <path d="M1005 192 L1077 192 L1077 214 L1005 214 L1005 192 Z"/>
            </clipPath>
            <clipPath clipPathUnits="userSpaceOnUse" id="clipPath3">
                <path d="M630 213 L1452 213 L1452 252 L630 252 L630 213 Z"/>
            </clipPath>
            <clipPath clipPathUnits="userSpaceOnUse" id="clipPath4">
                <path d="M630 251 L1452 251 L1452 290 L630 290 L630 251 Z"/>
            </clipPath>
            <clipPath clipPathUnits="userSpaceOnUse" id="clipPath5">
                <path d="M629 189 L1452 189 L1452 291 L629 291 L629 189 Z"/>
            </clipPath>
            <clipPath clipPathUnits="userSpaceOnUse" id="clipPath6">
                <path d="M630 370 L630 469 L890 469 L890 370 Z"/>
            </clipPath>
            <clipPath clipPathUnits="userSpaceOnUse" id="clipPath7">
                <path d="M712 372 L810 372 L810 394 L712 394 L712 372 Z"/>
            </clipPath>
            <clipPath clipPathUnits="userSpaceOnUse" id="clipPath8">
                <path d="M630 393 L892 393 L892 432 L630 432 L630 393 Z"/>
            </clipPath>
            <clipPath clipPathUnits="userSpaceOnUse" id="clipPath9">
                <path d="M630 431 L892 431 L892 470 L630 470 L630 431 Z"/>
            </clipPath>
            <clipPath clipPathUnits="userSpaceOnUse" id="clipPath10">
                <path d="M629 369 L892 369 L892 471 L629 471 L629 369 Z"/>
            </clipPath>
            <clipPath clipPathUnits="userSpaceOnUse" id="clipPath11">
                <path d="M910 370 L910 469 L1170 469 L1170 370 Z"/>
            </clipPath>
            <clipPath clipPathUnits="userSpaceOnUse" id="clipPath12">
                <path d="M977 372 L1105 372 L1105 394 L977 394 L977 372 Z"/>
            </clipPath>
            <clipPath clipPathUnits="userSpaceOnUse" id="clipPath13">
                <path d="M910 393 L1172 393 L1172 432 L910 432 L910 393 Z"/>
            </clipPath>
            <clipPath clipPathUnits="userSpaceOnUse" id="clipPath14">
                <path d="M910 431 L1172 431 L1172 470 L910 470 L910 431 Z"/>
            </clipPath>
            <clipPath clipPathUnits="userSpaceOnUse" id="clipPath15">
                <path d="M909 369 L1172 369 L1172 471 L909 471 L909 369 Z"/>
            </clipPath>
            <clipPath clipPathUnits="userSpaceOnUse" id="clipPath16">
                <path d="M1190 370 L1190 469 L1450 469 L1450 370 Z"/>
            </clipPath>
            <clipPath clipPathUnits="userSpaceOnUse" id="clipPath17">
                <path d="M1283 372 L1360 372 L1360 394 L1283 394 L1283 372 Z"/>
            </clipPath>
            <clipPath clipPathUnits="userSpaceOnUse" id="clipPath18">
                <path d="M1190 393 L1452 393 L1452 432 L1190 432 L1190 393 Z"/>
            </clipPath>
            <clipPath clipPathUnits="userSpaceOnUse" id="clipPath19">
                <path d="M1190 431 L1452 431 L1452 470 L1190 470 L1190 431 Z"/>
            </clipPath>
            <clipPath clipPathUnits="userSpaceOnUse" id="clipPath20">
                <path d="M1189 369 L1452 369 L1452 471 L1189 471 L1189 369 Z"/>
            </clipPath>
            <clipPath clipPathUnits="userSpaceOnUse" id="clipPath21">
                <path d="M630 10 L630 109 L1450 109 L1450 10 Z"/>
            </clipPath>
            <clipPath clipPathUnits="userSpaceOnUse" id="clipPath22">
                <path d="M979 39 L1104 39 L1104 61 L979 61 L979 39 Z"/>
            </clipPath>
            <clipPath clipPathUnits="userSpaceOnUse" id="clipPath23">
                <path d="M989 60 L1093 60 L1093 82 L989 82 L989 60 Z"/>
            </clipPath>
            <clipPath clipPathUnits="userSpaceOnUse" id="clipPath24">
                <path d="M629 9 L1452 9 L1452 111 L629 111 L629 9 Z"/>
            </clipPath>
            <clipPath clipPathUnits="userSpaceOnUse" id="clipPath25">
                <path d="M10 150 L10 309 L310 309 L310 150 Z"/>
            </clipPath>
            <clipPath clipPathUnits="userSpaceOnUse" id="clipPath26">
                <path d="M110 152 L212 152 L212 174 L110 174 L110 152 Z"/>
            </clipPath>
            <clipPath clipPathUnits="userSpaceOnUse" id="clipPath27">
                <path d="M110 173 L212 173 L212 195 L110 195 L110 173 Z"/>
            </clipPath>
            <clipPath clipPathUnits="userSpaceOnUse" id="clipPath28">
                <path d="M15 196 L95 196 L95 218 L15 218 L15 196 Z"/>
            </clipPath>
            <clipPath clipPathUnits="userSpaceOnUse" id="clipPath29">
                <path d="M15 216 L81 216 L81 238 L15 238 L15 216 Z"/>
            </clipPath>
            <clipPath clipPathUnits="userSpaceOnUse" id="clipPath30">
                <path d="M15 236 L93 236 L93 258 L15 258 L15 236 Z"/>
            </clipPath>
            <clipPath clipPathUnits="userSpaceOnUse" id="clipPath31">
                <path d="M15 256 L83 256 L83 278 L15 278 L15 256 Z"/>
            </clipPath>
            <clipPath clipPathUnits="userSpaceOnUse" id="clipPath32">
                <path d="M15 276 L68 276 L68 298 L15 298 L15 276 Z"/>
            </clipPath>
            <clipPath clipPathUnits="userSpaceOnUse" id="clipPath33">
                <path d="M10 194 L312 194 L312 311 L10 311 L10 194 Z"/>
            </clipPath>
            <clipPath clipPathUnits="userSpaceOnUse" id="clipPath34">
                <path d="M9 149 L312 149 L312 311 L9 311 L9 149 Z"/>
            </clipPath>
            <clipPath clipPathUnits="userSpaceOnUse" id="clipPath35">
                <path d="M2090 190 L2090 289 L2450 289 L2450 190 Z"/>
            </clipPath>
            <clipPath clipPathUnits="userSpaceOnUse" id="clipPath36">
                <path d="M2149 219 L2393 219 L2393 241 L2149 241 L2149 219 Z"/>
            </clipPath>
            <clipPath clipPathUnits="userSpaceOnUse" id="clipPath37">
                <path d="M2242 240 L2301 240 L2301 262 L2242 262 L2242 240 Z"/>
            </clipPath>
            <clipPath clipPathUnits="userSpaceOnUse" id="clipPath38">
                <path d="M2089 189 L2452 189 L2452 291 L2089 291 L2089 189 Z"/>
            </clipPath>
            <clipPath clipPathUnits="userSpaceOnUse" id="clipPath39">
                <path d="M-1 -1 L2462 -1 L2462 481 L-1 481 L-1 -1 Z"/>
            </clipPath>
            <clipPath clipPathUnits="userSpaceOnUse" id="clipPath40">
                <path d="M1041 109 L1060 109 L1060 122 L1041 122 L1041 109 Z"/>
            </clipPath>
            <clipPath clipPathUnits="userSpaceOnUse" id="clipPath41">
                <path d="M1321 289 L1340 289 L1340 302 L1321 302 L1321 289 Z"/>
            </clipPath>
            <clipPath clipPathUnits="userSpaceOnUse" id="clipPath42">
                <path d="M1041 289 L1060 289 L1060 302 L1041 302 L1041 289 Z"/>
            </clipPath>
            <clipPath clipPathUnits="userSpaceOnUse" id="clipPath43">
                <path d="M761 289 L780 289 L780 302 L761 302 L761 289 Z"/>
            </clipPath>
            <clipPath clipPathUnits="userSpaceOnUse" id="clipPath44">
                <path d="M329 209 L545 209 L545 231 L329 231 L329 209 Z"/>
            </clipPath>
            <clipPath clipPathUnits="userSpaceOnUse" id="clipPath45">
                <path d="M329 229 L344 229 L344 251 L329 251 L329 229 Z"/>
            </clipPath>
            <clipPath clipPathUnits="userSpaceOnUse" id="clipPath46">
                <path d="M310 223 L331 223 L331 238 L310 238 L310 223 Z"/>
            </clipPath>
            <clipPath clipPathUnits="userSpaceOnUse" id="clipPath47">
                <path d="M1494 209 L1905 209 L1905 231 L1494 231 L1494 209 Z"/>
            </clipPath>
            <clipPath clipPathUnits="userSpaceOnUse" id="clipPath48">
                <path d="M1662 229 L2040 229 L2040 251 L1662 251 L1662 229 Z"/>
            </clipPath>
            <clipPath clipPathUnits="userSpaceOnUse" id="clipPath49">
                <path d="M1477 239 L1490 239 L1490 261 L1477 261 L1477 239 Z"/>
            </clipPath>
            <clipPath clipPathUnits="userSpaceOnUse" id="clipPath50">
                <path d="M2051 199 L2064 199 L2064 221 L2051 221 L2051 199 Z"/>
            </clipPath>
            <clipPath clipPathUnits="userSpaceOnUse" id="clipPath51">
                <path d="M1450 223 L1471 223 L1471 238 L1450 238 L1450 223 Z"/>
            </clipPath>
            <clipPath clipPathUnits="userSpaceOnUse" id="clipPath52">
                <path d="M2071 223 L2092 223 L2092 238 L2071 238 L2071 223 Z"/>
            </clipPath>
        </defs>
        <g font-size="15px" fill="url(#linearGradient1)" font-family="'Segoe UI'" stroke-linejoin="round" stroke="url(#linearGradient1)" stroke-width="0" stroke-miterlimit="0">
            <rect x="630" width="821" height="100" y="190" clip-path="url(#clipPath1)" stroke="none"/>
            <text x="1006" y="210" clip-path="url(#clipPath2)" fill="black" font-style="italic" stroke="none" xml:space="preserve">Mitigation</text>
        </g>
        <g font-size="15px" stroke-width="1.1" font-family="'Segoe UI'" stroke-linecap="butt">
            <line y2="214" fill="none" x1="630" clip-path="url(#clipPath3)" x2="1451" y1="214"/>
            <line y2="252" fill="none" x1="630" clip-path="url(#clipPath4)" x2="1451" y1="252"/>
            <rect x="630" y="190" clip-path="url(#clipPath5)" fill="none" width="820" rx="0" ry="0" height="99"/>
            <rect x="630" y="370" clip-path="url(#clipPath6)" fill="url(#linearGradient2)" width="261" height="100" stroke="none"/>
            <text x="713" xml:space="preserve" y="390" clip-path="url(#clipPath7)" stroke="none">SystemControl</text>
            <line y2="394" fill="none" x1="630" clip-path="url(#clipPath8)" x2="891" y1="394"/>
            <line y2="432" fill="none" x1="630" clip-path="url(#clipPath9)" x2="891" y1="432"/>
            <rect x="630" y="370" clip-path="url(#clipPath10)" fill="none" width="260" rx="0" ry="0" height="99"/>
            <rect x="910" y="370" clip-path="url(#clipPath11)" fill="url(#linearGradient3)" width="261" height="100" stroke="none"/>
            <text x="978" xml:space="preserve" y="390" clip-path="url(#clipPath12)" stroke="none">ApplicationControl</text>
            <line y2="394" fill="none" x1="910" clip-path="url(#clipPath13)" x2="1171" y1="394"/>
            <line y2="432" fill="none" x1="910" clip-path="url(#clipPath14)" x2="1171" y1="432"/>
            <rect x="910" y="370" clip-path="url(#clipPath15)" fill="none" width="260" rx="0" ry="0" height="99"/>
            <rect x="1190" y="370" clip-path="url(#clipPath16)" fill="url(#linearGradient4)" width="261" height="100" stroke="none"/>
            <text x="1284" xml:space="preserve" y="390" clip-path="url(#clipPath17)" stroke="none">RiskControl</text>
            <line y2="394" fill="none" x1="1190" clip-path="url(#clipPath18)" x2="1451" y1="394"/>
            <line y2="432" fill="none" x1="1190" clip-path="url(#clipPath19)" x2="1451" y1="432"/>
            <rect x="1190" y="370" clip-path="url(#clipPath20)" fill="none" width="260" rx="0" ry="0" height="99"/>
            <rect x="630" y="10" clip-path="url(#clipPath21)" fill="url(#linearGradient5)" width="821" height="100" stroke="none"/>
            <text font-style="italic" x="980" xml:space="preserve" y="57" clip-path="url(#clipPath22)" stroke="none">(Megamodel::UML)</text>
            <text font-style="italic" x="990" xml:space="preserve" y="78" clip-path="url(#clipPath23)" stroke="none">NamedElement</text>
            <rect x="630" y="10" clip-path="url(#clipPath24)" fill="none" width="820" rx="0" ry="0" height="99"/>
            <rect x="10" y="150" clip-path="url(#clipPath25)" fill="url(#linearGradient6)" width="301" height="160" stroke="none"/>
            <text x="111" xml:space="preserve" y="170" clip-path="url(#clipPath26)" stroke="none">«Enumeration»</text>
            <text x="111" xml:space="preserve" y="191" clip-path="url(#clipPath27)" stroke="none">MitigationType</text>
            <text x="16" xml:space="preserve" y="214" clip-path="url(#clipPath28)" stroke="none">UNKNOWN</text>
            <text x="16" xml:space="preserve" y="234" clip-path="url(#clipPath29)" stroke="none">reduction</text>
            <text x="16" xml:space="preserve" y="254" clip-path="url(#clipPath30)" stroke="none">elimination</text>
            <text x="16" xml:space="preserve" y="274" clip-path="url(#clipPath31)" stroke="none">safeguard</text>
            <text x="16" xml:space="preserve" y="294" clip-path="url(#clipPath32)" stroke="none">transfer</text>
            <line y2="195" fill="none" x1="10" clip-path="url(#clipPath33)" x2="311" y1="195"/>
            <rect x="10" y="150" clip-path="url(#clipPath34)" fill="none" width="300" rx="0" ry="0" height="159"/>
            <rect x="2090" y="190" clip-path="url(#clipPath35)" fill="url(#linearGradient7)" width="361" height="100" stroke="none"/>
            <text x="2150" xml:space="preserve" y="237" clip-path="url(#clipPath36)" stroke="none">(Domains::RiskManagement::Testing)</text>
            <text x="2243" xml:space="preserve" y="258" clip-path="url(#clipPath37)" stroke="none">TestCase</text>
            <rect x="2090" y="190" clip-path="url(#clipPath38)" fill="none" width="360" rx="0" ry="0" height="99"/>
            <line clip-path="url(#clipPath39)" fill="none" text-rendering="optimizeLegibility" x1="1050" x2="1050" y1="190" y2="110"/>
            <polygon fill="white" text-rendering="optimizeLegibility" clip-path="url(#clipPath40)" points=" 1050 110 1058 120 1042 120" stroke="none"/>
            <polygon fill="none" text-rendering="optimizeLegibility" clip-path="url(#clipPath40)" points=" 1050 110 1058 120 1042 120"/>
            <line clip-path="url(#clipPath39)" fill="none" text-rendering="optimizeLegibility" x1="1330" x2="1330" y1="370" y2="290"/>
            <polygon fill="white" text-rendering="optimizeLegibility" clip-path="url(#clipPath41)" points=" 1330 290 1338 300 1322 300" stroke="none"/>
            <polygon fill="none" text-rendering="optimizeLegibility" clip-path="url(#clipPath41)" points=" 1330 290 1338 300 1322 300"/>
            <line clip-path="url(#clipPath39)" fill="none" text-rendering="optimizeLegibility" x1="1050" x2="1050" y1="370" y2="290"/>
            <polygon fill="white" text-rendering="optimizeLegibility" clip-path="url(#clipPath42)" points=" 1050 290 1058 300 1042 300" stroke="none"/>
            <polygon fill="none" text-rendering="optimizeLegibility" clip-path="url(#clipPath42)" points=" 1050 290 1058 300 1042 300"/>
            <line clip-path="url(#clipPath39)" fill="none" text-rendering="optimizeLegibility" x1="770" x2="770" y1="370" y2="290"/>
            <polygon fill="white" text-rendering="optimizeLegibility" clip-path="url(#clipPath43)" points=" 770 290 778 300 762 300" stroke="none"/>
            <polygon fill="none" text-rendering="optimizeLegibility" clip-path="url(#clipPath43)" points=" 770 290 778 300 762 300"/>
            <line clip-path="url(#clipPath39)" fill="none" text-rendering="optimizeLegibility" x1="630" x2="311" y1="230" y2="230"/>
            <text text-rendering="optimizeLegibility" x="330" xml:space="preserve" y="227" clip-path="url(#clipPath44)" stroke="none"> + mitigationType = UNKNOWN</text>
            <text text-rendering="optimizeLegibility" x="330" xml:space="preserve" y="247" clip-path="url(#clipPath45)" stroke="none"> 1</text>
            <polygon text-rendering="optimizeLegibility" clip-path="url(#clipPath46)" points=" 311 229 313 227 315 227 317 229 317 230 329 224 317 230 329 236 317 230 317 231 315 233 313 233 311 231" stroke="none"/>
            <polygon fill="none" text-rendering="optimizeLegibility" clip-path="url(#clipPath46)" points=" 311 229 313 227 315 227 317 229 317 230 329 224 317 230 329 236 317 230 317 231 315 233 313 233 311 231"/>
            <line clip-path="url(#clipPath39)" fill="none" text-rendering="optimizeLegibility" x1="1451" x2="2090" y1="230" y2="230"/>
            <text text-rendering="optimizeLegibility" x="1495" xml:space="preserve" y="227" clip-path="url(#clipPath47)" stroke="none"> +/ mitigation {readOnly, union, unique, subsets linkCausedBy}</text>
            <text text-rendering="optimizeLegibility" x="1663" xml:space="preserve" y="247" clip-path="url(#clipPath48)" stroke="none"> +/ testCase {readOnly, union, unique, subsets linkCauses}</text>
            <text text-rendering="optimizeLegibility" x="1478" xml:space="preserve" y="257" clip-path="url(#clipPath49)" stroke="none"> *</text>
            <text text-rendering="optimizeLegibility" x="2052" xml:space="preserve" y="217" clip-path="url(#clipPath50)" stroke="none"> *</text>
            <polygon text-rendering="optimizeLegibility" clip-path="url(#clipPath51)" points=" 1451 229 1453 227 1455 227 1457 229 1457 230 1469 224 1457 230 1469 236 1457 230 1457 231 1455 233 1453 233 1451 231" stroke="none"/>
            <polygon fill="none" text-rendering="optimizeLegibility" clip-path="url(#clipPath51)" points=" 1451 229 1453 227 1455 227 1457 229 1457 230 1469 224 1457 230 1469 236 1457 230 1457 231 1455 233 1453 233 1451 231"/>
            <polygon text-rendering="optimizeLegibility" clip-path="url(#clipPath52)" points=" 2090 231 2088 233 2086 233 2084 231 2084 230 2072 236 2084 230 2072 224 2084 230 2084 229 2086 227 2088 227 2090 229" stroke="none"/>
            <polygon fill="none" text-rendering="optimizeLegibility" clip-path="url(#clipPath52)" points=" 2090 231 2088 233 2086 233 2084 231 2084 230 2072 236 2084 230 2072 224 2084 230 2084 229 2086 227 2088 227 2090 229"/>
        </g>
    </g>
</svg>
