<?xml version="1.0" encoding="UTF-8"?><svg xmlns="http://www.w3.org/2000/svg" xmlns:xlink="http://www.w3.org/1999/xlink" stroke-dasharray="none" shape-rendering="auto" font-family="'Dialog'" width="906" text-rendering="auto" fill-opacity="1" contentScriptType="text/ecmascript" color-interpolation="auto" color-rendering="auto" preserveAspectRatio="xMidYMid meet" font-size="12px" viewBox="0 0 906 312" fill="black" stroke="black" image-rendering="auto" stroke-miterlimit="10" zoomAndPan="magnify" version="1.0" stroke-linecap="square" stroke-linejoin="miter" contentStyleType="text/css" font-style="normal" height="312" stroke-width="1" stroke-dashoffset="0" font-weight="normal" stroke-opacity="1">
    <!--Generated by the Batik Graphics2D SVG Generator-->
    <defs id="genericDefs"/>
    <g>
        <defs id="defs1">
            <linearGradient x1="10" x2="10" y1="170" gradientUnits="userSpaceOnUse" y2="270" xlink:type="simple" xlink:actuate="onLoad" id="linearGradient1" xlink:show="other" spreadMethod="pad">
                <stop stop-opacity="1" stop-color="white" offset="0%"/>
                <stop stop-opacity="1" stop-color="rgb(195,215,221)" offset="100%"/>
            </linearGradient>
            <linearGradient x1="550" x2="550" y1="10" gradientUnits="userSpaceOnUse" y2="82" xlink:type="simple" xlink:actuate="onLoad" id="linearGradient2" xlink:show="other" spreadMethod="pad">
                <stop stop-opacity="1" stop-color="rgb(200,255,230)" offset="0%"/>
                <stop stop-opacity="1" stop-color="white" offset="100%"/>
            </linearGradient>
            <linearGradient x1="550" x2="550" y1="230" gradientUnits="userSpaceOnUse" y2="302" xlink:type="simple" xlink:actuate="onLoad" id="linearGradient3" xlink:show="other" spreadMethod="pad">
                <stop stop-opacity="1" stop-color="rgb(200,255,230)" offset="0%"/>
                <stop stop-opacity="1" stop-color="white" offset="100%"/>
            </linearGradient>
            <clipPath clipPathUnits="userSpaceOnUse" id="clipPath1">
                <path d="M10 170 L10 269 L270 269 L270 170 Z"/>
            </clipPath>
            <clipPath clipPathUnits="userSpaceOnUse" id="clipPath2">
                <path d="M116 209 L166 209 L166 231 L116 231 L116 209 Z"/>
            </clipPath>
            <clipPath clipPathUnits="userSpaceOnUse" id="clipPath3">
                <path d="M9 169 L272 169 L272 271 L9 271 L9 169 Z"/>
            </clipPath>
            <clipPath clipPathUnits="userSpaceOnUse" id="clipPath4">
                <path d="M550 10 L550 81 L887 81 L887 22 L875 10 Z"/>
            </clipPath>
            <clipPath clipPathUnits="userSpaceOnUse" id="clipPath5">
                <path d="M560 15 L869 15 L869 37 L560 37 L560 15 Z"/>
            </clipPath>
            <clipPath clipPathUnits="userSpaceOnUse" id="clipPath6">
                <path d="M555 35 L813 35 L813 77 L555 77 L555 35 Z"/>
            </clipPath>
            <clipPath clipPathUnits="userSpaceOnUse" id="clipPath7">
                <path d="M549 9 L889 9 L889 83 L549 83 L549 9 Z"/>
            </clipPath>
            <clipPath clipPathUnits="userSpaceOnUse" id="clipPath8">
                <path d="M550 230 L550 301 L895 301 L895 242 L883 230 Z"/>
            </clipPath>
            <clipPath clipPathUnits="userSpaceOnUse" id="clipPath9">
                <path d="M560 235 L877 235 L877 257 L560 257 L560 235 Z"/>
            </clipPath>
            <clipPath clipPathUnits="userSpaceOnUse" id="clipPath10">
                <path d="M555 255 L821 255 L821 297 L555 297 L555 255 Z"/>
            </clipPath>
            <clipPath clipPathUnits="userSpaceOnUse" id="clipPath11">
                <path d="M549 229 L897 229 L897 303 L549 303 L549 229 Z"/>
            </clipPath>
            <clipPath clipPathUnits="userSpaceOnUse" id="clipPath12">
                <path d="M-1 -1 L907 -1 L907 313 L-1 313 L-1 -1 Z"/>
            </clipPath>
            <clipPath clipPathUnits="userSpaceOnUse" id="clipPath13">
                <path d="M398 110 L465 110 L465 132 L398 132 L398 110 Z"/>
            </clipPath>
            <clipPath clipPathUnits="userSpaceOnUse" id="clipPath14">
                <path d="M379 217 L446 217 L446 239 L379 239 L379 217 Z"/>
            </clipPath>
        </defs>
        <g font-size="15px" fill="url(#linearGradient1)" font-family="'Segoe UI'" stroke-linejoin="round" stroke="url(#linearGradient1)" stroke-width="0" stroke-miterlimit="0">
            <rect x="10" width="261" height="100" y="170" clip-path="url(#clipPath1)" stroke="none"/>
            <text fill="black" x="117" xml:space="preserve" y="227" clip-path="url(#clipPath2)" stroke="none">Hazard</text>
        </g>
        <g font-size="15px" stroke-width="1.1" font-family="'Segoe UI'" stroke-linecap="butt">
            <rect x="10" y="170" clip-path="url(#clipPath3)" fill="none" width="260" rx="0" ry="0" height="99"/>
            <rect x="550" y="10" clip-path="url(#clipPath4)" fill="url(#linearGradient2)" width="338" height="72" stroke="none"/>
            <text x="561" xml:space="preserve" y="33" clip-path="url(#clipPath5)" stroke="none">SystemImpactIsEmptyForEmptyProtectionGoal</text>
            <text x="556" xml:space="preserve" y="53" clip-path="url(#clipPath6)" stroke="none">{{OCL} self.protectionGoal-&gt;isEmpty()</text>
            <text x="556" xml:space="preserve" y="73" clip-path="url(#clipPath6)" stroke="none">implies  self.systemImpact-&gt;isEmpty()}</text>
            <line y2="10" fill="none" x1="550" clip-path="url(#clipPath7)" x2="875" y1="10"/>
            <line y2="22" fill="none" x1="875" clip-path="url(#clipPath7)" x2="887" y1="10"/>
            <line y2="81" fill="none" x1="887" clip-path="url(#clipPath7)" x2="887" y1="22"/>
            <line y2="81" fill="none" x1="887" clip-path="url(#clipPath7)" x2="550" y1="81"/>
            <line y2="10" fill="none" x1="550" clip-path="url(#clipPath7)" x2="550" y1="81"/>
            <line y2="10" fill="none" x1="550" clip-path="url(#clipPath7)" x2="550" y1="10"/>
            <line y2="22" fill="none" x1="875" clip-path="url(#clipPath7)" x2="875" y1="10"/>
            <line y2="22" fill="none" x1="875" clip-path="url(#clipPath7)" x2="888" y1="22"/>
            <rect x="550" y="230" clip-path="url(#clipPath8)" fill="url(#linearGradient3)" width="346" height="72" stroke="none"/>
            <text x="561" xml:space="preserve" y="253" clip-path="url(#clipPath9)" stroke="none">SystemImpactIsNotEmptyIfProtectionGoalExists</text>
            <text x="556" xml:space="preserve" y="273" clip-path="url(#clipPath10)" stroke="none">{{OCL} self.protectionGoal-&gt;notEmpty()</text>
            <text x="556" xml:space="preserve" y="293" clip-path="url(#clipPath10)" stroke="none">implies self.systemImpact-&gt;notEmpty()}</text>
            <line y2="230" fill="none" x1="550" clip-path="url(#clipPath11)" x2="883" y1="230"/>
            <line y2="242" fill="none" x1="883" clip-path="url(#clipPath11)" x2="895" y1="230"/>
            <line y2="301" fill="none" x1="895" clip-path="url(#clipPath11)" x2="895" y1="242"/>
            <line y2="301" fill="none" x1="895" clip-path="url(#clipPath11)" x2="550" y1="301"/>
            <line y2="230" fill="none" x1="550" clip-path="url(#clipPath11)" x2="550" y1="301"/>
            <line y2="230" fill="none" x1="550" clip-path="url(#clipPath11)" x2="550" y1="230"/>
            <line y2="242" fill="none" x1="883" clip-path="url(#clipPath11)" x2="883" y1="230"/>
            <line y2="242" fill="none" x1="883" clip-path="url(#clipPath11)" x2="896" y1="242"/>
            <line clip-path="url(#clipPath12)" fill="none" text-rendering="optimizeLegibility" x1="594" x2="271" y1="82" y2="185" stroke-dasharray="3.3,1.1,1.1,1.1"/>
            <text x="399" y="128" clip-path="url(#clipPath13)" text-rendering="optimizeLegibility" stroke-dasharray="3.3,1.1,1.1,1.1" stroke="none" xml:space="preserve">«context»</text>
            <line clip-path="url(#clipPath12)" fill="none" text-rendering="optimizeLegibility" x1="550" x2="271" y1="249" y2="230" stroke-dasharray="3.3,1.1,1.1,1.1"/>
            <text x="380" y="235" clip-path="url(#clipPath14)" text-rendering="optimizeLegibility" stroke-dasharray="3.3,1.1,1.1,1.1" stroke="none" xml:space="preserve">«context»</text>
        </g>
    </g>
</svg>
