<?xml version="1.0" encoding="UTF-8"?><svg xmlns="http://www.w3.org/2000/svg" xmlns:xlink="http://www.w3.org/1999/xlink" stroke-dasharray="none" shape-rendering="auto" font-family="'Dialog'" width="723" text-rendering="auto" fill-opacity="1" contentScriptType="text/ecmascript" color-interpolation="auto" color-rendering="auto" preserveAspectRatio="xMidYMid meet" font-size="12px" viewBox="0 0 723 533" fill="black" stroke="black" image-rendering="auto" stroke-miterlimit="10" zoomAndPan="magnify" version="1.0" stroke-linecap="square" stroke-linejoin="miter" contentStyleType="text/css" font-style="normal" height="533" stroke-width="1" stroke-dashoffset="0" font-weight="normal" stroke-opacity="1">
    <!--Generated by the Batik Graphics2D SVG Generator-->
    <defs id="genericDefs"/>
    <g>
        <defs id="defs1">
            <linearGradient x1="10" x2="10" y1="10" gradientUnits="userSpaceOnUse" y2="151" xlink:type="simple" xlink:actuate="onLoad" id="linearGradient1" xlink:show="other" spreadMethod="pad">
                <stop stop-opacity="1" stop-color="white" offset="0%"/>
                <stop stop-opacity="1" stop-color="white" offset="100%"/>
            </linearGradient>
            <linearGradient x1="430" x2="430" y1="10" gradientUnits="userSpaceOnUse" y2="151" xlink:type="simple" xlink:actuate="onLoad" id="linearGradient2" xlink:show="other" spreadMethod="pad">
                <stop stop-opacity="1" stop-color="white" offset="0%"/>
                <stop stop-opacity="1" stop-color="white" offset="100%"/>
            </linearGradient>
            <linearGradient x1="270" x2="270" y1="290" gradientUnits="userSpaceOnUse" y2="411" xlink:type="simple" xlink:actuate="onLoad" id="linearGradient3" xlink:show="other" spreadMethod="pad">
                <stop stop-opacity="1" stop-color="white" offset="0%"/>
                <stop stop-opacity="1" stop-color="rgb(195,215,221)" offset="100%"/>
            </linearGradient>
            <clipPath clipPathUnits="userSpaceOnUse" id="clipPath1">
                <path d="M10 10 L10 150 L209 150 L209 36 L53 36 L53 10 Z"/>
            </clipPath>
            <clipPath clipPathUnits="userSpaceOnUse" id="clipPath2">
                <path d="M7 7 L213 7 L213 154 L7 154 L7 7 Z"/>
            </clipPath>
            <clipPath clipPathUnits="userSpaceOnUse" id="clipPath3">
                <path d="M15 12 L50 12 L50 34 L15 34 L15 12 Z"/>
            </clipPath>
            <clipPath clipPathUnits="userSpaceOnUse" id="clipPath4">
                <path d="M10 35 L211 35 L211 152 L10 152 L10 35 Z"/>
            </clipPath>
            <clipPath clipPathUnits="userSpaceOnUse" id="clipPath5">
                <path d="M430 10 L430 150 L629 150 L629 36 L471 36 L471 10 Z"/>
            </clipPath>
            <clipPath clipPathUnits="userSpaceOnUse" id="clipPath6">
                <path d="M427 7 L633 7 L633 154 L427 154 L427 7 Z"/>
            </clipPath>
            <clipPath clipPathUnits="userSpaceOnUse" id="clipPath7">
                <path d="M435 12 L468 12 L468 34 L435 34 L435 12 Z"/>
            </clipPath>
            <clipPath clipPathUnits="userSpaceOnUse" id="clipPath8">
                <path d="M430 35 L631 35 L631 152 L430 152 L430 35 Z"/>
            </clipPath>
            <clipPath clipPathUnits="userSpaceOnUse" id="clipPath9">
                <path d="M270 290 L270 410 L390 410 L390 290 Z"/>
            </clipPath>
            <clipPath clipPathUnits="userSpaceOnUse" id="clipPath10">
                <path d="M303 339 L360 339 L360 361 L303 361 L303 339 Z"/>
            </clipPath>
            <clipPath clipPathUnits="userSpaceOnUse" id="clipPath11">
                <path d="M269 289 L392 289 L392 412 L269 412 L269 289 Z"/>
            </clipPath>
            <clipPath clipPathUnits="userSpaceOnUse" id="clipPath12">
                <path d="M-1 -1 L724 -1 L724 534 L-1 534 L-1 -1 Z"/>
            </clipPath>
            <clipPath clipPathUnits="userSpaceOnUse" id="clipPath13">
                <path d="M290 39 L351 39 L351 61 L290 61 L290 39 Z"/>
            </clipPath>
            <clipPath clipPathUnits="userSpaceOnUse" id="clipPath14">
                <path d="M209 84 L227 84 L227 97 L209 97 L209 84 Z"/>
            </clipPath>
            <clipPath clipPathUnits="userSpaceOnUse" id="clipPath15">
                <path d="M407 349 L701 349 L701 371 L407 371 L407 349 Z"/>
            </clipPath>
            <clipPath clipPathUnits="userSpaceOnUse" id="clipPath16">
                <path d="M351 489 L641 489 L641 511 L351 511 L351 489 Z"/>
            </clipPath>
            <clipPath clipPathUnits="userSpaceOnUse" id="clipPath17">
                <path d="M409 369 L422 369 L422 391 L409 391 L409 369 Z"/>
            </clipPath>
            <clipPath clipPathUnits="userSpaceOnUse" id="clipPath18">
                <path d="M337 409 L350 409 L350 431 L337 431 L337 409 Z"/>
            </clipPath>
            <clipPath clipPathUnits="userSpaceOnUse" id="clipPath19">
                <path d="M390 363 L411 363 L411 378 L390 378 L390 363 Z"/>
            </clipPath>
            <clipPath clipPathUnits="userSpaceOnUse" id="clipPath20">
                <path d="M363 410 L378 410 L378 431 L363 431 L363 410 Z"/>
            </clipPath>
        </defs>
        <g font-size="15px" fill="url(#linearGradient1)" font-family="'Segoe UI'" stroke-linejoin="round" stroke="url(#linearGradient1)" stroke-width="0" stroke-miterlimit="0">
            <rect x="10" width="200" height="141" y="10" clip-path="url(#clipPath1)" stroke="none"/>
        </g>
        <g font-size="15px" stroke-width="1.1" font-family="'Segoe UI'" stroke-linecap="butt">
            <line y2="10" fill="none" x1="10" clip-path="url(#clipPath2)" x2="53" y1="10"/>
            <line y2="36" fill="none" x1="53" clip-path="url(#clipPath2)" x2="53" y1="10"/>
            <line y2="36" fill="none" x1="53" clip-path="url(#clipPath2)" x2="209" y1="36"/>
            <line y2="150" fill="none" x1="209" clip-path="url(#clipPath2)" x2="209" y1="36"/>
            <line y2="150" fill="none" x1="209" clip-path="url(#clipPath2)" x2="10" y1="150"/>
            <line y2="10" fill="none" x1="10" clip-path="url(#clipPath2)" x2="10" y1="150"/>
            <text x="16" xml:space="preserve" y="30" clip-path="url(#clipPath3)" stroke="none">Links</text>
            <line y2="36" fill="none" x1="10" clip-path="url(#clipPath4)" x2="209" y1="36"/>
            <rect x="430" y="10" clip-path="url(#clipPath5)" fill="url(#linearGradient2)" width="200" height="141" stroke="none"/>
            <line y2="10" fill="none" x1="430" clip-path="url(#clipPath6)" x2="471" y1="10"/>
            <line y2="36" fill="none" x1="471" clip-path="url(#clipPath6)" x2="471" y1="10"/>
            <line y2="36" fill="none" x1="471" clip-path="url(#clipPath6)" x2="629" y1="36"/>
            <line y2="150" fill="none" x1="629" clip-path="url(#clipPath6)" x2="629" y1="36"/>
            <line y2="150" fill="none" x1="629" clip-path="url(#clipPath6)" x2="430" y1="150"/>
            <line y2="10" fill="none" x1="430" clip-path="url(#clipPath6)" x2="430" y1="150"/>
            <text x="436" xml:space="preserve" y="30" clip-path="url(#clipPath7)" stroke="none">UML</text>
            <line y2="36" fill="none" x1="430" clip-path="url(#clipPath8)" x2="629" y1="36"/>
            <rect x="270" y="290" clip-path="url(#clipPath9)" fill="url(#linearGradient3)" width="121" height="121" stroke="none"/>
            <text x="304" xml:space="preserve" y="357" clip-path="url(#clipPath10)" stroke="none">Element</text>
            <rect x="270" y="290" clip-path="url(#clipPath11)" fill="none" width="120" rx="0" ry="0" height="120"/>
            <line clip-path="url(#clipPath12)" fill="none" text-rendering="optimizeLegibility" x1="430" x2="210" y1="90" y2="90" stroke-dasharray="5,5,5,5,5,5,5,5,5,5"/>
            <text x="291" y="57" clip-path="url(#clipPath13)" text-rendering="optimizeLegibility" stroke-dasharray="5,5,5,5,5,5,5,5,5,5" stroke="none" xml:space="preserve">«merge»</text>
            <line clip-path="url(#clipPath14)" fill="none" text-rendering="optimizeLegibility" x1="225" x2="210" y1="85" y2="90"/>
            <line clip-path="url(#clipPath14)" fill="none" text-rendering="optimizeLegibility" x1="210" x2="225" y1="90" y2="95"/>
            <line clip-path="url(#clipPath12)" fill="none" text-rendering="optimizeLegibility" x1="391" x2="453" y1="370" y2="370"/>
            <line clip-path="url(#clipPath12)" fill="none" text-rendering="optimizeLegibility" x1="453" x2="453" y1="370" y2="473"/>
            <line clip-path="url(#clipPath12)" fill="none" text-rendering="optimizeLegibility" x1="453" x2="370" y1="473" y2="473"/>
            <line clip-path="url(#clipPath12)" fill="none" text-rendering="optimizeLegibility" x1="370" x2="370" y1="473" y2="411"/>
            <text text-rendering="optimizeLegibility" x="408" xml:space="preserve" y="367" clip-path="url(#clipPath15)" stroke="none"> +/ linkingElement {readOnly, union, unique}</text>
            <text text-rendering="optimizeLegibility" x="352" xml:space="preserve" y="507" clip-path="url(#clipPath16)" stroke="none"> +/ linkedElement {readOnly, union, unique}</text>
            <text text-rendering="optimizeLegibility" x="410" xml:space="preserve" y="387" clip-path="url(#clipPath17)" stroke="none"> *</text>
            <text text-rendering="optimizeLegibility" x="338" xml:space="preserve" y="427" clip-path="url(#clipPath18)" stroke="none"> *</text>
            <polygon text-rendering="optimizeLegibility" clip-path="url(#clipPath19)" points=" 391 369 393 367 395 367 397 369 397 370 409 364 397 370 409 376 397 370 397 371 395 373 393 373 391 371" stroke="none"/>
            <polygon fill="none" text-rendering="optimizeLegibility" clip-path="url(#clipPath19)" points=" 391 369 393 367 395 367 397 369 397 370 409 364 397 370 409 376 397 370 397 371 395 373 393 373 391 371"/>
            <polygon text-rendering="optimizeLegibility" clip-path="url(#clipPath20)" points=" 371 411 373 413 373 415 371 417 370 417 376 429 370 417 364 429 370 417 369 417 367 415 367 413 369 411" stroke="none"/>
            <polygon fill="none" text-rendering="optimizeLegibility" clip-path="url(#clipPath20)" points=" 371 411 373 413 373 415 371 417 370 417 376 429 370 417 364 429 370 417 369 417 367 415 367 413 369 411"/>
        </g>
    </g>
</svg>
