<?xml version="1.0" encoding="UTF-8"?><svg xmlns="http://www.w3.org/2000/svg" xmlns:xlink="http://www.w3.org/1999/xlink" stroke-dasharray="none" shape-rendering="auto" font-family="'Dialog'" width="221" text-rendering="auto" fill-opacity="1" contentScriptType="text/ecmascript" color-interpolation="auto" color-rendering="auto" preserveAspectRatio="xMidYMid meet" font-size="12px" viewBox="0 0 221 384" fill="black" stroke="black" image-rendering="auto" stroke-miterlimit="10" zoomAndPan="magnify" version="1.0" stroke-linecap="square" stroke-linejoin="miter" contentStyleType="text/css" font-style="normal" height="384" stroke-width="1" stroke-dashoffset="0" font-weight="normal" stroke-opacity="1">
    <!--Generated by the Batik Graphics2D SVG Generator-->
    <defs id="genericDefs"/>
    <g>
        <defs id="defs1">
            <linearGradient x1="10" x2="10" y1="10" gradientUnits="userSpaceOnUse" y2="110" xlink:type="simple" xlink:actuate="onLoad" id="linearGradient1" xlink:show="other" spreadMethod="pad">
                <stop stop-opacity="1" stop-color="white" offset="0%"/>
                <stop stop-opacity="1" stop-color="rgb(195,215,221)" offset="100%"/>
            </linearGradient>
            <linearGradient x1="10" x2="10" y1="250" gradientUnits="userSpaceOnUse" y2="374" xlink:type="simple" xlink:actuate="onLoad" id="linearGradient2" xlink:show="other" spreadMethod="pad">
                <stop stop-opacity="1" stop-color="white" offset="0%"/>
                <stop stop-opacity="1" stop-color="rgb(195,215,221)" offset="100%"/>
            </linearGradient>
            <clipPath clipPathUnits="userSpaceOnUse" id="clipPath1">
                <path d="M10 10 L10 109 L210 109 L210 10 Z"/>
            </clipPath>
            <clipPath clipPathUnits="userSpaceOnUse" id="clipPath2">
                <path d="M83 49 L139 49 L139 71 L83 71 L83 49 Z"/>
            </clipPath>
            <clipPath clipPathUnits="userSpaceOnUse" id="clipPath3">
                <path d="M9 9 L212 9 L212 111 L9 111 L9 9 Z"/>
            </clipPath>
            <clipPath clipPathUnits="userSpaceOnUse" id="clipPath4">
                <path d="M10 250 L10 373 L210 373 L210 250 Z"/>
            </clipPath>
            <clipPath clipPathUnits="userSpaceOnUse" id="clipPath5">
                <path d="M59 252 L163 252 L163 274 L59 274 L59 252 Z"/>
            </clipPath>
            <clipPath clipPathUnits="userSpaceOnUse" id="clipPath6">
                <path d="M15 275 L162 275 L162 297 L15 297 L15 275 Z"/>
            </clipPath>
            <clipPath clipPathUnits="userSpaceOnUse" id="clipPath7">
                <path d="M15 295 L199 295 L199 317 L15 317 L15 295 Z"/>
            </clipPath>
            <clipPath clipPathUnits="userSpaceOnUse" id="clipPath8">
                <path d="M10 273 L212 273 L212 328 L10 328 L10 273 Z"/>
            </clipPath>
            <clipPath clipPathUnits="userSpaceOnUse" id="clipPath9">
                <path d="M10 327 L212 327 L212 351 L10 351 L10 327 Z"/>
            </clipPath>
            <clipPath clipPathUnits="userSpaceOnUse" id="clipPath10">
                <path d="M10 350 L212 350 L212 374 L10 374 L10 350 Z"/>
            </clipPath>
            <clipPath clipPathUnits="userSpaceOnUse" id="clipPath11">
                <path d="M9 249 L212 249 L212 375 L9 375 L9 249 Z"/>
            </clipPath>
            <clipPath clipPathUnits="userSpaceOnUse" id="clipPath12">
                <path d="M-1 -1 L222 -1 L222 385 L-1 385 L-1 -1 Z"/>
            </clipPath>
            <clipPath clipPathUnits="userSpaceOnUse" id="clipPath13">
                <path d="M101 109 L120 109 L120 122 L101 122 L101 109 Z"/>
            </clipPath>
        </defs>
        <g font-size="15px" fill="url(#linearGradient1)" font-family="'Segoe UI'" stroke-linejoin="round" stroke="url(#linearGradient1)" stroke-width="0" stroke-miterlimit="0">
            <rect x="10" width="201" height="100" y="10" clip-path="url(#clipPath1)" stroke="none"/>
            <text x="84" y="67" clip-path="url(#clipPath2)" fill="black" font-style="italic" stroke="none" xml:space="preserve">Element</text>
        </g>
        <g font-size="15px" stroke-width="1.1" font-family="'Segoe UI'" stroke-linecap="butt">
            <rect x="10" y="10" clip-path="url(#clipPath3)" fill="none" width="200" rx="0" ry="0" height="99"/>
            <rect x="10" y="250" clip-path="url(#clipPath4)" fill="url(#linearGradient2)" width="201" height="124" stroke="none"/>
            <text font-style="italic" x="60" xml:space="preserve" y="270" clip-path="url(#clipPath5)" stroke="none">NamedElement</text>
            <text x="16" xml:space="preserve" y="293" clip-path="url(#clipPath6)" stroke="none"> + name: EString [0..1]</text>
            <text x="16" xml:space="preserve" y="313" clip-path="url(#clipPath7)" stroke="none"> + description: EString [0..1]</text>
            <line y2="274" fill="none" x1="10" clip-path="url(#clipPath8)" x2="211" y1="274"/>
            <line y2="328" fill="none" x1="10" clip-path="url(#clipPath9)" x2="211" y1="328"/>
            <line y2="351" fill="none" x1="10" clip-path="url(#clipPath10)" x2="211" y1="351"/>
            <rect x="10" y="250" clip-path="url(#clipPath11)" fill="none" width="200" rx="0" ry="0" height="123"/>
            <line clip-path="url(#clipPath12)" fill="none" text-rendering="optimizeLegibility" x1="110" x2="110" y1="250" y2="110"/>
            <polygon fill="white" text-rendering="optimizeLegibility" clip-path="url(#clipPath13)" points=" 110 110 118 120 102 120" stroke="none"/>
            <polygon fill="none" text-rendering="optimizeLegibility" clip-path="url(#clipPath13)" points=" 110 110 118 120 102 120"/>
        </g>
    </g>
</svg>
