<?xml version="1.0" encoding="UTF-8"?><svg xmlns="http://www.w3.org/2000/svg" xmlns:xlink="http://www.w3.org/1999/xlink" stroke-dasharray="none" shape-rendering="auto" font-family="'Dialog'" width="901" text-rendering="auto" fill-opacity="1" contentScriptType="text/ecmascript" color-interpolation="auto" color-rendering="auto" preserveAspectRatio="xMidYMid meet" font-size="12px" viewBox="0 0 901 303" fill="black" stroke="black" image-rendering="auto" stroke-miterlimit="10" zoomAndPan="magnify" version="1.0" stroke-linecap="square" stroke-linejoin="miter" contentStyleType="text/css" font-style="normal" height="303" stroke-width="1" stroke-dashoffset="0" font-weight="normal" stroke-opacity="1">
    <!--Generated by the Batik Graphics2D SVG Generator-->
    <defs id="genericDefs"/>
    <g>
        <defs id="defs1">
            <linearGradient x1="10" x2="10" y1="10" gradientUnits="userSpaceOnUse" y2="110" xlink:type="simple" xlink:actuate="onLoad" id="linearGradient1" xlink:show="other" spreadMethod="pad">
                <stop stop-opacity="1" stop-color="white" offset="0%"/>
                <stop stop-opacity="1" stop-color="rgb(195,215,221)" offset="100%"/>
            </linearGradient>
            <linearGradient x1="10" x2="10" y1="190" gradientUnits="userSpaceOnUse" y2="290" xlink:type="simple" xlink:actuate="onLoad" id="linearGradient2" xlink:show="other" spreadMethod="pad">
                <stop stop-opacity="1" stop-color="white" offset="0%"/>
                <stop stop-opacity="1" stop-color="rgb(195,215,221)" offset="100%"/>
            </linearGradient>
            <linearGradient x1="690" x2="690" y1="190" gradientUnits="userSpaceOnUse" y2="290" xlink:type="simple" xlink:actuate="onLoad" id="linearGradient3" xlink:show="other" spreadMethod="pad">
                <stop stop-opacity="1" stop-color="white" offset="0%"/>
                <stop stop-opacity="1" stop-color="rgb(195,215,221)" offset="100%"/>
            </linearGradient>
            <linearGradient x1="690" x2="690" y1="10" gradientUnits="userSpaceOnUse" y2="110" xlink:type="simple" xlink:actuate="onLoad" id="linearGradient4" xlink:show="other" spreadMethod="pad">
                <stop stop-opacity="1" stop-color="white" offset="0%"/>
                <stop stop-opacity="1" stop-color="rgb(195,215,221)" offset="100%"/>
            </linearGradient>
            <clipPath clipPathUnits="userSpaceOnUse" id="clipPath1">
                <path d="M10 10 L10 109 L210 109 L210 10 Z"/>
            </clipPath>
            <clipPath clipPathUnits="userSpaceOnUse" id="clipPath2">
                <path d="M59 49 L163 49 L163 71 L59 71 L59 49 Z"/>
            </clipPath>
            <clipPath clipPathUnits="userSpaceOnUse" id="clipPath3">
                <path d="M9 9 L212 9 L212 111 L9 111 L9 9 Z"/>
            </clipPath>
            <clipPath clipPathUnits="userSpaceOnUse" id="clipPath4">
                <path d="M10 190 L10 289 L210 289 L210 190 Z"/>
            </clipPath>
            <clipPath clipPathUnits="userSpaceOnUse" id="clipPath5">
                <path d="M63 192 L160 192 L160 214 L63 214 L63 192 Z"/>
            </clipPath>
            <clipPath clipPathUnits="userSpaceOnUse" id="clipPath6">
                <path d="M10 213 L212 213 L212 252 L10 252 L10 213 Z"/>
            </clipPath>
            <clipPath clipPathUnits="userSpaceOnUse" id="clipPath7">
                <path d="M10 251 L212 251 L212 290 L10 290 L10 251 Z"/>
            </clipPath>
            <clipPath clipPathUnits="userSpaceOnUse" id="clipPath8">
                <path d="M9 189 L212 189 L212 291 L9 291 L9 189 Z"/>
            </clipPath>
            <clipPath clipPathUnits="userSpaceOnUse" id="clipPath9">
                <path d="M690 190 L690 289 L890 289 L890 190 Z"/>
            </clipPath>
            <clipPath clipPathUnits="userSpaceOnUse" id="clipPath10">
                <path d="M775 192 L808 192 L808 214 L775 214 L775 192 Z"/>
            </clipPath>
            <clipPath clipPathUnits="userSpaceOnUse" id="clipPath11">
                <path d="M690 213 L892 213 L892 252 L690 252 L690 213 Z"/>
            </clipPath>
            <clipPath clipPathUnits="userSpaceOnUse" id="clipPath12">
                <path d="M690 251 L892 251 L892 290 L690 290 L690 251 Z"/>
            </clipPath>
            <clipPath clipPathUnits="userSpaceOnUse" id="clipPath13">
                <path d="M689 189 L892 189 L892 291 L689 291 L689 189 Z"/>
            </clipPath>
            <clipPath clipPathUnits="userSpaceOnUse" id="clipPath14">
                <path d="M690 10 L690 109 L890 109 L890 10 Z"/>
            </clipPath>
            <clipPath clipPathUnits="userSpaceOnUse" id="clipPath15">
                <path d="M739 49 L843 49 L843 71 L739 71 L739 49 Z"/>
            </clipPath>
            <clipPath clipPathUnits="userSpaceOnUse" id="clipPath16">
                <path d="M689 9 L892 9 L892 111 L689 111 L689 9 Z"/>
            </clipPath>
            <clipPath clipPathUnits="userSpaceOnUse" id="clipPath17">
                <path d="M-1 -1 L902 -1 L902 304 L-1 304 L-1 -1 Z"/>
            </clipPath>
            <clipPath clipPathUnits="userSpaceOnUse" id="clipPath18">
                <path d="M101 109 L120 109 L120 122 L101 122 L101 109 Z"/>
            </clipPath>
            <clipPath clipPathUnits="userSpaceOnUse" id="clipPath19">
                <path d="M226 219 L339 219 L339 241 L226 241 L226 219 Z"/>
            </clipPath>
            <clipPath clipPathUnits="userSpaceOnUse" id="clipPath20">
                <path d="M594 259 L643 259 L643 281 L594 281 L594 259 Z"/>
            </clipPath>
            <clipPath clipPathUnits="userSpaceOnUse" id="clipPath21">
                <path d="M276 259 L289 259 L289 281 L276 281 L276 259 Z"/>
            </clipPath>
            <clipPath clipPathUnits="userSpaceOnUse" id="clipPath22">
                <path d="M604 219 L633 219 L633 241 L604 241 L604 219 Z"/>
            </clipPath>
            <clipPath clipPathUnits="userSpaceOnUse" id="clipPath23">
                <path d="M671 243 L692 243 L692 258 L671 258 L671 243 Z"/>
            </clipPath>
            <clipPath clipPathUnits="userSpaceOnUse" id="clipPath24">
                <path d="M781 109 L800 109 L800 122 L781 122 L781 109 Z"/>
            </clipPath>
        </defs>
        <g font-size="15px" fill="url(#linearGradient1)" font-family="'Segoe UI'" stroke-linejoin="round" stroke="url(#linearGradient1)" stroke-width="0" stroke-miterlimit="0">
            <rect x="10" width="201" height="100" y="10" clip-path="url(#clipPath1)" stroke="none"/>
            <text x="60" y="67" clip-path="url(#clipPath2)" fill="black" font-style="italic" stroke="none" xml:space="preserve">NamedElement</text>
        </g>
        <g font-size="15px" stroke-width="1.1" font-family="'Segoe UI'" stroke-linecap="butt">
            <rect x="10" y="10" clip-path="url(#clipPath3)" fill="none" width="200" rx="0" ry="0" height="99"/>
            <rect x="10" y="190" clip-path="url(#clipPath4)" fill="url(#linearGradient2)" width="201" height="100" stroke="none"/>
            <text x="64" xml:space="preserve" y="210" clip-path="url(#clipPath5)" stroke="none">TypedElement</text>
            <line y2="214" fill="none" x1="10" clip-path="url(#clipPath6)" x2="211" y1="214"/>
            <line y2="252" fill="none" x1="10" clip-path="url(#clipPath7)" x2="211" y1="252"/>
            <rect x="10" y="190" clip-path="url(#clipPath8)" fill="none" width="200" rx="0" ry="0" height="99"/>
            <rect x="690" y="190" clip-path="url(#clipPath9)" fill="url(#linearGradient3)" width="201" height="100" stroke="none"/>
            <text x="776" xml:space="preserve" y="210" clip-path="url(#clipPath10)" stroke="none">Type</text>
            <line y2="214" fill="none" x1="690" clip-path="url(#clipPath11)" x2="891" y1="214"/>
            <line y2="252" fill="none" x1="690" clip-path="url(#clipPath12)" x2="891" y1="252"/>
            <rect x="690" y="190" clip-path="url(#clipPath13)" fill="none" width="200" rx="0" ry="0" height="99"/>
            <rect x="690" y="10" clip-path="url(#clipPath14)" fill="url(#linearGradient4)" width="201" height="100" stroke="none"/>
            <text font-style="italic" x="740" xml:space="preserve" y="67" clip-path="url(#clipPath15)" stroke="none">NamedElement</text>
            <rect x="690" y="10" clip-path="url(#clipPath16)" fill="none" width="200" rx="0" ry="0" height="99"/>
            <line clip-path="url(#clipPath17)" fill="none" text-rendering="optimizeLegibility" x1="110" x2="110" y1="190" y2="110"/>
            <polygon fill="white" text-rendering="optimizeLegibility" clip-path="url(#clipPath18)" points=" 110 110 118 120 102 120" stroke="none"/>
            <polygon fill="none" text-rendering="optimizeLegibility" clip-path="url(#clipPath18)" points=" 110 110 118 120 102 120"/>
            <line clip-path="url(#clipPath17)" fill="none" text-rendering="optimizeLegibility" x1="211" x2="690" y1="250" y2="250"/>
            <text text-rendering="optimizeLegibility" x="227" xml:space="preserve" y="237" clip-path="url(#clipPath19)" stroke="none"> + typedElement</text>
            <text text-rendering="optimizeLegibility" x="595" xml:space="preserve" y="277" clip-path="url(#clipPath20)" stroke="none"> + type</text>
            <text text-rendering="optimizeLegibility" x="277" xml:space="preserve" y="277" clip-path="url(#clipPath21)" stroke="none"> *</text>
            <text text-rendering="optimizeLegibility" x="605" xml:space="preserve" y="237" clip-path="url(#clipPath22)" stroke="none"> 0..1</text>
            <polygon text-rendering="optimizeLegibility" clip-path="url(#clipPath23)" points=" 690 251 688 253 686 253 684 251 684 250 672 256 684 250 672 244 684 250 684 249 686 247 688 247 690 249" stroke="none"/>
            <polygon fill="none" text-rendering="optimizeLegibility" clip-path="url(#clipPath23)" points=" 690 251 688 253 686 253 684 251 684 250 672 256 684 250 672 244 684 250 684 249 686 247 688 247 690 249"/>
            <line clip-path="url(#clipPath17)" fill="none" text-rendering="optimizeLegibility" x1="790" x2="790" y1="190" y2="110"/>
            <polygon fill="white" text-rendering="optimizeLegibility" clip-path="url(#clipPath24)" points=" 790 110 798 120 782 120" stroke="none"/>
            <polygon fill="none" text-rendering="optimizeLegibility" clip-path="url(#clipPath24)" points=" 790 110 798 120 782 120"/>
        </g>
    </g>
</svg>
