<?xml version="1.0" encoding="UTF-8"?><svg xmlns="http://www.w3.org/2000/svg" xmlns:xlink="http://www.w3.org/1999/xlink" stroke-dasharray="none" shape-rendering="auto" font-family="'Dialog'" width="221" text-rendering="auto" fill-opacity="1" contentScriptType="text/ecmascript" color-interpolation="auto" color-rendering="auto" preserveAspectRatio="xMidYMid meet" font-size="12px" viewBox="0 0 221 300" fill="black" stroke="black" image-rendering="auto" stroke-miterlimit="10" zoomAndPan="magnify" version="1.0" stroke-linecap="square" stroke-linejoin="miter" contentStyleType="text/css" font-style="normal" height="300" stroke-width="1" stroke-dashoffset="0" font-weight="normal" stroke-opacity="1">
    <!--Generated by the Batik Graphics2D SVG Generator-->
    <defs id="genericDefs"/>
    <g>
        <defs id="defs1">
            <linearGradient x1="10" x2="10" y1="10" gradientUnits="userSpaceOnUse" y2="110" xlink:type="simple" xlink:actuate="onLoad" id="linearGradient1" xlink:show="other" spreadMethod="pad">
                <stop stop-opacity="1" stop-color="white" offset="0%"/>
                <stop stop-opacity="1" stop-color="rgb(195,215,221)" offset="100%"/>
            </linearGradient>
            <linearGradient x1="10" x2="10" y1="190" gradientUnits="userSpaceOnUse" y2="290" xlink:type="simple" xlink:actuate="onLoad" id="linearGradient2" xlink:show="other" spreadMethod="pad">
                <stop stop-opacity="1" stop-color="white" offset="0%"/>
                <stop stop-opacity="1" stop-color="rgb(195,215,221)" offset="100%"/>
            </linearGradient>
            <clipPath clipPathUnits="userSpaceOnUse" id="clipPath1">
                <path d="M10 10 L10 109 L210 109 L210 10 Z"/>
            </clipPath>
            <clipPath clipPathUnits="userSpaceOnUse" id="clipPath2">
                <path d="M45 39 L177 39 L177 61 L45 61 L45 39 Z"/>
            </clipPath>
            <clipPath clipPathUnits="userSpaceOnUse" id="clipPath3">
                <path d="M56 60 L166 60 L166 82 L56 82 L56 60 Z"/>
            </clipPath>
            <clipPath clipPathUnits="userSpaceOnUse" id="clipPath4">
                <path d="M9 9 L212 9 L212 111 L9 111 L9 9 Z"/>
            </clipPath>
            <clipPath clipPathUnits="userSpaceOnUse" id="clipPath5">
                <path d="M10 190 L10 289 L210 289 L210 190 Z"/>
            </clipPath>
            <clipPath clipPathUnits="userSpaceOnUse" id="clipPath6">
                <path d="M61 192 L161 192 L161 214 L61 214 L61 192 Z"/>
            </clipPath>
            <clipPath clipPathUnits="userSpaceOnUse" id="clipPath7">
                <path d="M10 213 L212 213 L212 239 L10 239 L10 213 Z"/>
            </clipPath>
            <clipPath clipPathUnits="userSpaceOnUse" id="clipPath8">
                <path d="M10 238 L212 238 L212 264 L10 264 L10 238 Z"/>
            </clipPath>
            <clipPath clipPathUnits="userSpaceOnUse" id="clipPath9">
                <path d="M10 263 L212 263 L212 289 L10 289 L10 263 Z"/>
            </clipPath>
            <clipPath clipPathUnits="userSpaceOnUse" id="clipPath10">
                <path d="M9 189 L212 189 L212 291 L9 291 L9 189 Z"/>
            </clipPath>
            <clipPath clipPathUnits="userSpaceOnUse" id="clipPath11">
                <path d="M-1 -1 L222 -1 L222 301 L-1 301 L-1 -1 Z"/>
            </clipPath>
            <clipPath clipPathUnits="userSpaceOnUse" id="clipPath12">
                <path d="M101 109 L120 109 L120 122 L101 122 L101 109 Z"/>
            </clipPath>
        </defs>
        <g font-size="15px" fill="url(#linearGradient1)" font-family="'Segoe UI'" stroke-linejoin="round" stroke="url(#linearGradient1)" stroke-width="0" stroke-miterlimit="0">
            <rect x="10" width="201" height="100" y="10" clip-path="url(#clipPath1)" stroke="none"/>
        </g>
        <g font-style="italic" stroke-miterlimit="0" stroke-width="0" font-size="15px" font-family="'Segoe UI Historic'" stroke-linejoin="round">
            <text x="46" xml:space="preserve" y="57" clip-path="url(#clipPath2)" stroke="none">(Megamodel::UML)</text>
            <text x="57" xml:space="preserve" y="78" clip-path="url(#clipPath3)" stroke="none">NamedElement</text>
        </g>
        <g font-size="15px" stroke-width="1.1" font-family="'Segoe UI'" stroke-linecap="butt">
            <rect x="10" y="10" clip-path="url(#clipPath4)" fill="none" width="200" rx="0" ry="0" height="99"/>
            <rect x="10" y="190" clip-path="url(#clipPath5)" fill="url(#linearGradient2)" width="201" height="100" stroke="none"/>
            <text x="62" xml:space="preserve" y="210" clip-path="url(#clipPath6)" stroke="none">Design change</text>
            <line y2="214" fill="none" x1="10" clip-path="url(#clipPath7)" x2="211" y1="214"/>
            <line y2="239" fill="none" x1="10" clip-path="url(#clipPath8)" x2="211" y1="239"/>
            <line y2="264" fill="none" x1="10" clip-path="url(#clipPath9)" x2="211" y1="264"/>
            <rect x="10" y="190" clip-path="url(#clipPath10)" fill="none" width="200" rx="0" ry="0" height="99"/>
            <line clip-path="url(#clipPath11)" fill="none" text-rendering="optimizeLegibility" x1="110" x2="110" y1="190" y2="110"/>
            <polygon fill="white" text-rendering="optimizeLegibility" clip-path="url(#clipPath12)" points=" 110 110 118 120 102 120" stroke="none"/>
            <polygon fill="none" text-rendering="optimizeLegibility" clip-path="url(#clipPath12)" points=" 110 110 118 120 102 120"/>
        </g>
    </g>
</svg>
