<?xml version="1.0" encoding="UTF-8"?><svg xmlns="http://www.w3.org/2000/svg" xmlns:xlink="http://www.w3.org/1999/xlink" stroke-dasharray="none" shape-rendering="auto" font-family="'Dialog'" width="800" text-rendering="auto" fill-opacity="1" contentScriptType="text/ecmascript" color-interpolation="auto" color-rendering="auto" preserveAspectRatio="xMidYMid meet" font-size="12px" viewBox="0 0 800 132" fill="black" stroke="black" image-rendering="auto" stroke-miterlimit="10" zoomAndPan="magnify" version="1.0" stroke-linecap="square" stroke-linejoin="miter" contentStyleType="text/css" font-style="normal" height="132" stroke-width="1" stroke-dashoffset="0" font-weight="normal" stroke-opacity="1">
    <!--Generated by the Batik Graphics2D SVG Generator-->
    <defs id="genericDefs"/>
    <g>
        <defs id="defs1">
            <linearGradient x1="10" x2="10" y1="22" gradientUnits="userSpaceOnUse" y2="122" xlink:type="simple" xlink:actuate="onLoad" id="linearGradient1" xlink:show="other" spreadMethod="pad">
                <stop stop-opacity="1" stop-color="white" offset="0%"/>
                <stop stop-opacity="1" stop-color="rgb(195,215,221)" offset="100%"/>
            </linearGradient>
            <linearGradient x1="690" x2="690" y1="22" gradientUnits="userSpaceOnUse" y2="122" xlink:type="simple" xlink:actuate="onLoad" id="linearGradient2" xlink:show="other" spreadMethod="pad">
                <stop stop-opacity="1" stop-color="white" offset="0%"/>
                <stop stop-opacity="1" stop-color="rgb(195,215,221)" offset="100%"/>
            </linearGradient>
            <clipPath clipPathUnits="userSpaceOnUse" id="clipPath1">
                <path d="M10 22 L10 121 L109 121 L109 22 Z"/>
            </clipPath>
            <clipPath clipPathUnits="userSpaceOnUse" id="clipPath2">
                <path d="M32 61 L89 61 L89 83 L32 83 L32 61 Z"/>
            </clipPath>
            <clipPath clipPathUnits="userSpaceOnUse" id="clipPath3">
                <path d="M9 21 L111 21 L111 123 L9 123 L9 21 Z"/>
            </clipPath>
            <clipPath clipPathUnits="userSpaceOnUse" id="clipPath4">
                <path d="M690 22 L690 121 L789 121 L789 22 Z"/>
            </clipPath>
            <clipPath clipPathUnits="userSpaceOnUse" id="clipPath5">
                <path d="M712 61 L769 61 L769 83 L712 83 L712 61 Z"/>
            </clipPath>
            <clipPath clipPathUnits="userSpaceOnUse" id="clipPath6">
                <path d="M689 21 L791 21 L791 123 L689 123 L689 21 Z"/>
            </clipPath>
            <clipPath clipPathUnits="userSpaceOnUse" id="clipPath7">
                <path d="M-1 -1 L801 -1 L801 133 L-1 133 L-1 -1 Z"/>
            </clipPath>
            <clipPath clipPathUnits="userSpaceOnUse" id="clipPath8">
                <path d="M117 23 L574 23 L574 45 L117 45 L117 23 Z"/>
            </clipPath>
            <clipPath clipPathUnits="userSpaceOnUse" id="clipPath9">
                <path d="M249 80 L683 80 L683 102 L249 102 L249 80 Z"/>
            </clipPath>
            <clipPath clipPathUnits="userSpaceOnUse" id="clipPath10">
                <path d="M131 80 L144 80 L144 102 L131 102 L131 80 Z"/>
            </clipPath>
            <clipPath clipPathUnits="userSpaceOnUse" id="clipPath11">
                <path d="M640 22 L653 22 L653 44 L640 44 L640 22 Z"/>
            </clipPath>
            <clipPath clipPathUnits="userSpaceOnUse" id="clipPath12">
                <path d="M109 55 L130 55 L130 70 L109 70 L109 55 Z"/>
            </clipPath>
            <clipPath clipPathUnits="userSpaceOnUse" id="clipPath13">
                <path d="M671 55 L692 55 L692 70 L671 70 L671 55 Z"/>
            </clipPath>
        </defs>
        <g font-size="15px" fill="url(#linearGradient1)" font-family="'Segoe UI'" stroke-linejoin="round" stroke="url(#linearGradient1)" stroke-width="0" stroke-miterlimit="0">
            <rect x="10" width="100" height="100" y="22" clip-path="url(#clipPath1)" stroke="none"/>
            <text fill="black" x="33" xml:space="preserve" y="79" clip-path="url(#clipPath2)" stroke="none">Element</text>
        </g>
        <g font-size="15px" stroke-width="1.1" font-family="'Segoe UI'" stroke-linecap="butt">
            <rect x="10" y="22" clip-path="url(#clipPath3)" fill="none" width="99" rx="0" ry="0" height="99"/>
            <rect x="690" y="22" clip-path="url(#clipPath4)" fill="url(#linearGradient2)" width="100" height="100" stroke="none"/>
            <text x="713" xml:space="preserve" y="79" clip-path="url(#clipPath5)" stroke="none">Element</text>
            <rect x="690" y="22" clip-path="url(#clipPath6)" fill="none" width="99" rx="0" ry="0" height="99"/>
            <line clip-path="url(#clipPath7)" fill="none" text-rendering="optimizeLegibility" x1="110" x2="690" y1="62" y2="62"/>
            <text text-rendering="optimizeLegibility" x="118" xml:space="preserve" y="41" clip-path="url(#clipPath8)" stroke="none"> +/ linkMitigatedBy {readOnly, union, unique, subsets linkingElement}</text>
            <text text-rendering="optimizeLegibility" x="250" xml:space="preserve" y="98" clip-path="url(#clipPath9)" stroke="none"> +/ linkMitigates {readOnly, union, unique, subsets linkedElement}</text>
            <text text-rendering="optimizeLegibility" x="132" xml:space="preserve" y="98" clip-path="url(#clipPath10)" stroke="none"> *</text>
            <text text-rendering="optimizeLegibility" x="641" xml:space="preserve" y="40" clip-path="url(#clipPath11)" stroke="none"> *</text>
            <polygon text-rendering="optimizeLegibility" clip-path="url(#clipPath12)" points=" 110 61 112 59 114 59 116 61 116 62 128 56 116 62 128 68 116 62 116 63 114 65 112 65 110 63" stroke="none"/>
            <polygon fill="none" text-rendering="optimizeLegibility" clip-path="url(#clipPath12)" points=" 110 61 112 59 114 59 116 61 116 62 128 56 116 62 128 68 116 62 116 63 114 65 112 65 110 63"/>
            <polygon text-rendering="optimizeLegibility" clip-path="url(#clipPath13)" points=" 690 63 688 65 686 65 684 63 684 62 672 68 684 62 672 56 684 62 684 61 686 59 688 59 690 61" stroke="none"/>
            <polygon fill="none" text-rendering="optimizeLegibility" clip-path="url(#clipPath13)" points=" 690 63 688 65 686 65 684 63 684 62 672 68 684 62 672 56 684 62 684 61 686 59 688 59 690 61"/>
        </g>
    </g>
</svg>
