<?xml version="1.0" encoding="UTF-8"?><svg xmlns="http://www.w3.org/2000/svg" xmlns:xlink="http://www.w3.org/1999/xlink" stroke-dasharray="none" shape-rendering="auto" font-family="'Dialog'" width="1181" text-rendering="auto" fill-opacity="1" contentScriptType="text/ecmascript" color-interpolation="auto" color-rendering="auto" preserveAspectRatio="xMidYMid meet" font-size="12px" viewBox="0 0 1181 144" fill="black" stroke="black" image-rendering="auto" stroke-miterlimit="10" zoomAndPan="magnify" version="1.0" stroke-linecap="square" stroke-linejoin="miter" contentStyleType="text/css" font-style="normal" height="144" stroke-width="1" stroke-dashoffset="0" font-weight="normal" stroke-opacity="1">
    <!--Generated by the Batik Graphics2D SVG Generator-->
    <defs id="genericDefs"/>
    <g>
        <defs id="defs1">
            <linearGradient x1="10" x2="10" y1="10" gradientUnits="userSpaceOnUse" y2="134" xlink:type="simple" xlink:actuate="onLoad" id="linearGradient1" xlink:show="other" spreadMethod="pad">
                <stop stop-opacity="1" stop-color="white" offset="0%"/>
                <stop stop-opacity="1" stop-color="rgb(195,215,221)" offset="100%"/>
            </linearGradient>
            <linearGradient x1="810" x2="810" y1="10" gradientUnits="userSpaceOnUse" y2="131" xlink:type="simple" xlink:actuate="onLoad" id="linearGradient2" xlink:show="other" spreadMethod="pad">
                <stop stop-opacity="1" stop-color="white" offset="0%"/>
                <stop stop-opacity="1" stop-color="rgb(195,209,213)" offset="100%"/>
            </linearGradient>
            <clipPath clipPathUnits="userSpaceOnUse" id="clipPath1">
                <path d="M10 10 L10 133 L590 133 L590 10 Z"/>
            </clipPath>
            <clipPath clipPathUnits="userSpaceOnUse" id="clipPath2">
                <path d="M238 12 L364 12 L364 34 L238 34 L238 12 Z"/>
            </clipPath>
            <clipPath clipPathUnits="userSpaceOnUse" id="clipPath3">
                <path d="M15 35 L322 35 L322 57 L15 57 L15 35 Z"/>
            </clipPath>
            <clipPath clipPathUnits="userSpaceOnUse" id="clipPath4">
                <path d="M15 55 L311 55 L311 77 L15 77 L15 55 Z"/>
            </clipPath>
            <clipPath clipPathUnits="userSpaceOnUse" id="clipPath5">
                <path d="M10 33 L592 33 L592 88 L10 88 L10 33 Z"/>
            </clipPath>
            <clipPath clipPathUnits="userSpaceOnUse" id="clipPath6">
                <path d="M10 87 L592 87 L592 111 L10 111 L10 87 Z"/>
            </clipPath>
            <clipPath clipPathUnits="userSpaceOnUse" id="clipPath7">
                <path d="M10 110 L592 110 L592 134 L10 134 L10 110 Z"/>
            </clipPath>
            <clipPath clipPathUnits="userSpaceOnUse" id="clipPath8">
                <path d="M9 9 L592 9 L592 135 L9 135 L9 9 Z"/>
            </clipPath>
            <clipPath clipPathUnits="userSpaceOnUse" id="clipPath9">
                <path d="M810 10 L810 130 L1170 130 L1170 10 Z"/>
            </clipPath>
            <clipPath clipPathUnits="userSpaceOnUse" id="clipPath10">
                <path d="M951 39 L1032 39 L1032 61 L951 61 L951 39 Z"/>
            </clipPath>
            <clipPath clipPathUnits="userSpaceOnUse" id="clipPath11">
                <path d="M954 60 L1029 60 L1029 82 L954 82 L954 60 Z"/>
            </clipPath>
            <clipPath clipPathUnits="userSpaceOnUse" id="clipPath12">
                <path d="M880 81 L1102 81 L1102 103 L880 103 L880 81 Z"/>
            </clipPath>
            <clipPath clipPathUnits="userSpaceOnUse" id="clipPath13">
                <path d="M809 9 L1172 9 L1172 132 L809 132 L809 9 Z"/>
            </clipPath>
        </defs>
        <g font-size="15px" fill="url(#linearGradient1)" font-family="'Segoe UI'" stroke-linejoin="round" stroke="url(#linearGradient1)" stroke-width="0" stroke-miterlimit="0">
            <rect x="10" width="581" height="124" y="10" clip-path="url(#clipPath1)" stroke="none"/>
            <text x="239" y="30" clip-path="url(#clipPath2)" fill="black" font-style="italic" stroke="none" xml:space="preserve">ProbabilityElement</text>
            <text fill="black" x="16" xml:space="preserve" y="53" clip-path="url(#clipPath3)" stroke="none"> + probabilityBeforeMitigation: Probability [1]</text>
            <text fill="black" x="16" xml:space="preserve" y="73" clip-path="url(#clipPath4)" stroke="none"> + probabilityAfterMitigation: Probability [1]</text>
        </g>
        <g font-size="15px" stroke-width="1.1" font-family="'Segoe UI'" stroke-linecap="butt">
            <line y2="34" fill="none" x1="10" clip-path="url(#clipPath5)" x2="591" y1="34"/>
            <line y2="88" fill="none" x1="10" clip-path="url(#clipPath6)" x2="591" y1="88"/>
            <line y2="111" fill="none" x1="10" clip-path="url(#clipPath7)" x2="591" y1="111"/>
            <rect x="10" y="10" clip-path="url(#clipPath8)" fill="none" width="580" rx="0" ry="0" height="123"/>
            <rect x="810" y="10" clip-path="url(#clipPath9)" fill="url(#linearGradient2)" width="361" height="121" stroke="none"/>
            <text x="952" xml:space="preserve" y="57" clip-path="url(#clipPath10)" stroke="none">«DataType»</text>
            <text x="955" xml:space="preserve" y="78" clip-path="url(#clipPath11)" stroke="none">Probability</text>
            <text x="881" xml:space="preserve" y="99" clip-path="url(#clipPath12)" stroke="none">(Megamodel::Domains::Statistics)</text>
            <rect x="810" y="10" clip-path="url(#clipPath13)" fill="none" width="360" rx="0" ry="0" height="120"/>
        </g>
    </g>
</svg>
