<?xml version="1.0" encoding="UTF-8"?><svg xmlns="http://www.w3.org/2000/svg" xmlns:xlink="http://www.w3.org/1999/xlink" stroke-dasharray="none" shape-rendering="auto" font-family="'Dialog'" width="800" text-rendering="auto" fill-opacity="1" contentScriptType="text/ecmascript" color-interpolation="auto" color-rendering="auto" preserveAspectRatio="xMidYMid meet" font-size="12px" viewBox="0 0 800 133" fill="black" stroke="black" image-rendering="auto" stroke-miterlimit="10" zoomAndPan="magnify" version="1.0" stroke-linecap="square" stroke-linejoin="miter" contentStyleType="text/css" font-style="normal" height="133" stroke-width="1" stroke-dashoffset="0" font-weight="normal" stroke-opacity="1">
    <!--Generated by the Batik Graphics2D SVG Generator-->
    <defs id="genericDefs"/>
    <g>
        <defs id="defs1">
            <linearGradient x1="10" x2="10" y1="23" gradientUnits="userSpaceOnUse" y2="123" xlink:type="simple" xlink:actuate="onLoad" id="linearGradient1" xlink:show="other" spreadMethod="pad">
                <stop stop-opacity="1" stop-color="white" offset="0%"/>
                <stop stop-opacity="1" stop-color="rgb(195,215,221)" offset="100%"/>
            </linearGradient>
            <linearGradient x1="690" x2="690" y1="23" gradientUnits="userSpaceOnUse" y2="123" xlink:type="simple" xlink:actuate="onLoad" id="linearGradient2" xlink:show="other" spreadMethod="pad">
                <stop stop-opacity="1" stop-color="white" offset="0%"/>
                <stop stop-opacity="1" stop-color="rgb(195,215,221)" offset="100%"/>
            </linearGradient>
            <clipPath clipPathUnits="userSpaceOnUse" id="clipPath1">
                <path d="M10 23 L10 122 L109 122 L109 23 Z"/>
            </clipPath>
            <clipPath clipPathUnits="userSpaceOnUse" id="clipPath2">
                <path d="M32 62 L89 62 L89 84 L32 84 L32 62 Z"/>
            </clipPath>
            <clipPath clipPathUnits="userSpaceOnUse" id="clipPath3">
                <path d="M9 22 L111 22 L111 124 L9 124 L9 22 Z"/>
            </clipPath>
            <clipPath clipPathUnits="userSpaceOnUse" id="clipPath4">
                <path d="M690 23 L690 122 L789 122 L789 23 Z"/>
            </clipPath>
            <clipPath clipPathUnits="userSpaceOnUse" id="clipPath5">
                <path d="M712 62 L769 62 L769 84 L712 84 L712 62 Z"/>
            </clipPath>
            <clipPath clipPathUnits="userSpaceOnUse" id="clipPath6">
                <path d="M689 22 L791 22 L791 124 L689 124 L689 22 Z"/>
            </clipPath>
            <clipPath clipPathUnits="userSpaceOnUse" id="clipPath7">
                <path d="M-1 -1 L801 -1 L801 134 L-1 134 L-1 -1 Z"/>
            </clipPath>
            <clipPath clipPathUnits="userSpaceOnUse" id="clipPath8">
                <path d="M116 22 L561 22 L561 44 L116 44 L116 22 Z"/>
            </clipPath>
            <clipPath clipPathUnits="userSpaceOnUse" id="clipPath9">
                <path d="M255 82 L685 82 L685 104 L255 104 L255 82 Z"/>
            </clipPath>
            <clipPath clipPathUnits="userSpaceOnUse" id="clipPath10">
                <path d="M129 82 L142 82 L142 104 L129 104 L129 82 Z"/>
            </clipPath>
            <clipPath clipPathUnits="userSpaceOnUse" id="clipPath11">
                <path d="M649 22 L662 22 L662 44 L649 44 L649 22 Z"/>
            </clipPath>
            <clipPath clipPathUnits="userSpaceOnUse" id="clipPath12">
                <path d="M109 56 L130 56 L130 71 L109 71 L109 56 Z"/>
            </clipPath>
            <clipPath clipPathUnits="userSpaceOnUse" id="clipPath13">
                <path d="M671 56 L692 56 L692 71 L671 71 L671 56 Z"/>
            </clipPath>
        </defs>
        <g font-size="15px" fill="url(#linearGradient1)" font-family="'Segoe UI'" stroke-linejoin="round" stroke="url(#linearGradient1)" stroke-width="0" stroke-miterlimit="0">
            <rect x="10" width="100" height="100" y="23" clip-path="url(#clipPath1)" stroke="none"/>
            <text fill="black" x="33" xml:space="preserve" y="80" clip-path="url(#clipPath2)" stroke="none">Element</text>
        </g>
        <g font-size="15px" stroke-width="1.1" font-family="'Segoe UI'" stroke-linecap="butt">
            <rect x="10" y="23" clip-path="url(#clipPath3)" fill="none" width="99" rx="0" ry="0" height="99"/>
            <rect x="690" y="23" clip-path="url(#clipPath4)" fill="url(#linearGradient2)" width="100" height="100" stroke="none"/>
            <text x="713" xml:space="preserve" y="80" clip-path="url(#clipPath5)" stroke="none">Element</text>
            <rect x="690" y="23" clip-path="url(#clipPath6)" fill="none" width="99" rx="0" ry="0" height="99"/>
            <line clip-path="url(#clipPath7)" fill="none" text-rendering="optimizeLegibility" x1="110" x2="690" y1="63" y2="63"/>
            <text text-rendering="optimizeLegibility" x="117" xml:space="preserve" y="40" clip-path="url(#clipPath8)" stroke="none"> +/ linkRealizedBy {readOnly, union, unique, subsets linkedElement}</text>
            <text text-rendering="optimizeLegibility" x="256" xml:space="preserve" y="100" clip-path="url(#clipPath9)" stroke="none"> +/ linkRealizes {readOnly, union, unique, subsets linkingElement}</text>
            <text text-rendering="optimizeLegibility" x="130" xml:space="preserve" y="100" clip-path="url(#clipPath10)" stroke="none"> *</text>
            <text text-rendering="optimizeLegibility" x="650" xml:space="preserve" y="40" clip-path="url(#clipPath11)" stroke="none"> *</text>
            <polygon text-rendering="optimizeLegibility" clip-path="url(#clipPath12)" points=" 110 62 112 60 114 60 116 62 116 63 128 57 116 63 128 69 116 63 116 64 114 66 112 66 110 64" stroke="none"/>
            <polygon fill="none" text-rendering="optimizeLegibility" clip-path="url(#clipPath12)" points=" 110 62 112 60 114 60 116 62 116 63 128 57 116 63 128 69 116 63 116 64 114 66 112 66 110 64"/>
            <polygon text-rendering="optimizeLegibility" clip-path="url(#clipPath13)" points=" 690 64 688 66 686 66 684 64 684 63 672 69 684 63 672 57 684 63 684 62 686 60 688 60 690 62" stroke="none"/>
            <polygon fill="none" text-rendering="optimizeLegibility" clip-path="url(#clipPath13)" points=" 690 64 688 66 686 66 684 64 684 63 672 69 684 63 672 57 684 63 684 62 686 60 688 60 690 62"/>
        </g>
    </g>
</svg>
