<?xml version="1.0" encoding="UTF-8"?><svg xmlns="http://www.w3.org/2000/svg" xmlns:xlink="http://www.w3.org/1999/xlink" stroke-dasharray="none" shape-rendering="auto" font-family="'Dialog'" width="301" text-rendering="auto" fill-opacity="1" contentScriptType="text/ecmascript" color-interpolation="auto" color-rendering="auto" preserveAspectRatio="xMidYMid meet" font-size="12px" viewBox="0 0 301 122" fill="black" stroke="black" image-rendering="auto" stroke-miterlimit="10" zoomAndPan="magnify" version="1.0" stroke-linecap="square" stroke-linejoin="miter" contentStyleType="text/css" font-style="normal" height="122" stroke-width="1" stroke-dashoffset="0" font-weight="normal" stroke-opacity="1">
    <!--Generated by the Batik Graphics2D SVG Generator-->
    <defs id="genericDefs"/>
    <g>
        <defs id="defs1">
            <linearGradient x1="10" x2="10" y1="10" gradientUnits="userSpaceOnUse" y2="112" xlink:type="simple" xlink:actuate="onLoad" id="linearGradient1" xlink:show="other" spreadMethod="pad">
                <stop stop-opacity="1" stop-color="white" offset="0%"/>
                <stop stop-opacity="1" stop-color="rgb(195,209,213)" offset="100%"/>
            </linearGradient>
            <clipPath clipPathUnits="userSpaceOnUse" id="clipPath1">
                <path d="M10 10 L10 111 L290 111 L290 10 Z"/>
            </clipPath>
            <clipPath clipPathUnits="userSpaceOnUse" id="clipPath2">
                <path d="M111 12 L192 12 L192 34 L111 34 L111 12 Z"/>
            </clipPath>
            <clipPath clipPathUnits="userSpaceOnUse" id="clipPath3">
                <path d="M114 33 L189 33 L189 55 L114 55 L114 33 Z"/>
            </clipPath>
            <clipPath clipPathUnits="userSpaceOnUse" id="clipPath4">
                <path d="M10 54 L292 54 L292 78 L10 78 L10 54 Z"/>
            </clipPath>
            <clipPath clipPathUnits="userSpaceOnUse" id="clipPath5">
                <path d="M15 79 L172 79 L172 101 L15 101 L15 79 Z"/>
            </clipPath>
            <clipPath clipPathUnits="userSpaceOnUse" id="clipPath6">
                <path d="M10 77 L292 77 L292 113 L10 113 L10 77 Z"/>
            </clipPath>
            <clipPath clipPathUnits="userSpaceOnUse" id="clipPath7">
                <path d="M9 9 L292 9 L292 113 L9 113 L9 9 Z"/>
            </clipPath>
        </defs>
        <g font-size="15px" fill="url(#linearGradient1)" font-family="'Segoe UI'" stroke-linejoin="round" stroke="url(#linearGradient1)" stroke-width="0" stroke-miterlimit="0">
            <rect x="10" width="281" height="102" y="10" clip-path="url(#clipPath1)" stroke="none"/>
            <text fill="black" x="112" xml:space="preserve" y="30" clip-path="url(#clipPath2)" stroke="none">«DataType»</text>
            <text fill="black" x="115" xml:space="preserve" y="51" clip-path="url(#clipPath3)" stroke="none">Probability</text>
        </g>
        <g font-size="15px" stroke-width="1.1" font-family="'Segoe UI'" stroke-linecap="butt">
            <line y2="55" fill="none" x1="10" clip-path="url(#clipPath4)" x2="291" y1="55"/>
            <text x="16" xml:space="preserve" y="97" clip-path="url(#clipPath5)" stroke="none"> + toDouble(): EDouble</text>
            <line y2="78" fill="none" x1="10" clip-path="url(#clipPath6)" x2="291" y1="78"/>
            <rect x="10" y="10" clip-path="url(#clipPath7)" fill="none" width="280" rx="0" ry="0" height="101"/>
        </g>
    </g>
</svg>
