<?xml version="1.0" encoding="UTF-8"?><svg xmlns="http://www.w3.org/2000/svg" xmlns:xlink="http://www.w3.org/1999/xlink" stroke-dasharray="none" shape-rendering="auto" font-family="'Dialog'" width="1040" text-rendering="auto" fill-opacity="1" contentScriptType="text/ecmascript" color-interpolation="auto" color-rendering="auto" preserveAspectRatio="xMidYMid meet" font-size="12px" viewBox="0 0 1040 500" fill="black" stroke="black" image-rendering="auto" stroke-miterlimit="10" zoomAndPan="magnify" version="1.0" stroke-linecap="square" stroke-linejoin="miter" contentStyleType="text/css" font-style="normal" height="500" stroke-width="1" stroke-dashoffset="0" font-weight="normal" stroke-opacity="1">
    <!--Generated by the Batik Graphics2D SVG Generator-->
    <defs id="genericDefs"/>
    <g>
        <defs id="defs1">
            <linearGradient x1="870" x2="870" y1="10" gradientUnits="userSpaceOnUse" y2="111" xlink:type="simple" xlink:actuate="onLoad" id="linearGradient1" xlink:show="other" spreadMethod="pad">
                <stop stop-opacity="1" stop-color="white" offset="0%"/>
                <stop stop-opacity="1" stop-color="rgb(195,209,213)" offset="100%"/>
            </linearGradient>
            <linearGradient x1="10" x2="10" y1="90" gradientUnits="userSpaceOnUse" y2="207" xlink:type="simple" xlink:actuate="onLoad" id="linearGradient2" xlink:show="other" spreadMethod="pad">
                <stop stop-opacity="1" stop-color="white" offset="0%"/>
                <stop stop-opacity="1" stop-color="rgb(195,215,221)" offset="100%"/>
            </linearGradient>
            <linearGradient x1="570" x2="570" y1="390" gradientUnits="userSpaceOnUse" y2="490" xlink:type="simple" xlink:actuate="onLoad" id="linearGradient3" xlink:show="other" spreadMethod="pad">
                <stop stop-opacity="1" stop-color="white" offset="0%"/>
                <stop stop-opacity="1" stop-color="rgb(195,215,221)" offset="100%"/>
            </linearGradient>
            <clipPath clipPathUnits="userSpaceOnUse" id="clipPath1">
                <path d="M870 10 L870 110 L1029 110 L1029 10 Z"/>
            </clipPath>
            <clipPath clipPathUnits="userSpaceOnUse" id="clipPath2">
                <path d="M910 39 L991 39 L991 61 L910 61 L910 39 Z"/>
            </clipPath>
            <clipPath clipPathUnits="userSpaceOnUse" id="clipPath3">
                <path d="M932 60 L969 60 L969 82 L932 82 L932 60 Z"/>
            </clipPath>
            <clipPath clipPathUnits="userSpaceOnUse" id="clipPath4">
                <path d="M869 9 L1031 9 L1031 112 L869 112 L869 9 Z"/>
            </clipPath>
            <clipPath clipPathUnits="userSpaceOnUse" id="clipPath5">
                <path d="M10 90 L10 206 L209 206 L209 90 Z"/>
            </clipPath>
            <clipPath clipPathUnits="userSpaceOnUse" id="clipPath6">
                <path d="M83 92 L139 92 L139 114 L83 114 L83 92 Z"/>
            </clipPath>
            <clipPath clipPathUnits="userSpaceOnUse" id="clipPath7">
                <path d="M15 115 L134 115 L134 137 L15 137 L15 115 Z"/>
            </clipPath>
            <clipPath clipPathUnits="userSpaceOnUse" id="clipPath8">
                <path d="M15 135 L140 135 L140 157 L15 157 L15 135 Z"/>
            </clipPath>
            <clipPath clipPathUnits="userSpaceOnUse" id="clipPath9">
                <path d="M10 113 L211 113 L211 180 L10 180 L10 113 Z"/>
            </clipPath>
            <clipPath clipPathUnits="userSpaceOnUse" id="clipPath10">
                <path d="M10 179 L211 179 L211 207 L10 207 L10 179 Z"/>
            </clipPath>
            <clipPath clipPathUnits="userSpaceOnUse" id="clipPath11">
                <path d="M9 89 L211 89 L211 208 L9 208 L9 89 Z"/>
            </clipPath>
            <clipPath clipPathUnits="userSpaceOnUse" id="clipPath12">
                <path d="M570 390 L570 489 L721 489 L721 390 Z"/>
            </clipPath>
            <clipPath clipPathUnits="userSpaceOnUse" id="clipPath13">
                <path d="M613 392 L681 392 L681 414 L613 414 L613 392 Z"/>
            </clipPath>
            <clipPath clipPathUnits="userSpaceOnUse" id="clipPath14">
                <path d="M575 415 L719 415 L719 437 L575 437 L575 415 Z"/>
            </clipPath>
            <clipPath clipPathUnits="userSpaceOnUse" id="clipPath15">
                <path d="M570 413 L723 413 L723 460 L570 460 L570 413 Z"/>
            </clipPath>
            <clipPath clipPathUnits="userSpaceOnUse" id="clipPath16">
                <path d="M570 459 L723 459 L723 491 L570 491 L570 459 Z"/>
            </clipPath>
            <clipPath clipPathUnits="userSpaceOnUse" id="clipPath17">
                <path d="M569 389 L723 389 L723 491 L569 491 L569 389 Z"/>
            </clipPath>
            <clipPath clipPathUnits="userSpaceOnUse" id="clipPath18">
                <path d="M-1 -1 L1041 -1 L1041 501 L-1 501 L-1 -1 Z"/>
            </clipPath>
            <clipPath clipPathUnits="userSpaceOnUse" id="clipPath19">
                <path d="M229 149 L414 149 L414 171 L229 171 L229 149 Z"/>
            </clipPath>
            <clipPath clipPathUnits="userSpaceOnUse" id="clipPath20">
                <path d="M143 266 L438 266 L438 288 L143 288 L143 266 Z"/>
            </clipPath>
            <clipPath clipPathUnits="userSpaceOnUse" id="clipPath21">
                <path d="M229 179 L258 179 L258 201 L229 201 L229 179 Z"/>
            </clipPath>
            <clipPath clipPathUnits="userSpaceOnUse" id="clipPath22">
                <path d="M149 206 L162 206 L162 228 L149 228 L149 206 Z"/>
            </clipPath>
            <clipPath clipPathUnits="userSpaceOnUse" id="clipPath23">
                <path d="M209 163 L252 163 L252 178 L209 178 L209 163 Z"/>
            </clipPath>
            <clipPath clipPathUnits="userSpaceOnUse" id="clipPath24">
                <path d="M163 206 L178 206 L178 227 L163 227 L163 206 Z"/>
            </clipPath>
            <clipPath clipPathUnits="userSpaceOnUse" id="clipPath25">
                <path d="M732 353 L816 353 L816 375 L732 375 L732 353 Z"/>
            </clipPath>
            <clipPath clipPathUnits="userSpaceOnUse" id="clipPath26">
                <path d="M169 48 L312 48 L312 70 L169 70 L169 48 Z"/>
            </clipPath>
            <clipPath clipPathUnits="userSpaceOnUse" id="clipPath27">
                <path d="M694 349 L707 349 L707 371 L694 371 L694 349 Z"/>
            </clipPath>
            <clipPath clipPathUnits="userSpaceOnUse" id="clipPath28">
                <path d="M129 48 L144 48 L144 70 L129 70 L129 48 Z"/>
            </clipPath>
            <clipPath clipPathUnits="userSpaceOnUse" id="clipPath29">
                <path d="M143 71 L158 71 L158 92 L143 92 L143 71 Z"/>
            </clipPath>
            <clipPath clipPathUnits="userSpaceOnUse" id="clipPath30">
                <path d="M228 92 L458 92 L458 114 L228 114 L228 92 Z"/>
            </clipPath>
            <clipPath clipPathUnits="userSpaceOnUse" id="clipPath31">
                <path d="M273 367 L620 367 L620 389 L273 389 L273 367 Z"/>
            </clipPath>
            <clipPath clipPathUnits="userSpaceOnUse" id="clipPath32">
                <path d="M222 111 L251 111 L251 133 L222 133 L222 111 Z"/>
            </clipPath>
            <clipPath clipPathUnits="userSpaceOnUse" id="clipPath33">
                <path d="M666 370 L679 370 L679 392 L666 392 L666 370 Z"/>
            </clipPath>
            <clipPath clipPathUnits="userSpaceOnUse" id="clipPath34">
                <path d="M209 106 L252 106 L252 121 L209 121 L209 106 Z"/>
            </clipPath>
            <clipPath clipPathUnits="userSpaceOnUse" id="clipPath35">
                <path d="M640 371 L655 371 L655 392 L640 392 L640 371 Z"/>
            </clipPath>
        </defs>
        <g font-size="15px" fill="url(#linearGradient1)" font-family="'Segoe UI'" stroke-linejoin="round" stroke="url(#linearGradient1)" stroke-width="0" stroke-miterlimit="0">
            <rect x="870" width="160" height="101" y="10" clip-path="url(#clipPath1)" stroke="none"/>
            <text fill="black" x="911" xml:space="preserve" y="57" clip-path="url(#clipPath2)" stroke="none">«DataType»</text>
            <text fill="black" x="933" xml:space="preserve" y="78" clip-path="url(#clipPath3)" stroke="none">UUID</text>
        </g>
        <g font-size="15px" stroke-width="1.1" font-family="'Segoe UI'" stroke-linecap="butt">
            <rect x="870" y="10" clip-path="url(#clipPath4)" fill="none" width="159" rx="0" ry="0" height="100"/>
            <rect x="10" y="90" clip-path="url(#clipPath5)" fill="url(#linearGradient2)" width="200" height="117" stroke="none"/>
            <text font-style="italic" x="84" xml:space="preserve" y="110" clip-path="url(#clipPath6)" stroke="none">Element</text>
            <text x="16" xml:space="preserve" y="133" clip-path="url(#clipPath7)" stroke="none"> + UUID: UUID [1]</text>
            <text x="16" xml:space="preserve" y="153" clip-path="url(#clipPath8)" stroke="none"> + ID: EString [0..1]</text>
            <line y2="114" fill="none" x1="10" clip-path="url(#clipPath9)" x2="210" y1="114"/>
            <line y2="180" fill="none" x1="10" clip-path="url(#clipPath10)" x2="210" y1="180"/>
            <rect x="10" y="90" clip-path="url(#clipPath11)" fill="none" width="199" rx="0" ry="0" height="116"/>
            <rect x="570" y="390" clip-path="url(#clipPath12)" fill="url(#linearGradient3)" width="152" height="100" stroke="none"/>
            <text x="614" xml:space="preserve" y="410" clip-path="url(#clipPath13)" stroke="none">Comment</text>
            <text x="576" xml:space="preserve" y="433" clip-path="url(#clipPath14)" stroke="none"> + body: EString [0..1]</text>
            <line y2="414" fill="none" x1="570" clip-path="url(#clipPath15)" x2="722" y1="414"/>
            <line y2="460" fill="none" x1="570" clip-path="url(#clipPath16)" x2="722" y1="460"/>
            <rect x="570" y="390" clip-path="url(#clipPath17)" fill="none" width="151" rx="0" ry="0" height="99"/>
            <line clip-path="url(#clipPath18)" fill="none" text-rendering="optimizeLegibility" x1="210" x2="272" y1="170" y2="170"/>
            <line clip-path="url(#clipPath18)" fill="none" text-rendering="optimizeLegibility" x1="272" x2="272" y1="170" y2="252"/>
            <line clip-path="url(#clipPath18)" fill="none" text-rendering="optimizeLegibility" x1="272" x2="170" y1="252" y2="252"/>
            <line clip-path="url(#clipPath18)" fill="none" text-rendering="optimizeLegibility" x1="170" x2="170" y1="252" y2="207"/>
            <text text-rendering="optimizeLegibility" x="230" xml:space="preserve" y="167" clip-path="url(#clipPath19)" stroke="none"> +/ owner {readOnly, union}</text>
            <text text-rendering="optimizeLegibility" x="144" xml:space="preserve" y="284" clip-path="url(#clipPath20)" stroke="none"> +/ ownedElement {readOnly, union, unique}</text>
            <text text-rendering="optimizeLegibility" x="230" xml:space="preserve" y="197" clip-path="url(#clipPath21)" stroke="none"> 0..1</text>
            <text text-rendering="optimizeLegibility" x="150" xml:space="preserve" y="224" clip-path="url(#clipPath22)" stroke="none"> *</text>
            <polygon text-rendering="optimizeLegibility" clip-path="url(#clipPath23)" points=" 210 169 212 168 214 168 216 169 216 170 225 166 234 170 250 164 234 170 250 176 234 170 225 175 216 170 216 171 214 172 212 172 210 171" stroke="none"/>
            <polygon fill="none" text-rendering="optimizeLegibility" clip-path="url(#clipPath23)" points=" 210 169 212 168 214 168 216 169 216 170 225 166 234 170 250 164 234 170 250 176 234 170 225 175 216 170 216 171 214 172 212 172 210 171"/>
            <polygon text-rendering="optimizeLegibility" clip-path="url(#clipPath24)" points=" 171 207 173 209 173 211 171 213 170 213 176 225 170 213 164 225 170 213 169 213 167 211 167 209 169 207" stroke="none"/>
            <polygon fill="none" text-rendering="optimizeLegibility" clip-path="url(#clipPath24)" points=" 171 207 173 209 173 211 171 213 170 213 176 225 170 213 164 225 170 213 169 213 167 211 167 209 169 207"/>
            <line clip-path="url(#clipPath18)" fill="none" text-rendering="optimizeLegibility" x1="712" x2="730" y1="390" y2="30"/>
            <line clip-path="url(#clipPath18)" fill="none" text-rendering="optimizeLegibility" x1="730" x2="150" y1="30" y2="30"/>
            <line clip-path="url(#clipPath18)" fill="none" text-rendering="optimizeLegibility" x1="150" x2="150" y1="30" y2="90"/>
            <text text-rendering="optimizeLegibility" x="733" xml:space="preserve" y="371" clip-path="url(#clipPath25)" stroke="none"> + comment</text>
            <text text-rendering="optimizeLegibility" x="170" xml:space="preserve" y="66" clip-path="url(#clipPath26)" stroke="none"> + annotatedElement</text>
            <text text-rendering="optimizeLegibility" x="695" xml:space="preserve" y="367" clip-path="url(#clipPath27)" stroke="none"> *</text>
            <text text-rendering="optimizeLegibility" x="130" xml:space="preserve" y="66" clip-path="url(#clipPath28)" stroke="none"> 1</text>
            <polygon text-rendering="optimizeLegibility" clip-path="url(#clipPath29)" points=" 149 90 147 88 147 86 149 84 150 84 144 72 150 84 156 72 150 84 151 84 153 86 153 88 151 90" stroke="none"/>
            <polygon fill="none" text-rendering="optimizeLegibility" clip-path="url(#clipPath29)" points=" 149 90 147 88 147 86 149 84 150 84 144 72 150 84 156 72 150 84 151 84 153 86 153 88 151 90"/>
            <line clip-path="url(#clipPath18)" fill="none" text-rendering="optimizeLegibility" x1="210" x2="650" y1="113" y2="110"/>
            <line clip-path="url(#clipPath18)" fill="none" text-rendering="optimizeLegibility" x1="650" x2="647" y1="110" y2="390"/>
            <text text-rendering="optimizeLegibility" x="229" xml:space="preserve" y="110" clip-path="url(#clipPath30)" stroke="none"> + owningElement {subsets owner}</text>
            <text text-rendering="optimizeLegibility" x="274" xml:space="preserve" y="385" clip-path="url(#clipPath31)" stroke="none"> + ownedComment {unique, subsets ownedElement}</text>
            <text text-rendering="optimizeLegibility" x="223" xml:space="preserve" y="129" clip-path="url(#clipPath32)" stroke="none"> 0..1</text>
            <text text-rendering="optimizeLegibility" x="667" xml:space="preserve" y="388" clip-path="url(#clipPath33)" stroke="none"> *</text>
            <polygon text-rendering="optimizeLegibility" clip-path="url(#clipPath34)" points=" 210 112 212 111 214 111 216 112 216 113 225 108 234 113 250 107 234 113 250 119 234 113 225 117 216 113 216 114 214 115 212 115 210 114" stroke="none"/>
            <polygon fill="none" text-rendering="optimizeLegibility" clip-path="url(#clipPath34)" points=" 210 112 212 111 214 111 216 112 216 113 225 108 234 113 250 107 234 113 250 119 234 113 225 117 216 113 216 114 214 115 212 115 210 114"/>
            <polygon text-rendering="optimizeLegibility" clip-path="url(#clipPath35)" points=" 646 390 644 388 644 386 646 384 647 384 641 372 647 384 653 372 647 384 648 384 650 386 650 388 648 390" stroke="none"/>
            <polygon fill="none" text-rendering="optimizeLegibility" clip-path="url(#clipPath35)" points=" 646 390 644 388 644 386 646 384 647 384 641 372 647 384 653 372 647 384 648 384 650 386 650 388 648 390"/>
        </g>
    </g>
</svg>
