<?xml version="1.0" encoding="UTF-8"?><svg xmlns="http://www.w3.org/2000/svg" xmlns:xlink="http://www.w3.org/1999/xlink" stroke-dasharray="none" shape-rendering="auto" font-family="'Dialog'" width="2021" text-rendering="auto" fill-opacity="1" contentScriptType="text/ecmascript" color-interpolation="auto" color-rendering="auto" preserveAspectRatio="xMidYMid meet" font-size="12px" viewBox="0 0 2021 322" fill="black" stroke="black" image-rendering="auto" stroke-miterlimit="10" zoomAndPan="magnify" version="1.0" stroke-linecap="square" stroke-linejoin="miter" contentStyleType="text/css" font-style="normal" height="322" stroke-width="1" stroke-dashoffset="0" font-weight="normal" stroke-opacity="1">
    <!--Generated by the Batik Graphics2D SVG Generator-->
    <defs id="genericDefs"/>
    <g>
        <defs id="defs1">
            <linearGradient x1="630" x2="630" y1="190" gradientUnits="userSpaceOnUse" y2="290" xlink:type="simple" xlink:actuate="onLoad" id="linearGradient1" xlink:show="other" spreadMethod="pad">
                <stop stop-opacity="1" stop-color="white" offset="0%"/>
                <stop stop-opacity="1" stop-color="rgb(195,215,221)" offset="100%"/>
            </linearGradient>
            <linearGradient x1="630" x2="630" y1="10" gradientUnits="userSpaceOnUse" y2="110" xlink:type="simple" xlink:actuate="onLoad" id="linearGradient2" xlink:show="other" spreadMethod="pad">
                <stop stop-opacity="1" stop-color="white" offset="0%"/>
                <stop stop-opacity="1" stop-color="rgb(195,215,221)" offset="100%"/>
            </linearGradient>
            <linearGradient x1="1090" x2="1090" y1="10" gradientUnits="userSpaceOnUse" y2="110" xlink:type="simple" xlink:actuate="onLoad" id="linearGradient3" xlink:show="other" spreadMethod="pad">
                <stop stop-opacity="1" stop-color="white" offset="0%"/>
                <stop stop-opacity="1" stop-color="rgb(195,215,221)" offset="100%"/>
            </linearGradient>
            <linearGradient x1="1730" x2="1730" y1="190" gradientUnits="userSpaceOnUse" y2="290" xlink:type="simple" xlink:actuate="onLoad" id="linearGradient4" xlink:show="other" spreadMethod="pad">
                <stop stop-opacity="1" stop-color="white" offset="0%"/>
                <stop stop-opacity="1" stop-color="rgb(195,215,221)" offset="100%"/>
            </linearGradient>
            <linearGradient x1="10" x2="10" y1="190" gradientUnits="userSpaceOnUse" y2="290" xlink:type="simple" xlink:actuate="onLoad" id="linearGradient5" xlink:show="other" spreadMethod="pad">
                <stop stop-opacity="1" stop-color="white" offset="0%"/>
                <stop stop-opacity="1" stop-color="rgb(195,209,213)" offset="100%"/>
            </linearGradient>
            <clipPath clipPathUnits="userSpaceOnUse" id="clipPath1">
                <path d="M630 190 L630 289 L1530 289 L1530 190 Z"/>
            </clipPath>
            <clipPath clipPathUnits="userSpaceOnUse" id="clipPath2">
                <path d="M1038 192 L1124 192 L1124 214 L1038 214 L1038 192 Z"/>
            </clipPath>
            <clipPath clipPathUnits="userSpaceOnUse" id="clipPath3">
                <path d="M630 213 L1532 213 L1532 239 L630 239 L630 213 Z"/>
            </clipPath>
            <clipPath clipPathUnits="userSpaceOnUse" id="clipPath4">
                <path d="M630 238 L1532 238 L1532 264 L630 264 L630 238 Z"/>
            </clipPath>
            <clipPath clipPathUnits="userSpaceOnUse" id="clipPath5">
                <path d="M630 263 L1532 263 L1532 289 L630 289 L630 263 Z"/>
            </clipPath>
            <clipPath clipPathUnits="userSpaceOnUse" id="clipPath6">
                <path d="M629 189 L1532 189 L1532 291 L629 291 L629 189 Z"/>
            </clipPath>
            <clipPath clipPathUnits="userSpaceOnUse" id="clipPath7">
                <path d="M630 10 L630 109 L1070 109 L1070 10 Z"/>
            </clipPath>
            <clipPath clipPathUnits="userSpaceOnUse" id="clipPath8">
                <path d="M729 39 L973 39 L973 61 L729 61 L729 39 Z"/>
            </clipPath>
            <clipPath clipPathUnits="userSpaceOnUse" id="clipPath9">
                <path d="M808 60 L894 60 L894 82 L808 82 L808 60 Z"/>
            </clipPath>
            <clipPath clipPathUnits="userSpaceOnUse" id="clipPath10">
                <path d="M629 9 L1072 9 L1072 111 L629 111 L629 9 Z"/>
            </clipPath>
            <clipPath clipPathUnits="userSpaceOnUse" id="clipPath11">
                <path d="M1090 10 L1090 109 L1530 109 L1530 10 Z"/>
            </clipPath>
            <clipPath clipPathUnits="userSpaceOnUse" id="clipPath12">
                <path d="M1189 39 L1433 39 L1433 61 L1189 61 L1189 39 Z"/>
            </clipPath>
            <clipPath clipPathUnits="userSpaceOnUse" id="clipPath13">
                <path d="M1286 60 L1336 60 L1336 82 L1286 82 L1286 60 Z"/>
            </clipPath>
            <clipPath clipPathUnits="userSpaceOnUse" id="clipPath14">
                <path d="M1089 9 L1532 9 L1532 111 L1089 111 L1089 9 Z"/>
            </clipPath>
            <clipPath clipPathUnits="userSpaceOnUse" id="clipPath15">
                <path d="M1730 190 L1730 289 L2010 289 L2010 190 Z"/>
            </clipPath>
            <clipPath clipPathUnits="userSpaceOnUse" id="clipPath16">
                <path d="M1769 219 L1974 219 L1974 241 L1769 241 L1769 219 Z"/>
            </clipPath>
            <clipPath clipPathUnits="userSpaceOnUse" id="clipPath17">
                <path d="M1859 240 L1884 240 L1884 262 L1859 262 L1859 240 Z"/>
            </clipPath>
            <clipPath clipPathUnits="userSpaceOnUse" id="clipPath18">
                <path d="M1729 189 L2012 189 L2012 291 L1729 291 L1729 189 Z"/>
            </clipPath>
            <clipPath clipPathUnits="userSpaceOnUse" id="clipPath19">
                <path d="M10 190 L10 289 L386 289 L386 190 Z"/>
            </clipPath>
            <clipPath clipPathUnits="userSpaceOnUse" id="clipPath20">
                <path d="M159 209 L240 209 L240 231 L159 231 L159 209 Z"/>
            </clipPath>
            <clipPath clipPathUnits="userSpaceOnUse" id="clipPath21">
                <path d="M169 230 L229 230 L229 252 L169 252 L169 230 Z"/>
            </clipPath>
            <clipPath clipPathUnits="userSpaceOnUse" id="clipPath22">
                <path d="M76 251 L323 251 L323 273 L76 273 L76 251 Z"/>
            </clipPath>
            <clipPath clipPathUnits="userSpaceOnUse" id="clipPath23">
                <path d="M9 189 L388 189 L388 291 L9 291 L9 189 Z"/>
            </clipPath>
            <clipPath clipPathUnits="userSpaceOnUse" id="clipPath24">
                <path d="M-1 -1 L2022 -1 L2022 323 L-1 323 L-1 -1 Z"/>
            </clipPath>
            <clipPath clipPathUnits="userSpaceOnUse" id="clipPath25">
                <path d="M841 109 L860 109 L860 122 L841 122 L841 109 Z"/>
            </clipPath>
            <clipPath clipPathUnits="userSpaceOnUse" id="clipPath26">
                <path d="M1335 111 L1400 111 L1400 133 L1335 133 L1335 111 Z"/>
            </clipPath>
            <clipPath clipPathUnits="userSpaceOnUse" id="clipPath27">
                <path d="M1272 111 L1299 111 L1299 133 L1272 133 L1272 111 Z"/>
            </clipPath>
            <clipPath clipPathUnits="userSpaceOnUse" id="clipPath28">
                <path d="M401 173 L513 173 L513 195 L401 195 L401 173 Z"/>
            </clipPath>
            <clipPath clipPathUnits="userSpaceOnUse" id="clipPath29">
                <path d="M424 217 L439 217 L439 239 L424 239 L424 217 Z"/>
            </clipPath>
            <clipPath clipPathUnits="userSpaceOnUse" id="clipPath30">
                <path d="M386 203 L407 203 L407 218 L386 218 L386 203 Z"/>
            </clipPath>
            <clipPath clipPathUnits="userSpaceOnUse" id="clipPath31">
                <path d="M399 253 L495 253 L495 275 L399 275 L399 253 Z"/>
            </clipPath>
            <clipPath clipPathUnits="userSpaceOnUse" id="clipPath32">
                <path d="M424 277 L439 277 L439 299 L424 299 L424 277 Z"/>
            </clipPath>
            <clipPath clipPathUnits="userSpaceOnUse" id="clipPath33">
                <path d="M386 263 L407 263 L407 278 L386 278 L386 263 Z"/>
            </clipPath>
            <clipPath clipPathUnits="userSpaceOnUse" id="clipPath34">
                <path d="M1557 211 L1659 211 L1659 233 L1557 233 L1557 211 Z"/>
            </clipPath>
            <clipPath clipPathUnits="userSpaceOnUse" id="clipPath35">
                <path d="M1673 271 L1715 271 L1715 293 L1673 293 L1673 271 Z"/>
            </clipPath>
            <clipPath clipPathUnits="userSpaceOnUse" id="clipPath36">
                <path d="M1547 259 L1562 259 L1562 281 L1547 281 L1547 259 Z"/>
            </clipPath>
            <clipPath clipPathUnits="userSpaceOnUse" id="clipPath37">
                <path d="M1699 219 L1714 219 L1714 241 L1699 241 L1699 219 Z"/>
            </clipPath>
            <clipPath clipPathUnits="userSpaceOnUse" id="clipPath38">
                <path d="M1530 243 L1573 243 L1573 258 L1530 258 L1530 243 Z"/>
            </clipPath>
            <clipPath clipPathUnits="userSpaceOnUse" id="clipPath39">
                <path d="M1711 243 L1732 243 L1732 258 L1711 258 L1711 243 Z"/>
            </clipPath>
        </defs>
        <g font-size="15px" fill="url(#linearGradient1)" font-family="'Segoe UI'" stroke-linejoin="round" stroke="url(#linearGradient1)" stroke-width="0" stroke-miterlimit="0">
            <rect x="630" width="901" height="100" y="190" clip-path="url(#clipPath1)" stroke="none"/>
            <text fill="black" x="1039" xml:space="preserve" y="210" clip-path="url(#clipPath2)" stroke="none">Vulnerability</text>
        </g>
        <g font-size="15px" stroke-width="1.1" font-family="'Segoe UI'" stroke-linecap="butt">
            <line y2="214" fill="none" x1="630" clip-path="url(#clipPath3)" x2="1531" y1="214"/>
            <line y2="239" fill="none" x1="630" clip-path="url(#clipPath4)" x2="1531" y1="239"/>
            <line y2="264" fill="none" x1="630" clip-path="url(#clipPath5)" x2="1531" y1="264"/>
            <rect x="630" y="190" clip-path="url(#clipPath6)" fill="none" width="900" rx="0" ry="0" height="99"/>
            <rect x="630" y="10" clip-path="url(#clipPath7)" fill="url(#linearGradient2)" width="441" height="100" stroke="none"/>
            <text x="730" xml:space="preserve" y="57" clip-path="url(#clipPath8)" stroke="none">(Domains::RiskManagement::System)</text>
            <text x="809" xml:space="preserve" y="78" clip-path="url(#clipPath9)" stroke="none">SystemEvent</text>
            <rect x="630" y="10" clip-path="url(#clipPath10)" fill="none" width="440" rx="0" ry="0" height="99"/>
            <rect x="1090" y="10" clip-path="url(#clipPath11)" fill="url(#linearGradient3)" width="441" height="100" stroke="none"/>
            <text x="1190" xml:space="preserve" y="57" clip-path="url(#clipPath12)" stroke="none">(Domains::RiskManagement::System)</text>
            <text x="1287" xml:space="preserve" y="78" clip-path="url(#clipPath13)" stroke="none">Hazard</text>
            <rect x="1090" y="10" clip-path="url(#clipPath14)" fill="none" width="440" rx="0" ry="0" height="99"/>
            <rect x="1730" y="190" clip-path="url(#clipPath15)" fill="url(#linearGradient4)" width="281" height="100" stroke="none"/>
            <text x="1770" xml:space="preserve" y="237" clip-path="url(#clipPath16)" font-family="'Segoe UI Semilight'" stroke="none">(Domains::ProductSecurity::Vex)</text>
            <text x="1860" xml:space="preserve" y="258" clip-path="url(#clipPath17)" font-family="'Segoe UI Semilight'" stroke="none">Vex</text>
            <rect x="1730" y="190" clip-path="url(#clipPath18)" fill="none" width="280" rx="0" ry="0" height="99"/>
            <rect x="10" y="190" clip-path="url(#clipPath19)" fill="url(#linearGradient5)" width="377" height="100" stroke="none"/>
            <text x="160" xml:space="preserve" y="227" clip-path="url(#clipPath20)" stroke="none">«DataType»</text>
            <text x="170" xml:space="preserve" y="248" clip-path="url(#clipPath21)" stroke="none">CVSS 4.0</text>
            <text x="77" xml:space="preserve" y="269" clip-path="url(#clipPath22)" stroke="none">(Domains::ProductSecurity::Common)</text>
            <rect x="10" y="190" clip-path="url(#clipPath23)" fill="none" width="376" rx="0" ry="0" height="99"/>
            <line clip-path="url(#clipPath24)" fill="none" text-rendering="optimizeLegibility" x1="850" x2="850" y1="190" y2="110"/>
            <polygon fill="white" text-rendering="optimizeLegibility" clip-path="url(#clipPath25)" points=" 850 110 858 120 842 120" stroke="none"/>
            <polygon fill="none" text-rendering="optimizeLegibility" clip-path="url(#clipPath25)" points=" 850 110 858 120 842 120"/>
            <line clip-path="url(#clipPath24)" fill="none" text-rendering="optimizeLegibility" x1="1310" x2="1310" y1="190" y2="110"/>
            <text text-rendering="optimizeLegibility" x="1336" xml:space="preserve" y="129" clip-path="url(#clipPath26)" stroke="none"> + hazard</text>
            <text text-rendering="optimizeLegibility" x="1273" xml:space="preserve" y="129" clip-path="url(#clipPath27)" stroke="none"> 1..*</text>
            <line clip-path="url(#clipPath24)" fill="none" text-rendering="optimizeLegibility" x1="630" x2="387" y1="210" y2="210"/>
            <text text-rendering="optimizeLegibility" x="402" xml:space="preserve" y="191" clip-path="url(#clipPath28)" stroke="none"> + cvssUnscoped</text>
            <text text-rendering="optimizeLegibility" x="425" xml:space="preserve" y="235" clip-path="url(#clipPath29)" stroke="none"> 1</text>
            <polygon text-rendering="optimizeLegibility" clip-path="url(#clipPath30)" points=" 387 209 389 207 391 207 393 209 393 210 405 204 393 210 405 216 393 210 393 211 391 213 389 213 387 211" stroke="none"/>
            <polygon fill="none" text-rendering="optimizeLegibility" clip-path="url(#clipPath30)" points=" 387 209 389 207 391 207 393 209 393 210 405 204 393 210 405 216 393 210 393 211 391 213 389 213 387 211"/>
            <line clip-path="url(#clipPath24)" fill="none" text-rendering="optimizeLegibility" x1="630" x2="387" y1="270" y2="270"/>
            <text text-rendering="optimizeLegibility" x="400" xml:space="preserve" y="271" clip-path="url(#clipPath31)" stroke="none"> + cvssScoped</text>
            <text text-rendering="optimizeLegibility" x="425" xml:space="preserve" y="295" clip-path="url(#clipPath32)" stroke="none"> 1</text>
            <polygon text-rendering="optimizeLegibility" clip-path="url(#clipPath33)" points=" 387 269 389 267 391 267 393 269 393 270 405 264 393 270 405 276 393 270 393 271 391 273 389 273 387 271" stroke="none"/>
            <polygon fill="none" text-rendering="optimizeLegibility" clip-path="url(#clipPath33)" points=" 387 269 389 267 391 267 393 269 393 270 405 264 393 270 405 276 393 270 393 271 391 273 389 273 387 271"/>
            <line clip-path="url(#clipPath24)" fill="none" text-rendering="optimizeLegibility" x1="1531" x2="1730" y1="250" y2="250"/>
            <text text-rendering="optimizeLegibility" x="1558" xml:space="preserve" y="229" clip-path="url(#clipPath34)" stroke="none"> + vulnerability</text>
            <text text-rendering="optimizeLegibility" x="1674" xml:space="preserve" y="289" clip-path="url(#clipPath35)" stroke="none"> + vex</text>
            <text text-rendering="optimizeLegibility" x="1548" xml:space="preserve" y="277" clip-path="url(#clipPath36)" stroke="none"> 1</text>
            <text text-rendering="optimizeLegibility" x="1700" xml:space="preserve" y="237" clip-path="url(#clipPath37)" stroke="none"> 1</text>
            <polygon text-rendering="optimizeLegibility" clip-path="url(#clipPath38)" points=" 1531 249 1533 248 1535 248 1537 249 1537 250 1546 246 1555 250 1571 244 1555 250 1571 256 1555 250 1546 255 1537 250 1537 251 1535 252 1533 252 1531 251" stroke="none"/>
            <polygon fill="none" text-rendering="optimizeLegibility" clip-path="url(#clipPath38)" points=" 1531 249 1533 248 1535 248 1537 249 1537 250 1546 246 1555 250 1571 244 1555 250 1571 256 1555 250 1546 255 1537 250 1537 251 1535 252 1533 252 1531 251"/>
            <polygon text-rendering="optimizeLegibility" clip-path="url(#clipPath39)" points=" 1730 251 1728 253 1726 253 1724 251 1724 250 1712 256 1724 250 1712 244 1724 250 1724 249 1726 247 1728 247 1730 249" stroke="none"/>
            <polygon fill="none" text-rendering="optimizeLegibility" clip-path="url(#clipPath39)" points=" 1730 251 1728 253 1726 253 1724 251 1724 250 1712 256 1724 250 1712 244 1724 250 1724 249 1726 247 1728 247 1730 249"/>
        </g>
    </g>
</svg>
