<?xml version="1.0" encoding="UTF-8"?><svg xmlns="http://www.w3.org/2000/svg" xmlns:xlink="http://www.w3.org/1999/xlink" stroke-dasharray="none" shape-rendering="auto" font-family="'Dialog'" width="701" text-rendering="auto" fill-opacity="1" contentScriptType="text/ecmascript" color-interpolation="auto" color-rendering="auto" preserveAspectRatio="xMidYMid meet" font-size="12px" viewBox="0 0 701 601" fill="black" stroke="black" image-rendering="auto" stroke-miterlimit="10" zoomAndPan="magnify" version="1.0" stroke-linecap="square" stroke-linejoin="miter" contentStyleType="text/css" font-style="normal" height="601" stroke-width="1" stroke-dashoffset="0" font-weight="normal" stroke-opacity="1">
    <!--Generated by the Batik Graphics2D SVG Generator-->
    <defs id="genericDefs"/>
    <g>
        <defs id="defs1">
            <linearGradient x1="10" x2="10" y1="10" gradientUnits="userSpaceOnUse" y2="211" xlink:type="simple" xlink:actuate="onLoad" id="linearGradient1" xlink:show="other" spreadMethod="pad">
                <stop stop-opacity="1" stop-color="white" offset="0%"/>
                <stop stop-opacity="1" stop-color="rgb(195,215,221)" offset="100%"/>
            </linearGradient>
            <linearGradient x1="330" x2="330" y1="370" gradientUnits="userSpaceOnUse" y2="550" xlink:type="simple" xlink:actuate="onLoad" id="linearGradient2" xlink:show="other" spreadMethod="pad">
                <stop stop-opacity="1" stop-color="white" offset="0%"/>
                <stop stop-opacity="1" stop-color="rgb(195,209,213)" offset="100%"/>
            </linearGradient>
            <linearGradient x1="10" x2="10" y1="370" gradientUnits="userSpaceOnUse" y2="591" xlink:type="simple" xlink:actuate="onLoad" id="linearGradient3" xlink:show="other" spreadMethod="pad">
                <stop stop-opacity="1" stop-color="white" offset="0%"/>
                <stop stop-opacity="1" stop-color="rgb(195,209,213)" offset="100%"/>
            </linearGradient>
            <clipPath clipPathUnits="userSpaceOnUse" id="clipPath1">
                <path d="M10 10 L10 210 L690 210 L690 10 Z"/>
            </clipPath>
            <clipPath clipPathUnits="userSpaceOnUse" id="clipPath2">
                <path d="M339 12 L364 12 L364 34 L339 34 L339 12 Z"/>
            </clipPath>
            <clipPath clipPathUnits="userSpaceOnUse" id="clipPath3">
                <path d="M10 33 L692 33 L692 123 L10 123 L10 33 Z"/>
            </clipPath>
            <clipPath clipPathUnits="userSpaceOnUse" id="clipPath4">
                <path d="M10 122 L692 122 L692 212 L10 212 L10 122 Z"/>
            </clipPath>
            <clipPath clipPathUnits="userSpaceOnUse" id="clipPath5">
                <path d="M9 9 L692 9 L692 212 L9 212 L9 9 Z"/>
            </clipPath>
            <clipPath clipPathUnits="userSpaceOnUse" id="clipPath6">
                <path d="M330 370 L330 549 L661 549 L661 370 Z"/>
            </clipPath>
            <clipPath clipPathUnits="userSpaceOnUse" id="clipPath7">
                <path d="M446 372 L548 372 L548 394 L446 394 L446 372 Z"/>
            </clipPath>
            <clipPath clipPathUnits="userSpaceOnUse" id="clipPath8">
                <path d="M425 393 L569 393 L569 415 L425 415 L425 393 Z"/>
            </clipPath>
            <clipPath clipPathUnits="userSpaceOnUse" id="clipPath9">
                <path d="M335 416 L434 416 L434 438 L335 438 L335 416 Z"/>
            </clipPath>
            <clipPath clipPathUnits="userSpaceOnUse" id="clipPath10">
                <path d="M335 436 L489 436 L489 458 L335 458 L335 436 Z"/>
            </clipPath>
            <clipPath clipPathUnits="userSpaceOnUse" id="clipPath11">
                <path d="M335 456 L517 456 L517 478 L335 478 L335 456 Z"/>
            </clipPath>
            <clipPath clipPathUnits="userSpaceOnUse" id="clipPath12">
                <path d="M335 476 L659 476 L659 498 L335 498 L335 476 Z"/>
            </clipPath>
            <clipPath clipPathUnits="userSpaceOnUse" id="clipPath13">
                <path d="M335 496 L560 496 L560 518 L335 518 L335 496 Z"/>
            </clipPath>
            <clipPath clipPathUnits="userSpaceOnUse" id="clipPath14">
                <path d="M335 516 L530 516 L530 538 L335 538 L335 516 Z"/>
            </clipPath>
            <clipPath clipPathUnits="userSpaceOnUse" id="clipPath15">
                <path d="M330 414 L663 414 L663 551 L330 551 L330 414 Z"/>
            </clipPath>
            <clipPath clipPathUnits="userSpaceOnUse" id="clipPath16">
                <path d="M329 369 L663 369 L663 551 L329 551 L329 369 Z"/>
            </clipPath>
            <clipPath clipPathUnits="userSpaceOnUse" id="clipPath17">
                <path d="M10 370 L10 590 L210 590 L210 370 Z"/>
            </clipPath>
            <clipPath clipPathUnits="userSpaceOnUse" id="clipPath18">
                <path d="M60 372 L162 372 L162 394 L60 394 L60 372 Z"/>
            </clipPath>
            <clipPath clipPathUnits="userSpaceOnUse" id="clipPath19">
                <path d="M78 393 L144 393 L144 415 L78 415 L78 393 Z"/>
            </clipPath>
            <clipPath clipPathUnits="userSpaceOnUse" id="clipPath20">
                <path d="M15 416 L95 416 L95 438 L15 438 L15 416 Z"/>
            </clipPath>
            <clipPath clipPathUnits="userSpaceOnUse" id="clipPath21">
                <path d="M15 436 L143 436 L143 458 L15 458 L15 436 Z"/>
            </clipPath>
            <clipPath clipPathUnits="userSpaceOnUse" id="clipPath22">
                <path d="M15 456 L74 456 L74 478 L15 478 L15 456 Z"/>
            </clipPath>
            <clipPath clipPathUnits="userSpaceOnUse" id="clipPath23">
                <path d="M15 476 L52 476 L52 498 L15 498 L15 476 Z"/>
            </clipPath>
            <clipPath clipPathUnits="userSpaceOnUse" id="clipPath24">
                <path d="M15 496 L99 496 L99 518 L15 518 L15 496 Z"/>
            </clipPath>
            <clipPath clipPathUnits="userSpaceOnUse" id="clipPath25">
                <path d="M10 414 L212 414 L212 592 L10 592 L10 414 Z"/>
            </clipPath>
            <clipPath clipPathUnits="userSpaceOnUse" id="clipPath26">
                <path d="M9 369 L212 369 L212 592 L9 592 L9 369 Z"/>
            </clipPath>
            <clipPath clipPathUnits="userSpaceOnUse" id="clipPath27">
                <path d="M-1 -1 L702 -1 L702 602 L-1 602 L-1 -1 Z"/>
            </clipPath>
            <clipPath clipPathUnits="userSpaceOnUse" id="clipPath28">
                <path d="M137 331 L220 331 L220 353 L137 353 L137 331 Z"/>
            </clipPath>
            <clipPath clipPathUnits="userSpaceOnUse" id="clipPath29">
                <path d="M70 331 L85 331 L85 353 L70 353 L70 331 Z"/>
            </clipPath>
            <clipPath clipPathUnits="userSpaceOnUse" id="clipPath30">
                <path d="M103 351 L118 351 L118 372 L103 372 L103 351 Z"/>
            </clipPath>
            <clipPath clipPathUnits="userSpaceOnUse" id="clipPath31">
                <path d="M498 318 L659 318 L659 340 L498 340 L498 318 Z"/>
            </clipPath>
            <clipPath clipPathUnits="userSpaceOnUse" id="clipPath32">
                <path d="M426 336 L441 336 L441 358 L426 358 L426 336 Z"/>
            </clipPath>
            <clipPath clipPathUnits="userSpaceOnUse" id="clipPath33">
                <path d="M460 350 L475 350 L475 372 L460 372 L460 350 Z"/>
            </clipPath>
        </defs>
        <g font-size="15px" fill="url(#linearGradient1)" font-family="'Segoe UI'" stroke-linejoin="round" stroke="url(#linearGradient1)" stroke-width="0" stroke-miterlimit="0">
            <rect x="10" width="681" height="201" y="10" clip-path="url(#clipPath1)" stroke="none"/>
            <text fill="black" x="340" xml:space="preserve" y="30" clip-path="url(#clipPath2)" stroke="none">Vex</text>
        </g>
        <g font-size="15px" stroke-width="1.1" font-family="'Segoe UI'" stroke-linecap="butt">
            <line y2="34" fill="none" x1="10" clip-path="url(#clipPath3)" x2="691" y1="34"/>
            <line y2="123" fill="none" x1="10" clip-path="url(#clipPath4)" x2="691" y1="123"/>
            <rect x="10" y="10" clip-path="url(#clipPath5)" fill="none" width="680" rx="0" ry="0" height="200"/>
            <rect x="330" y="370" clip-path="url(#clipPath6)" fill="url(#linearGradient2)" width="332" height="180" stroke="none"/>
            <text x="447" xml:space="preserve" y="390" clip-path="url(#clipPath7)" stroke="none">«Enumeration»</text>
            <text x="426" xml:space="preserve" y="411" clip-path="url(#clipPath8)" stroke="none">VexStatusJustification</text>
            <text x="336" xml:space="preserve" y="434" clip-path="url(#clipPath9)" stroke="none">NotApplicable</text>
            <text x="336" xml:space="preserve" y="454" clip-path="url(#clipPath10)" stroke="none">ComponentNotPresent</text>
            <text x="336" xml:space="preserve" y="474" clip-path="url(#clipPath11)" stroke="none">VulnerableCodeNotPresent</text>
            <text x="336" xml:space="preserve" y="494" clip-path="url(#clipPath12)" stroke="none">VulnerableCodeCannotBeControlledByAdversary</text>
            <text x="336" xml:space="preserve" y="514" clip-path="url(#clipPath13)" stroke="none">VulnerableCodeNotInExecutePath</text>
            <text x="336" xml:space="preserve" y="534" clip-path="url(#clipPath14)" stroke="none">InlineMitigationsAlreadyExist</text>
            <line y2="415" fill="none" x1="330" clip-path="url(#clipPath15)" x2="662" y1="415"/>
            <rect x="330" y="370" clip-path="url(#clipPath16)" fill="none" width="331" rx="0" ry="0" height="179"/>
            <rect x="10" y="370" clip-path="url(#clipPath17)" fill="url(#linearGradient3)" width="201" height="221" stroke="none"/>
            <text x="61" xml:space="preserve" y="390" clip-path="url(#clipPath18)" stroke="none">«Enumeration»</text>
            <text x="79" xml:space="preserve" y="411" clip-path="url(#clipPath19)" stroke="none">VexStatus</text>
            <text x="16" xml:space="preserve" y="434" clip-path="url(#clipPath20)" stroke="none">NotDefined</text>
            <text x="16" xml:space="preserve" y="454" clip-path="url(#clipPath21)" stroke="none">UnderInvestigation</text>
            <text x="16" xml:space="preserve" y="474" clip-path="url(#clipPath22)" stroke="none">Affected</text>
            <text x="16" xml:space="preserve" y="494" clip-path="url(#clipPath23)" stroke="none">Fixed</text>
            <text x="16" xml:space="preserve" y="514" clip-path="url(#clipPath24)" stroke="none">NotAffected</text>
            <line y2="415" fill="none" x1="10" clip-path="url(#clipPath25)" x2="211" y1="415"/>
            <rect x="10" y="370" clip-path="url(#clipPath26)" fill="none" width="200" rx="0" ry="0" height="220"/>
            <line clip-path="url(#clipPath27)" fill="none" text-rendering="optimizeLegibility" x1="110" x2="110" y1="211" y2="370"/>
            <text text-rendering="optimizeLegibility" x="138" xml:space="preserve" y="349" clip-path="url(#clipPath28)" stroke="none"> + vexStatus</text>
            <text text-rendering="optimizeLegibility" x="71" xml:space="preserve" y="349" clip-path="url(#clipPath29)" stroke="none"> 1</text>
            <polygon text-rendering="optimizeLegibility" clip-path="url(#clipPath30)" points=" 109 370 107 368 107 366 109 364 110 364 104 352 110 364 116 352 110 364 111 364 113 366 113 368 111 370" stroke="none"/>
            <polygon fill="none" text-rendering="optimizeLegibility" clip-path="url(#clipPath30)" points=" 109 370 107 368 107 366 109 364 110 364 104 352 110 364 116 352 110 364 111 364 113 366 113 368 111 370"/>
            <line clip-path="url(#clipPath27)" fill="none" text-rendering="optimizeLegibility" x1="450" x2="469" y1="211" y2="370"/>
            <text text-rendering="optimizeLegibility" x="499" xml:space="preserve" y="336" clip-path="url(#clipPath31)" stroke="none"> + vexStatusJustification</text>
            <text text-rendering="optimizeLegibility" x="427" xml:space="preserve" y="354" clip-path="url(#clipPath32)" stroke="none"> 1</text>
            <polygon text-rendering="optimizeLegibility" clip-path="url(#clipPath33)" points=" 468 370 466 368 466 366 467 364 468 364 461 353 468 364 473 351 468 364 469 364 472 366 472 368 470 370" stroke="none"/>
            <polygon fill="none" text-rendering="optimizeLegibility" clip-path="url(#clipPath33)" points=" 468 370 466 368 466 366 467 364 468 364 461 353 468 364 473 351 468 364 469 364 472 366 472 368 470 370"/>
        </g>
    </g>
</svg>
