<?xml version="1.0" encoding="UTF-8"?><svg xmlns="http://www.w3.org/2000/svg" xmlns:xlink="http://www.w3.org/1999/xlink" stroke-dasharray="none" shape-rendering="auto" font-family="'Dialog'" width="500" text-rendering="auto" fill-opacity="1" contentScriptType="text/ecmascript" color-interpolation="auto" color-rendering="auto" preserveAspectRatio="xMidYMid meet" font-size="12px" viewBox="0 0 500 640" fill="black" stroke="black" image-rendering="auto" stroke-miterlimit="10" zoomAndPan="magnify" version="1.0" stroke-linecap="square" stroke-linejoin="miter" contentStyleType="text/css" font-style="normal" height="640" stroke-width="1" stroke-dashoffset="0" font-weight="normal" stroke-opacity="1">
    <!--Generated by the Batik Graphics2D SVG Generator-->
    <defs id="genericDefs"/>
    <g>
        <defs id="defs1">
            <linearGradient x1="10" x2="10" y1="530" gradientUnits="userSpaceOnUse" y2="630" xlink:type="simple" xlink:actuate="onLoad" id="linearGradient1" xlink:show="other" spreadMethod="pad">
                <stop stop-opacity="1" stop-color="white" offset="0%"/>
                <stop stop-opacity="1" stop-color="white" offset="100%"/>
            </linearGradient>
            <linearGradient x1="10" x2="10" y1="290" gradientUnits="userSpaceOnUse" y2="390" xlink:type="simple" xlink:actuate="onLoad" id="linearGradient2" xlink:show="other" spreadMethod="pad">
                <stop stop-opacity="1" stop-color="white" offset="0%"/>
                <stop stop-opacity="1" stop-color="white" offset="100%"/>
            </linearGradient>
            <linearGradient x1="10" x2="10" y1="150" gradientUnits="userSpaceOnUse" y2="250" xlink:type="simple" xlink:actuate="onLoad" id="linearGradient3" xlink:show="other" spreadMethod="pad">
                <stop stop-opacity="1" stop-color="white" offset="0%"/>
                <stop stop-opacity="1" stop-color="white" offset="100%"/>
            </linearGradient>
            <linearGradient x1="10" x2="10" y1="10" gradientUnits="userSpaceOnUse" y2="110" xlink:type="simple" xlink:actuate="onLoad" id="linearGradient4" xlink:show="other" spreadMethod="pad">
                <stop stop-opacity="1" stop-color="white" offset="0%"/>
                <stop stop-opacity="1" stop-color="white" offset="100%"/>
            </linearGradient>
            <linearGradient x1="290" x2="290" y1="530" gradientUnits="userSpaceOnUse" y2="630" xlink:type="simple" xlink:actuate="onLoad" id="linearGradient5" xlink:show="other" spreadMethod="pad">
                <stop stop-opacity="1" stop-color="white" offset="0%"/>
                <stop stop-opacity="1" stop-color="white" offset="100%"/>
            </linearGradient>
            <clipPath clipPathUnits="userSpaceOnUse" id="clipPath1">
                <path d="M10 530 L10 629 L209 629 L209 556 L76 556 L76 530 Z"/>
            </clipPath>
            <clipPath clipPathUnits="userSpaceOnUse" id="clipPath2">
                <path d="M7 527 L213 527 L213 633 L7 633 L7 527 Z"/>
            </clipPath>
            <clipPath clipPathUnits="userSpaceOnUse" id="clipPath3">
                <path d="M15 532 L73 532 L73 554 L15 554 L15 532 Z"/>
            </clipPath>
            <clipPath clipPathUnits="userSpaceOnUse" id="clipPath4">
                <path d="M10 555 L211 555 L211 631 L10 631 L10 555 Z"/>
            </clipPath>
            <clipPath clipPathUnits="userSpaceOnUse" id="clipPath5">
                <path d="M10 290 L10 389 L209 389 L209 316 L67 316 L67 290 Z"/>
            </clipPath>
            <clipPath clipPathUnits="userSpaceOnUse" id="clipPath6">
                <path d="M7 287 L213 287 L213 393 L7 393 L7 287 Z"/>
            </clipPath>
            <clipPath clipPathUnits="userSpaceOnUse" id="clipPath7">
                <path d="M15 292 L64 292 L64 314 L15 314 L15 292 Z"/>
            </clipPath>
            <clipPath clipPathUnits="userSpaceOnUse" id="clipPath8">
                <path d="M10 315 L211 315 L211 391 L10 391 L10 315 Z"/>
            </clipPath>
            <clipPath clipPathUnits="userSpaceOnUse" id="clipPath9">
                <path d="M10 150 L10 249 L209 249 L209 176 L98 176 L98 150 Z"/>
            </clipPath>
            <clipPath clipPathUnits="userSpaceOnUse" id="clipPath10">
                <path d="M7 147 L213 147 L213 253 L7 253 L7 147 Z"/>
            </clipPath>
            <clipPath clipPathUnits="userSpaceOnUse" id="clipPath11">
                <path d="M15 152 L95 152 L95 174 L15 174 L15 152 Z"/>
            </clipPath>
            <clipPath clipPathUnits="userSpaceOnUse" id="clipPath12">
                <path d="M10 175 L211 175 L211 251 L10 251 L10 175 Z"/>
            </clipPath>
            <clipPath clipPathUnits="userSpaceOnUse" id="clipPath13">
                <path d="M10 10 L10 109 L209 109 L209 36 L47 36 L47 10 Z"/>
            </clipPath>
            <clipPath clipPathUnits="userSpaceOnUse" id="clipPath14">
                <path d="M7 7 L213 7 L213 113 L7 113 L7 7 Z"/>
            </clipPath>
            <clipPath clipPathUnits="userSpaceOnUse" id="clipPath15">
                <path d="M15 12 L44 12 L44 34 L15 34 L15 12 Z"/>
            </clipPath>
            <clipPath clipPathUnits="userSpaceOnUse" id="clipPath16">
                <path d="M10 35 L211 35 L211 111 L10 111 L10 35 Z"/>
            </clipPath>
            <clipPath clipPathUnits="userSpaceOnUse" id="clipPath17">
                <path d="M290 530 L290 629 L489 629 L489 556 L362 556 L362 530 Z"/>
            </clipPath>
            <clipPath clipPathUnits="userSpaceOnUse" id="clipPath18">
                <path d="M287 527 L493 527 L493 633 L287 633 L287 527 Z"/>
            </clipPath>
            <clipPath clipPathUnits="userSpaceOnUse" id="clipPath19">
                <path d="M295 532 L359 532 L359 554 L295 554 L295 532 Z"/>
            </clipPath>
            <clipPath clipPathUnits="userSpaceOnUse" id="clipPath20">
                <path d="M290 555 L491 555 L491 631 L290 631 L290 555 Z"/>
            </clipPath>
        </defs>
        <g font-size="15px" fill="url(#linearGradient1)" font-family="'Segoe UI'" stroke-linejoin="round" stroke="url(#linearGradient1)" stroke-width="0" stroke-miterlimit="0">
            <rect x="10" width="200" height="100" y="530" clip-path="url(#clipPath1)" stroke="none"/>
        </g>
        <g font-size="15px" stroke-width="1.1" font-family="'Segoe UI'" stroke-linecap="butt">
            <line y2="530" fill="none" x1="10" clip-path="url(#clipPath2)" x2="76" y1="530"/>
            <line y2="556" fill="none" x1="76" clip-path="url(#clipPath2)" x2="76" y1="530"/>
            <line y2="556" fill="none" x1="76" clip-path="url(#clipPath2)" x2="209" y1="556"/>
            <line y2="629" fill="none" x1="209" clip-path="url(#clipPath2)" x2="209" y1="556"/>
            <line y2="629" fill="none" x1="209" clip-path="url(#clipPath2)" x2="10" y1="629"/>
            <line y2="530" fill="none" x1="10" clip-path="url(#clipPath2)" x2="10" y1="629"/>
            <text x="16" xml:space="preserve" y="550" clip-path="url(#clipPath3)" stroke="none">Controls</text>
            <line y2="556" fill="none" x1="10" clip-path="url(#clipPath4)" x2="209" y1="556"/>
            <rect x="10" y="290" clip-path="url(#clipPath5)" fill="url(#linearGradient2)" width="200" height="100" stroke="none"/>
            <line y2="290" fill="none" x1="10" clip-path="url(#clipPath6)" x2="67" y1="290"/>
            <line y2="316" fill="none" x1="67" clip-path="url(#clipPath6)" x2="67" y1="290"/>
            <line y2="316" fill="none" x1="67" clip-path="url(#clipPath6)" x2="209" y1="316"/>
            <line y2="389" fill="none" x1="209" clip-path="url(#clipPath6)" x2="209" y1="316"/>
            <line y2="389" fill="none" x1="209" clip-path="url(#clipPath6)" x2="10" y1="389"/>
            <line y2="290" fill="none" x1="10" clip-path="url(#clipPath6)" x2="10" y1="389"/>
            <text x="16" xml:space="preserve" y="310" clip-path="url(#clipPath7)" stroke="none">System</text>
            <line y2="316" fill="none" x1="10" clip-path="url(#clipPath8)" x2="209" y1="316"/>
            <rect x="10" y="150" clip-path="url(#clipPath9)" fill="url(#linearGradient3)" width="200" height="100" stroke="none"/>
            <line y2="150" fill="none" x1="10" clip-path="url(#clipPath10)" x2="98" y1="150"/>
            <line y2="176" fill="none" x1="98" clip-path="url(#clipPath10)" x2="98" y1="150"/>
            <line y2="176" fill="none" x1="98" clip-path="url(#clipPath10)" x2="209" y1="176"/>
            <line y2="249" fill="none" x1="209" clip-path="url(#clipPath10)" x2="209" y1="176"/>
            <line y2="249" fill="none" x1="209" clip-path="url(#clipPath10)" x2="10" y1="249"/>
            <line y2="150" fill="none" x1="10" clip-path="url(#clipPath10)" x2="10" y1="249"/>
            <text x="16" xml:space="preserve" y="170" clip-path="url(#clipPath11)" stroke="none">Application</text>
            <line y2="176" fill="none" x1="10" clip-path="url(#clipPath12)" x2="209" y1="176"/>
            <rect x="10" y="10" clip-path="url(#clipPath13)" fill="url(#linearGradient4)" width="200" height="100" stroke="none"/>
            <line y2="10" fill="none" x1="10" clip-path="url(#clipPath14)" x2="47" y1="10"/>
            <line y2="36" fill="none" x1="47" clip-path="url(#clipPath14)" x2="47" y1="10"/>
            <line y2="36" fill="none" x1="47" clip-path="url(#clipPath14)" x2="209" y1="36"/>
            <line y2="109" fill="none" x1="209" clip-path="url(#clipPath14)" x2="209" y1="36"/>
            <line y2="109" fill="none" x1="209" clip-path="url(#clipPath14)" x2="10" y1="109"/>
            <line y2="10" fill="none" x1="10" clip-path="url(#clipPath14)" x2="10" y1="109"/>
            <text x="16" xml:space="preserve" y="30" clip-path="url(#clipPath15)" stroke="none">Risk</text>
            <line y2="36" fill="none" x1="10" clip-path="url(#clipPath16)" x2="209" y1="36"/>
            <rect x="290" y="530" clip-path="url(#clipPath17)" fill="url(#linearGradient5)" width="200" height="100" stroke="none"/>
            <line y2="530" fill="none" x1="290" clip-path="url(#clipPath18)" x2="362" y1="530"/>
            <line y2="556" fill="none" x1="362" clip-path="url(#clipPath18)" x2="362" y1="530"/>
            <line y2="556" fill="none" x1="362" clip-path="url(#clipPath18)" x2="489" y1="556"/>
            <line y2="629" fill="none" x1="489" clip-path="url(#clipPath18)" x2="489" y1="556"/>
            <line y2="629" fill="none" x1="489" clip-path="url(#clipPath18)" x2="290" y1="629"/>
            <line y2="530" fill="none" x1="290" clip-path="url(#clipPath18)" x2="290" y1="629"/>
            <text x="296" xml:space="preserve" y="550" clip-path="url(#clipPath19)" stroke="none">Common</text>
            <line y2="556" fill="none" x1="290" clip-path="url(#clipPath20)" x2="489" y1="556"/>
        </g>
    </g>
</svg>
