<?xml version="1.0" encoding="UTF-8"?><svg xmlns="http://www.w3.org/2000/svg" xmlns:xlink="http://www.w3.org/1999/xlink" stroke-dasharray="none" shape-rendering="auto" font-family="'Dialog'" width="696" text-rendering="auto" fill-opacity="1" contentScriptType="text/ecmascript" color-interpolation="auto" color-rendering="auto" preserveAspectRatio="xMidYMid meet" font-size="12px" viewBox="0 0 696 120" fill="black" stroke="black" image-rendering="auto" stroke-miterlimit="10" zoomAndPan="magnify" version="1.0" stroke-linecap="square" stroke-linejoin="miter" contentStyleType="text/css" font-style="normal" height="120" stroke-width="1" stroke-dashoffset="0" font-weight="normal" stroke-opacity="1">
    <!--Generated by the Batik Graphics2D SVG Generator-->
    <defs id="genericDefs"/>
    <g>
        <defs id="defs1">
            <linearGradient x1="10" x2="10" y1="10" gradientUnits="userSpaceOnUse" y2="110" xlink:type="simple" xlink:actuate="onLoad" id="linearGradient1" xlink:show="other" spreadMethod="pad">
                <stop stop-opacity="1" stop-color="white" offset="0%"/>
                <stop stop-opacity="1" stop-color="rgb(195,215,221)" offset="100%"/>
            </linearGradient>
            <linearGradient x1="430" x2="430" y1="50" gradientUnits="userSpaceOnUse" y2="110" xlink:type="simple" xlink:actuate="onLoad" id="linearGradient2" xlink:show="other" spreadMethod="pad">
                <stop stop-opacity="1" stop-color="rgb(200,255,230)" offset="0%"/>
                <stop stop-opacity="1" stop-color="white" offset="100%"/>
            </linearGradient>
            <clipPath clipPathUnits="userSpaceOnUse" id="clipPath1">
                <path d="M10 10 L10 109 L290 109 L290 10 Z"/>
            </clipPath>
            <clipPath clipPathUnits="userSpaceOnUse" id="clipPath2">
                <path d="M108 12 L194 12 L194 34 L108 34 L108 12 Z"/>
            </clipPath>
            <clipPath clipPathUnits="userSpaceOnUse" id="clipPath3">
                <path d="M10 33 L292 33 L292 65 L10 65 L10 33 Z"/>
            </clipPath>
            <clipPath clipPathUnits="userSpaceOnUse" id="clipPath4">
                <path d="M15 66 L197 66 L197 88 L15 88 L15 66 Z"/>
            </clipPath>
            <clipPath clipPathUnits="userSpaceOnUse" id="clipPath5">
                <path d="M10 64 L292 64 L292 111 L10 111 L10 64 Z"/>
            </clipPath>
            <clipPath clipPathUnits="userSpaceOnUse" id="clipPath6">
                <path d="M9 9 L292 9 L292 111 L9 111 L9 9 Z"/>
            </clipPath>
            <clipPath clipPathUnits="userSpaceOnUse" id="clipPath7">
                <path d="M430 50 L430 109 L685 109 L685 62 L673 50 Z"/>
            </clipPath>
            <clipPath clipPathUnits="userSpaceOnUse" id="clipPath8">
                <path d="M494 55 L612 55 L612 77 L494 77 L494 55 Z"/>
            </clipPath>
            <clipPath clipPathUnits="userSpaceOnUse" id="clipPath9">
                <path d="M435 75 L672 75 L672 97 L435 97 L435 75 Z"/>
            </clipPath>
            <clipPath clipPathUnits="userSpaceOnUse" id="clipPath10">
                <path d="M429 49 L687 49 L687 111 L429 111 L429 49 Z"/>
            </clipPath>
        </defs>
        <g font-size="15px" fill="url(#linearGradient1)" font-family="'Segoe UI'" stroke-linejoin="round" stroke="url(#linearGradient1)" stroke-width="0" stroke-miterlimit="0">
            <rect x="10" width="281" height="100" y="10" clip-path="url(#clipPath1)" stroke="none"/>
            <text fill="black" x="109" xml:space="preserve" y="30" clip-path="url(#clipPath2)" stroke="none">SystemEvent</text>
        </g>
        <g font-size="15px" stroke-width="1.1" font-family="'Segoe UI'" stroke-linecap="butt">
            <line y2="34" fill="none" x1="10" clip-path="url(#clipPath3)" x2="291" y1="34"/>
            <text x="16" xml:space="preserve" y="84" clip-path="url(#clipPath4)" stroke="none"> + isRootCause(): EBoolean</text>
            <line y2="65" fill="none" x1="10" clip-path="url(#clipPath5)" x2="291" y1="65"/>
            <rect x="10" y="10" clip-path="url(#clipPath6)" fill="none" width="280" rx="0" ry="0" height="99"/>
            <rect x="430" y="50" clip-path="url(#clipPath7)" fill="url(#linearGradient2)" width="256" height="60" stroke="none"/>
            <text x="495" xml:space="preserve" y="73" clip-path="url(#clipPath8)" stroke="none">isRootCauseBody</text>
            <text x="436" xml:space="preserve" y="93" clip-path="url(#clipPath9)" stroke="none">{{OCL} self.predecessor-&gt;isEmpty()}</text>
            <line y2="50" fill="none" x1="430" clip-path="url(#clipPath10)" x2="673" y1="50"/>
            <line y2="62" fill="none" x1="673" clip-path="url(#clipPath10)" x2="685" y1="50"/>
            <line y2="109" fill="none" x1="685" clip-path="url(#clipPath10)" x2="685" y1="62"/>
            <line y2="109" fill="none" x1="685" clip-path="url(#clipPath10)" x2="430" y1="109"/>
            <line y2="50" fill="none" x1="430" clip-path="url(#clipPath10)" x2="430" y1="109"/>
            <line y2="50" fill="none" x1="430" clip-path="url(#clipPath10)" x2="430" y1="50"/>
            <line y2="62" fill="none" x1="673" clip-path="url(#clipPath10)" x2="673" y1="50"/>
            <line y2="62" fill="none" x1="673" clip-path="url(#clipPath10)" x2="686" y1="62"/>
        </g>
    </g>
</svg>
