<?xml version="1.0" encoding="UTF-8"?><svg xmlns="http://www.w3.org/2000/svg" xmlns:xlink="http://www.w3.org/1999/xlink" stroke-dasharray="none" shape-rendering="auto" font-family="'Dialog'" width="881" text-rendering="auto" fill-opacity="1" contentScriptType="text/ecmascript" color-interpolation="auto" color-rendering="auto" preserveAspectRatio="xMidYMid meet" font-size="12px" viewBox="0 0 881 300" fill="black" stroke="black" image-rendering="auto" stroke-miterlimit="10" zoomAndPan="magnify" version="1.0" stroke-linecap="square" stroke-linejoin="miter" contentStyleType="text/css" font-style="normal" height="300" stroke-width="1" stroke-dashoffset="0" font-weight="normal" stroke-opacity="1">
    <!--Generated by the Batik Graphics2D SVG Generator-->
    <defs id="genericDefs"/>
    <g>
        <defs id="defs1">
            <linearGradient x1="10" x2="10" y1="10" gradientUnits="userSpaceOnUse" y2="110" xlink:type="simple" xlink:actuate="onLoad" id="linearGradient1" xlink:show="other" spreadMethod="pad">
                <stop stop-opacity="1" stop-color="white" offset="0%"/>
                <stop stop-opacity="1" stop-color="rgb(195,209,213)" offset="100%"/>
            </linearGradient>
            <linearGradient x1="510" x2="510" y1="10" gradientUnits="userSpaceOnUse" y2="110" xlink:type="simple" xlink:actuate="onLoad" id="linearGradient2" xlink:show="other" spreadMethod="pad">
                <stop stop-opacity="1" stop-color="white" offset="0%"/>
                <stop stop-opacity="1" stop-color="rgb(195,209,213)" offset="100%"/>
            </linearGradient>
            <linearGradient x1="510" x2="510" y1="190" gradientUnits="userSpaceOnUse" y2="290" xlink:type="simple" xlink:actuate="onLoad" id="linearGradient3" xlink:show="other" spreadMethod="pad">
                <stop stop-opacity="1" stop-color="white" offset="0%"/>
                <stop stop-opacity="1" stop-color="rgb(195,209,213)" offset="100%"/>
            </linearGradient>
            <clipPath clipPathUnits="userSpaceOnUse" id="clipPath1">
                <path d="M10 10 L10 109 L390 109 L390 10 Z"/>
            </clipPath>
            <clipPath clipPathUnits="userSpaceOnUse" id="clipPath2">
                <path d="M161 12 L242 12 L242 34 L161 34 L161 12 Z"/>
            </clipPath>
            <clipPath clipPathUnits="userSpaceOnUse" id="clipPath3">
                <path d="M171 33 L231 33 L231 55 L171 55 L171 33 Z"/>
            </clipPath>
            <clipPath clipPathUnits="userSpaceOnUse" id="clipPath4">
                <path d="M10 54 L392 54 L392 83 L10 83 L10 54 Z"/>
            </clipPath>
            <clipPath clipPathUnits="userSpaceOnUse" id="clipPath5">
                <path d="M10 82 L392 82 L392 111 L10 111 L10 82 Z"/>
            </clipPath>
            <clipPath clipPathUnits="userSpaceOnUse" id="clipPath6">
                <path d="M9 9 L392 9 L392 111 L9 111 L9 9 Z"/>
            </clipPath>
            <clipPath clipPathUnits="userSpaceOnUse" id="clipPath7">
                <path d="M510 10 L510 109 L870 109 L870 10 Z"/>
            </clipPath>
            <clipPath clipPathUnits="userSpaceOnUse" id="clipPath8">
                <path d="M651 12 L732 12 L732 34 L651 34 L651 12 Z"/>
            </clipPath>
            <clipPath clipPathUnits="userSpaceOnUse" id="clipPath9">
                <path d="M678 33 L705 33 L705 55 L678 55 L678 33 Z"/>
            </clipPath>
            <clipPath clipPathUnits="userSpaceOnUse" id="clipPath10">
                <path d="M510 54 L872 54 L872 83 L510 83 L510 54 Z"/>
            </clipPath>
            <clipPath clipPathUnits="userSpaceOnUse" id="clipPath11">
                <path d="M510 82 L872 82 L872 111 L510 111 L510 82 Z"/>
            </clipPath>
            <clipPath clipPathUnits="userSpaceOnUse" id="clipPath12">
                <path d="M509 9 L872 9 L872 111 L509 111 L509 9 Z"/>
            </clipPath>
            <clipPath clipPathUnits="userSpaceOnUse" id="clipPath13">
                <path d="M510 190 L510 289 L870 289 L870 190 Z"/>
            </clipPath>
            <clipPath clipPathUnits="userSpaceOnUse" id="clipPath14">
                <path d="M651 192 L732 192 L732 214 L651 214 L651 192 Z"/>
            </clipPath>
            <clipPath clipPathUnits="userSpaceOnUse" id="clipPath15">
                <path d="M677 213 L705 213 L705 235 L677 235 L677 213 Z"/>
            </clipPath>
            <clipPath clipPathUnits="userSpaceOnUse" id="clipPath16">
                <path d="M510 234 L872 234 L872 263 L510 263 L510 234 Z"/>
            </clipPath>
            <clipPath clipPathUnits="userSpaceOnUse" id="clipPath17">
                <path d="M510 262 L872 262 L872 291 L510 291 L510 262 Z"/>
            </clipPath>
            <clipPath clipPathUnits="userSpaceOnUse" id="clipPath18">
                <path d="M509 189 L872 189 L872 291 L509 291 L509 189 Z"/>
            </clipPath>
        </defs>
        <g font-size="15px" fill="url(#linearGradient1)" font-family="'Segoe UI'" stroke-linejoin="round" stroke="url(#linearGradient1)" stroke-width="0" stroke-miterlimit="0">
            <rect x="10" width="381" height="100" y="10" clip-path="url(#clipPath1)" stroke="none"/>
            <text fill="black" x="162" xml:space="preserve" y="30" clip-path="url(#clipPath2)" stroke="none">«DataType»</text>
            <text fill="black" x="172" xml:space="preserve" y="51" clip-path="url(#clipPath3)" stroke="none">CVSS 4.0</text>
        </g>
        <g font-size="15px" stroke-width="1.1" font-family="'Segoe UI'" stroke-linecap="butt">
            <line y2="55" fill="none" x1="10" clip-path="url(#clipPath4)" x2="391" y1="55"/>
            <line y2="83" fill="none" x1="10" clip-path="url(#clipPath5)" x2="391" y1="83"/>
            <rect x="10" y="10" clip-path="url(#clipPath6)" fill="none" width="380" rx="0" ry="0" height="99"/>
            <rect x="510" y="10" clip-path="url(#clipPath7)" fill="url(#linearGradient2)" width="361" height="100" stroke="none"/>
            <text x="652" xml:space="preserve" y="30" clip-path="url(#clipPath8)" stroke="none">«DataType»</text>
            <text x="679" xml:space="preserve" y="51" clip-path="url(#clipPath9)" stroke="none">CPE</text>
            <line y2="55" fill="none" x1="510" clip-path="url(#clipPath10)" x2="871" y1="55"/>
            <line y2="83" fill="none" x1="510" clip-path="url(#clipPath11)" x2="871" y1="83"/>
            <rect x="510" y="10" clip-path="url(#clipPath12)" fill="none" width="360" rx="0" ry="0" height="99"/>
            <rect x="510" y="190" clip-path="url(#clipPath13)" fill="url(#linearGradient3)" width="361" height="100" stroke="none"/>
            <text x="652" xml:space="preserve" y="210" clip-path="url(#clipPath14)" stroke="none">«DataType»</text>
            <text x="678" xml:space="preserve" y="231" clip-path="url(#clipPath15)" stroke="none">CVE</text>
            <line y2="235" fill="none" x1="510" clip-path="url(#clipPath16)" x2="871" y1="235"/>
            <line y2="263" fill="none" x1="510" clip-path="url(#clipPath17)" x2="871" y1="263"/>
            <rect x="510" y="190" clip-path="url(#clipPath18)" fill="none" width="360" rx="0" ry="0" height="99"/>
        </g>
    </g>
</svg>
