<?xml version="1.0" encoding="UTF-8"?><svg xmlns="http://www.w3.org/2000/svg" xmlns:xlink="http://www.w3.org/1999/xlink" stroke-dasharray="none" shape-rendering="auto" font-family="'Dialog'" width="701" text-rendering="auto" fill-opacity="1" contentScriptType="text/ecmascript" color-interpolation="auto" color-rendering="auto" preserveAspectRatio="xMidYMid meet" font-size="12px" viewBox="0 0 701 320" fill="black" stroke="black" image-rendering="auto" stroke-miterlimit="10" zoomAndPan="magnify" version="1.0" stroke-linecap="square" stroke-linejoin="miter" contentStyleType="text/css" font-style="normal" height="320" stroke-width="1" stroke-dashoffset="0" font-weight="normal" stroke-opacity="1">
    <!--Generated by the Batik Graphics2D SVG Generator-->
    <defs id="genericDefs"/>
    <g>
        <defs id="defs1">
            <linearGradient x1="10" x2="10" y1="10" gradientUnits="userSpaceOnUse" y2="110" xlink:type="simple" xlink:actuate="onLoad" id="linearGradient1" xlink:show="other" spreadMethod="pad">
                <stop stop-opacity="1" stop-color="white" offset="0%"/>
                <stop stop-opacity="1" stop-color="rgb(195,215,221)" offset="100%"/>
            </linearGradient>
            <linearGradient x1="10" x2="10" y1="210" gradientUnits="userSpaceOnUse" y2="310" xlink:type="simple" xlink:actuate="onLoad" id="linearGradient2" xlink:show="other" spreadMethod="pad">
                <stop stop-opacity="1" stop-color="white" offset="0%"/>
                <stop stop-opacity="1" stop-color="rgb(195,215,221)" offset="100%"/>
            </linearGradient>
            <linearGradient x1="250" x2="250" y1="210" gradientUnits="userSpaceOnUse" y2="310" xlink:type="simple" xlink:actuate="onLoad" id="linearGradient3" xlink:show="other" spreadMethod="pad">
                <stop stop-opacity="1" stop-color="white" offset="0%"/>
                <stop stop-opacity="1" stop-color="rgb(195,215,221)" offset="100%"/>
            </linearGradient>
            <linearGradient x1="490" x2="490" y1="210" gradientUnits="userSpaceOnUse" y2="310" xlink:type="simple" xlink:actuate="onLoad" id="linearGradient4" xlink:show="other" spreadMethod="pad">
                <stop stop-opacity="1" stop-color="white" offset="0%"/>
                <stop stop-opacity="1" stop-color="rgb(195,215,221)" offset="100%"/>
            </linearGradient>
            <clipPath clipPathUnits="userSpaceOnUse" id="clipPath1">
                <path d="M10 10 L10 109 L690 109 L690 10 Z"/>
            </clipPath>
            <clipPath clipPathUnits="userSpaceOnUse" id="clipPath2">
                <path d="M289 39 L414 39 L414 61 L289 61 L289 39 Z"/>
            </clipPath>
            <clipPath clipPathUnits="userSpaceOnUse" id="clipPath3">
                <path d="M299 60 L403 60 L403 82 L299 82 L299 60 Z"/>
            </clipPath>
            <clipPath clipPathUnits="userSpaceOnUse" id="clipPath4">
                <path d="M9 9 L692 9 L692 111 L9 111 L9 9 Z"/>
            </clipPath>
            <clipPath clipPathUnits="userSpaceOnUse" id="clipPath5">
                <path d="M10 210 L10 309 L210 309 L210 210 Z"/>
            </clipPath>
            <clipPath clipPathUnits="userSpaceOnUse" id="clipPath6">
                <path d="M86 249 L136 249 L136 271 L86 271 L86 249 Z"/>
            </clipPath>
            <clipPath clipPathUnits="userSpaceOnUse" id="clipPath7">
                <path d="M9 209 L212 209 L212 311 L9 311 L9 209 Z"/>
            </clipPath>
            <clipPath clipPathUnits="userSpaceOnUse" id="clipPath8">
                <path d="M250 210 L250 309 L450 309 L450 210 Z"/>
            </clipPath>
            <clipPath clipPathUnits="userSpaceOnUse" id="clipPath9">
                <path d="M303 249 L399 249 L399 271 L303 271 L303 249 Z"/>
            </clipPath>
            <clipPath clipPathUnits="userSpaceOnUse" id="clipPath10">
                <path d="M249 209 L452 209 L452 311 L249 311 L249 209 Z"/>
            </clipPath>
            <clipPath clipPathUnits="userSpaceOnUse" id="clipPath11">
                <path d="M490 210 L490 309 L690 309 L690 210 Z"/>
            </clipPath>
            <clipPath clipPathUnits="userSpaceOnUse" id="clipPath12">
                <path d="M548 249 L634 249 L634 271 L548 271 L548 249 Z"/>
            </clipPath>
            <clipPath clipPathUnits="userSpaceOnUse" id="clipPath13">
                <path d="M489 209 L692 209 L692 311 L489 311 L489 209 Z"/>
            </clipPath>
            <clipPath clipPathUnits="userSpaceOnUse" id="clipPath14">
                <path d="M-1 -1 L702 -1 L702 321 L-1 321 L-1 -1 Z"/>
            </clipPath>
            <clipPath clipPathUnits="userSpaceOnUse" id="clipPath15">
                <path d="M581 109 L600 109 L600 122 L581 122 L581 109 Z"/>
            </clipPath>
            <clipPath clipPathUnits="userSpaceOnUse" id="clipPath16">
                <path d="M341 109 L360 109 L360 122 L341 122 L341 109 Z"/>
            </clipPath>
            <clipPath clipPathUnits="userSpaceOnUse" id="clipPath17">
                <path d="M101 109 L120 109 L120 122 L101 122 L101 109 Z"/>
            </clipPath>
        </defs>
        <g font-size="15px" fill="url(#linearGradient1)" font-family="'Segoe UI'" stroke-linejoin="round" stroke="url(#linearGradient1)" stroke-width="0" stroke-miterlimit="0">
            <rect x="10" width="681" height="100" y="10" clip-path="url(#clipPath1)" stroke="none"/>
            <text x="290" y="57" clip-path="url(#clipPath2)" fill="black" font-style="italic" stroke="none" xml:space="preserve">(Megamodel::UML)</text>
            <text x="300" y="78" clip-path="url(#clipPath3)" fill="black" font-style="italic" stroke="none" xml:space="preserve">NamedElement</text>
        </g>
        <g font-size="15px" stroke-width="1.1" font-family="'Segoe UI'" stroke-linecap="butt">
            <rect x="10" y="10" clip-path="url(#clipPath4)" fill="none" width="680" rx="0" ry="0" height="99"/>
            <rect x="10" y="210" clip-path="url(#clipPath5)" fill="url(#linearGradient2)" width="201" height="100" stroke="none"/>
            <text x="87" xml:space="preserve" y="267" clip-path="url(#clipPath6)" stroke="none">Hazard</text>
            <rect x="10" y="210" clip-path="url(#clipPath7)" fill="none" width="200" rx="0" ry="0" height="99"/>
            <rect x="250" y="210" clip-path="url(#clipPath8)" fill="url(#linearGradient3)" width="201" height="100" stroke="none"/>
            <text x="304" xml:space="preserve" y="267" clip-path="url(#clipPath9)" stroke="none">SystemImpact</text>
            <rect x="250" y="210" clip-path="url(#clipPath10)" fill="none" width="200" rx="0" ry="0" height="99"/>
            <rect x="490" y="210" clip-path="url(#clipPath11)" fill="url(#linearGradient4)" width="201" height="100" stroke="none"/>
            <text x="549" xml:space="preserve" y="267" clip-path="url(#clipPath12)" stroke="none">SystemEvent</text>
            <rect x="490" y="210" clip-path="url(#clipPath13)" fill="none" width="200" rx="0" ry="0" height="99"/>
            <line clip-path="url(#clipPath14)" fill="none" text-rendering="optimizeLegibility" x1="590" x2="590" y1="210" y2="110"/>
            <polygon fill="white" text-rendering="optimizeLegibility" clip-path="url(#clipPath15)" points=" 590 110 598 120 582 120" stroke="none"/>
            <polygon fill="none" text-rendering="optimizeLegibility" clip-path="url(#clipPath15)" points=" 590 110 598 120 582 120"/>
            <line clip-path="url(#clipPath14)" fill="none" text-rendering="optimizeLegibility" x1="350" x2="350" y1="210" y2="110"/>
            <polygon fill="white" text-rendering="optimizeLegibility" clip-path="url(#clipPath16)" points=" 350 110 358 120 342 120" stroke="none"/>
            <polygon fill="none" text-rendering="optimizeLegibility" clip-path="url(#clipPath16)" points=" 350 110 358 120 342 120"/>
            <line clip-path="url(#clipPath14)" fill="none" text-rendering="optimizeLegibility" x1="110" x2="110" y1="210" y2="110"/>
            <polygon fill="white" text-rendering="optimizeLegibility" clip-path="url(#clipPath17)" points=" 110 110 118 120 102 120" stroke="none"/>
            <polygon fill="none" text-rendering="optimizeLegibility" clip-path="url(#clipPath17)" points=" 110 110 118 120 102 120"/>
        </g>
    </g>
</svg>
